<?xml version="1.0" encoding="utf-8"?>
<!-- Generator: Adobe Illustrator 21.0.0, SVG Export Plug-In . SVG Version: 6.00 Build 0)  -->
<svg version="1.1" id="Layer_1" xmlns="http://www.w3.org/2000/svg" xmlns:xlink="http://www.w3.org/1999/xlink" x="0px" y="0px"
	 viewBox="0 0 185 188" style="enable-background:new 0 0 185 188;" xml:space="preserve">
<style type="text/css">
	.st0{fill:#FFFFFF;}
	.st1{fill:#FFDD0F;}
	.st2{fill:#08A650;}
	.st3{fill:#0D8A4C;}
	.st4{fill:#FCFDFC;}
	.st5{fill:#188A4D;}
	.st6{fill:#FCFDFB;}
	.st7{fill:#208C4F;}
	.st8{fill:#58595B;}
	.st9{fill:#E6E6E5;}
	.st10{fill:#6D6E70;}
	.st11{fill:#404041;}
</style>
<g>
	<g>
		<rect x="36.2" y="21.5" class="st0" width="15.1" height="32.3"/>
		<path class="st1" d="M8.2,53.9c-0.7,0-1.4,0-2.1,0c-0.3,0-0.4-0.1-0.4-0.3c-1.2-4.2-2.3-8.3-3.5-12.5c-0.4-1.5-0.8-3-1.3-4.5
			c0-0.1-0.1-0.1-0.1-0.2c0-0.1,0-0.2,0-0.2C1,36.1,1.1,36,1.2,35.9c1.7-1.7,3.4-3.4,5-5c4.3-4.2,8.5-8.5,12.8-12.7
			c3.6-3.6,7.3-7.2,10.9-10.8c0.2-0.2,0.4-0.3,0.6-0.2c8.6,2.5,17.2,5.1,25.8,7.6c0.3,0.1,0.4,0.2,0.4,0.5c0,12.3,0,24.7,0,37
			c0,0.1,0,0.2,0,0.3c-0.2-0.1-0.1-0.3-0.1-0.5c0-1.9,0-3.7,0-5.6c0-3.3,0.1-6.5,0-9.8c-0.1-4.7,0-9.5-0.1-14.2
			c0-0.4-0.1-0.6-0.5-0.7c-3.1-1.2-6.3-2-9.6-2.3c-1.8-0.2-3.6-0.2-5.3-0.1c-4.1,0.2-8,1.1-11.8,2.8c-3.4,1.5-6.5,3.5-9.3,5.9
			c-3,2.7-5.5,5.8-7.4,9.3c-2.1,3.9-3.4,8.1-4,12.5c-0.2,1.2-0.2,2.4-0.3,3.7C8.3,53.6,8.3,53.7,8.2,53.9z"/>
		<path class="st2" d="M8.2,53.9c0-1.1,0-2.2,0.1-3.3C8.6,48.4,9,46.2,9.6,44c1.3-4.4,3.4-8.4,6.3-12c5-6.1,11.4-10.1,19-12
			c3.3-0.8,6.6-1.1,10-0.9c3.9,0.2,7.6,1.1,11.2,2.5c0.3,0.1,0.4,0.3,0.4,0.6c0,1.5,0,3.1,0,4.6c0,2.6,0,5.2,0,7.9
			c0.1,5.8,0,11.7,0.1,17.5c0,0.1,0,0.2,0,0.3c0,0.4,0,0.8,0,1.2c0,0.2-0.1,0.2-0.2,0.2c-1.8,0-3.6,0-5.5,0c-0.2,0-0.2-0.1-0.2-0.2
			c0-0.1,0-0.2,0-0.3c0-5,0-10.1,0-15.1c0-0.3-0.1-0.4-0.4-0.5c-0.6-0.2-1-0.7-1.4-1.3c-0.4-0.8-0.9-1.5-1.5-2.2c0,0.1,0,0.3,0,0.4
			c0,6.2,0,12.5,0,18.7c0,0.1,0,0.2,0,0.3c0,0.1,0,0.2-0.2,0.2c-0.2,0-0.2-0.1-0.2-0.2c0-0.1,0-0.2,0-0.3c0-6.2,0-12.5,0-18.7
			c0-0.2,0-0.3,0-0.5c-0.2,0-0.2,0.2-0.3,0.3c-0.4,0.6-0.8,1.2-1.2,1.8c-0.1,0.2-0.3,0.4-0.5,0.6c-0.4,0.4-0.8,0.4-1.3,0
			c-0.4-0.4-0.7-0.9-1.1-1.3c-0.3-0.5-0.6-0.9-1-1.4c0,0.1,0,0.3,0,0.4c0,6.3,0,12.5,0,18.8c0,0.1,0,0.2,0,0.3c0,0.1,0,0.2-0.2,0.2
			c-0.2,0-0.2-0.1-0.2-0.2c0-0.1,0-0.2,0-0.3c0-6.2,0-12.4,0-18.5c0-0.2,0-0.3,0-0.6c-0.4,0.5-0.7,0.9-1,1.4
			c-0.2,0.4-0.5,0.8-0.8,1.2c-0.4,0.5-0.9,0.9-1.5,1c-0.2,0.1-0.3-0.1-0.4-0.2c-1-0.9-1.1-2.1-0.4-3.2c0.1-0.2,0.2-0.3,0.3-0.5
			c0.1-0.4,0.1-0.8-0.2-1.2c-0.2-0.3-0.4-0.5-0.6-0.8c-0.3-0.5-0.2-1,0.1-1.4c0.4-0.4,0.8-0.5,1.4-0.3c0.2,0.1,0.4,0.3,0.6,0.2
			c0.2-0.1,0.1-0.4,0.2-0.6c0.3-0.7,0.9-0.9,1.5-1c0.3,0,0.7-0.1,1-0.1c1.5,0,3,0,4.5,0c0.7,0,1-0.2,1.1-0.9
			c0.1-0.4,0.1-0.8-0.1-1.2c-0.7-1.3-1.4-2.7-2.1-4c-0.4-0.7-0.8-0.8-1.4-0.1c0,0-0.1,0.1-0.1,0.1c-1.5,1.3-3.1,2.7-4.6,4
			c-1.3,1.2-2.7,2.3-4,3.5c-1.3,1.2-2.7,2.4-4,3.5c-1.3,1.2-2.7,2.3-4,3.5c-1.3,1.2-2.7,2.4-4,3.5c-1.3,1.2-2.7,2.3-4,3.5
			c-0.3,0.3-0.6,0.5-0.9,0.8c-0.1,0.1-0.1,0.1-0.2,0.2c-0.3,0.3-0.6,0.6-0.9,0.8c-0.1,0.1-0.2,0.2-0.4,0.2c-0.2-0.1-0.2-0.4-0.3-0.6
			c-0.1-0.1-0.1-0.3-0.3-0.4c0,0.5,0.4,0.9,0.3,1.4c-0.2,0.3-0.5,0.5-0.8,0.7c-0.1,0.1-0.2,0.1-0.3,0c-0.1-0.6,0-1.3-0.1-1.9
			c-0.1,0.8,0,1.6-0.1,2.4c-0.2,0.3-0.6,0.5-0.8,0.7c-0.5,0.5-1.1,1-1.7,1.4c-0.1,0.3-0.1,0.6-0.1,1c0,0.4,0,0.9,0,1.3
			c0,0.1,0,0.3-0.1,0.4c-0.3-0.1-0.2-0.3-0.2-0.5c0-0.6,0-1.1,0-1.8c-1.2,1-2.3,2-3.4,3c0.2,0.1,0.3,0.1,0.4,0.1
			c9.4,0,18.8,0,28.2,0c0.3,0,0.5-0.1,0.8,0.1c-0.1,0.3-0.3,0.3-0.6,0.3c-5.5,0-11.1,0-16.6,0c-4.1,0-8.2,0-12.2,0
			C8.5,53.9,8.4,53.9,8.2,53.9z"/>
		<path class="st3" d="M18.1,45.2c0.5-0.5,1.1-1,1.6-1.5c0.7-0.6,1.5-1.3,2.2-1.9c0.9-0.8,1.9-1.6,2.8-2.4c0.7-0.6,1.4-1.3,2.2-1.9
			c0.9-0.8,1.9-1.6,2.8-2.4c0.7-0.6,1.4-1.2,2.1-1.8c1-0.9,2-1.7,2.9-2.6c0.9-0.8,1.8-1.6,2.7-2.4c0.9-0.8,1.8-1.6,2.8-2.4
			c0.7-0.6,1.4-1.3,2.2-1.9c0.4-0.4,0.9-0.8,1.4-1.1c0.1,0.2,0,0.4-0.1,0.5c-0.5,0.9-0.9,1.9-1.5,2.8c-0.2,0.3-0.3,0.6-0.4,0.9
			c-0.2,0.5-0.1,1,0.2,1.5c0.1,0.1,0.2,0.3,0.2,0.5c-0.5,0.1-1.1,0-1.6,0.2c-0.6,0.2-0.9,0.6-0.9,1.2c0,0.3-0.1,0.4-0.4,0.2
			c-0.2-0.1-0.3-0.2-0.5-0.3c-0.5-0.2-0.9,0-1.3,0.4C37,31,37,31.6,37.2,32c0.1,0.2,0.3,0.5,0.5,0.7c0.5,0.6,0.5,1.1,0,1.8
			c-0.9,1.2-0.7,2.5,0.6,3.4c0,4.9,0,9.7,0,14.6c0,0.4,0.1,0.8-0.1,1.2c-9.9,0-19.7,0-29.6,0c0.1-0.3,0.3-0.4,0.5-0.6
			c0.7-0.6,1.5-1.3,2.2-1.9c0.3-0.2,0.5-0.5,0.8-0.7c0.1-0.1,0.1-0.1,0.2-0.1c0.1,0,0.1,0.1,0.1,0.2c0,0.6,0,1.2,0,1.8
			c0,0.1,0,0.3,0.1,0.4c0.3-0.2,0.6-0.1,0.9-0.1c0.2,0,0.3,0,0.5,0c-0.2-0.1-0.5,0-0.7,0c-0.2,0-0.4-0.1-0.4-0.4
			c0-0.7-0.1-1.5,0-2.2c0.6-0.6,1.3-1.1,1.9-1.7c0.1-0.1,0.2-0.3,0.4-0.2c0.2-0.1,0.2-0.3,0.4-0.5c0.3-0.3,0.6-0.6,0.9-0.8
			c0.2,0,0.2,0.2,0.2,0.3c0.1,0.2,0.1,0.4,0.2,0.6c0.1,0.1,0.1,0.3,0.3,0.3c0.2,0,0.2-0.2,0.2-0.3c0.3-0.6,0.5-1.3,0.8-1.9
			C18.1,45.5,18.1,45.3,18.1,45.2z"/>
		<path class="st0" d="M38.4,33.5c0-0.4-0.2-0.7-0.4-1.1c-0.2-0.2-0.4-0.5-0.5-0.7c-0.2-0.3-0.2-0.6,0.1-0.8
			c0.2-0.3,0.5-0.4,0.8-0.2c0.5,0.3,1.1,0.5,1.4,1c0.1,0.1,0.2,0.2,0.2,0.3c0.5,0.6,1,0.7,1.7,0.3c0.2-0.1,0.3-0.2,0.5-0.3
			c1.2-1.1,3.2-1.1,4.4-0.2c0.3,0.2,0.5,0.4,0.8,0.5c0.8,0.3,1.4,0.2,1.8-0.5c0.4-0.6,0.9-0.8,1.5-1c0.3-0.1,0.5-0.1,0.8,0.1
			c0.2,0.2,0.3,0.5,0.1,0.8c-0.1,0.1-0.1,0.3-0.2,0.4c-0.7,1-0.8,1.8-0.1,2.8c0.7,1,0.3,1.8-0.3,2.5c-0.1,0.1-0.3,0.2-0.5,0.1
			c-0.5-0.2-0.8-0.6-1-1c-0.5-0.9-1.1-1.7-1.6-2.5c-0.3-0.4-0.6-0.5-1-0.1c-0.4,0.5-0.7,1-1,1.4c-0.2,0.4-0.5,0.7-0.8,1.1
			c-0.4,0.5-0.7,0.5-1.1,0c-0.5-0.6-0.9-1.3-1.4-1.9c-0.1-0.2-0.3-0.4-0.4-0.6c-0.3-0.4-0.7-0.4-1,0.1c-0.5,0.8-1.1,1.6-1.6,2.5
			c-0.2,0.4-0.6,0.8-1,1c-0.2,0.1-0.4,0.1-0.5-0.1c-0.8-0.8-0.8-1.6-0.2-2.6C38.3,34.1,38.4,33.9,38.4,33.5z"/>
		<path class="st0" d="M44.5,29.3c1.3,0,2.6,0,3.8,0.1c1,0.1,1.4,1.1,0.8,1.9c-0.6,0.9-1.2,1-2.1,0.3c-0.6-0.5-1.3-0.8-2.1-0.8
			c-1.1-0.1-2,0.1-2.8,0.8c0,0,0,0,0,0c-1.2,1-1.6,0.5-2.3-0.6c-0.4-0.6,0.2-1.5,0.9-1.6c0.6-0.1,1.2-0.1,1.8-0.1
			C43.1,29.3,43.8,29.3,44.5,29.3z"/>
		<path class="st4" d="M18.1,45.2c0.1,0,0.3,0,0.2,0.2c-0.3,0.8-0.6,1.6-1,2.4C17.2,47.9,17.2,48,17,48c-0.2,0-0.2-0.1-0.3-0.2
			c-0.1-0.4-0.3-0.7-0.4-1.1c-0.2-0.5-0.3-1-0.5-1.5c0.2-0.1,0.4,0,0.5,0.2c0.1,0.3,0.2,0.6,0.3,0.9c0.3,0.3,0.3,0.7,0.4,1
			c0.2-0.6,0.4-1.2,0.7-1.8c0-0.1,0.1-0.2,0.2-0.2C17.9,45.3,18,45.2,18.1,45.2z"/>
		<path class="st4" d="M12.2,45.3c0.3-0.1,0.4,0,0.5,0.2c0.2,0.7,0.5,1.4,0.8,2.1c0.3-0.7,0.6-1.4,0.8-2.1c0.1-0.2,0.2-0.3,0.4-0.2
			c-0.3,0.9-0.7,1.7-1,2.6C13.6,48,13.5,48,13.4,48c-0.1,0-0.2,0-0.2-0.1C12.8,47,12.5,46.1,12.2,45.3z"/>
		<path class="st0" d="M12.7,49.9c0.2,0.1,0.1,0.2,0.1,0.4c0,0.6,0,1.2,0,1.8c0,0.2,0,0.4,0.3,0.3c0.2,0,0.5,0,0.8,0
			c0.1,0,0.3-0.1,0.3,0.1c0,0.2-0.2,0.2-0.3,0.2c-0.5,0-0.9,0-1.4,0c0-0.8,0-1.7,0-2.5C12.4,49.9,12.5,49.9,12.7,49.9z"/>
		<path class="st5" d="M17.9,45.4c-0.3,0.7-0.5,1.4-0.8,2.2c-0.2-0.4-0.3-0.8-0.4-1.2C17.1,46.1,17.4,45.6,17.9,45.4z"/>
		<path class="st0" d="M15.4,47.5c0,0.2,0.1,0.6-0.4,0.5c0-0.8,0-1.7,0-2.5c0-0.1,0-0.2,0.2-0.2c0.2,0,0.2,0.1,0.2,0.3
			C15.4,46.1,15.4,46.8,15.4,47.5z"/>
		<path class="st4" d="M19.1,51.2c0.3,0,0.6-0.2,0.6,0.4c-0.1,0.7-0.4,1.1-1.2,1.1c-0.6,0-1-0.3-1.2-0.8c-0.2-0.6-0.2-1.2,0.3-1.7
			c0.4-0.4,0.9-0.5,1.5-0.3c0.3,0.1,0.5,0.3,0.6,0.5c0,0.1,0.1,0.2,0,0.2c-0.1,0-0.2,0.1-0.3-0.1c-0.2-0.5-0.6-0.5-1-0.4
			c-0.5,0.1-0.7,0.4-0.7,0.9c-0.1,0.5,0,0.9,0.4,1.2c0.4,0.3,0.8,0.2,1.2,0c0.3-0.1,0.2-0.3,0.2-0.6c0-0.3-0.2-0.1-0.4-0.1
			c-0.1,0-0.2,0-0.2,0c-0.1,0-0.2,0-0.2-0.2c0-0.2,0.1-0.1,0.2-0.1C18.8,51.2,18.9,51.2,19.1,51.2z"/>
		<path class="st4" d="M23.2,50.6c-0.2,0.1-0.3,0.1-0.4-0.2c-0.2-0.3-0.8-0.4-1.1-0.1c-0.2,0.2-0.2,0.5,0.1,0.6
			c0.3,0.1,0.5,0.1,0.8,0.2c0.5,0.1,0.7,0.4,0.7,0.8c0,0.4-0.3,0.7-0.8,0.8c-0.6,0.1-1.3-0.2-1.4-0.7c0-0.1-0.2-0.2,0.1-0.3
			c0.1,0,0.2,0,0.3,0.2c0.2,0.5,0.7,0.7,1.1,0.5c0.2-0.1,0.3-0.2,0.3-0.4c0-0.2-0.1-0.3-0.3-0.4c-0.3-0.1-0.6-0.2-0.9-0.3
			c-0.3-0.1-0.5-0.3-0.5-0.7c0-0.4,0.2-0.6,0.6-0.7C22.5,49.6,23,49.9,23.2,50.6z"/>
		<path class="st0" d="M14.6,51.3c0-0.4,0-0.8,0-1.1c0-0.2,0.1-0.2,0.2-0.2c0.5,0,1,0,1.5,0c0.1,0,0.2-0.1,0.3,0.1
			c0,0.2-0.2,0.2-0.3,0.2c-0.4,0-0.7,0-1.1,0c-0.2,0-0.3,0.1-0.3,0.3c0,0.6,0,0.6,0.6,0.6c0.3,0,0.5,0,0.8,0c0.1,0,0.2,0,0.2,0.2
			c0,0.2-0.1,0.1-0.3,0.1c-0.3,0-0.7,0-1,0c-0.2,0-0.3,0.1-0.3,0.3c0,0.7,0,0.7,0.6,0.7c0.3,0,0.6,0,0.9,0c0.1,0,0.2,0,0.2,0.2
			c0,0.2-0.1,0.2-0.2,0.2c-0.6,0-1.1,0-1.7,0c-0.2,0-0.2-0.1-0.2-0.2C14.6,52,14.6,51.6,14.6,51.3z"/>
		<path class="st4" d="M18.1,48c0.3-0.9,0.7-1.7,1-2.6c0-0.1,0.1-0.2,0.2-0.2c0.1,0,0.2,0,0.3,0.2c0.3,0.9,0.7,1.7,1.1,2.6
			c-0.4,0.1-0.5-0.1-0.6-0.3c-0.1-0.2-0.1-0.5-0.3-0.5c-0.3,0-0.7-0.1-1,0c-0.2,0-0.2,0.4-0.3,0.5C18.4,48,18.4,48,18.1,48z"/>
		<path class="st4" d="M28.2,52.6c-0.3,0.1-0.4,0-0.5-0.3c-0.1-0.2-0.1-0.5-0.3-0.5c-0.3-0.1-0.7-0.1-1,0c-0.2,0-0.2,0.3-0.3,0.5
			c-0.1,0.3-0.2,0.4-0.5,0.3c0.3-0.9,0.7-1.7,1-2.6c0.1-0.1,0.1-0.2,0.3-0.2c0.1,0,0.2,0,0.3,0.2C27.5,50.9,27.9,51.7,28.2,52.6z"/>
		<path class="st4" d="M36.2,52.6c-0.4,0.1-0.5-0.1-0.5-0.3c-0.1-0.2-0.1-0.5-0.3-0.5c-0.3-0.1-0.7-0.1-1,0c-0.2,0-0.2,0.4-0.3,0.5
			c-0.1,0.3-0.1,0.3-0.5,0.3c0.3-0.9,0.7-1.8,1-2.6c0.1-0.2,0.4-0.2,0.5,0C35.5,50.9,35.9,51.7,36.2,52.6z"/>
		<path class="st6" d="M31.4,49.9c0.3-0.1,0.4,0,0.5,0.2c0.2,0.7,0.5,1.4,0.8,2.1c0.3-0.7,0.5-1.4,0.8-2c0-0.1,0.1-0.2,0.1-0.3
			c0.1-0.1,0.2-0.1,0.3-0.1c0.1,0,0,0.1,0,0.2c-0.3,0.8-0.6,1.6-1,2.4c-0.1,0.1-0.1,0.2-0.3,0.2c-0.1,0-0.2,0-0.3-0.2
			C32,51.6,31.7,50.8,31.4,49.9z"/>
		<path class="st0" d="M29.1,49.9c0.3,0,0.6,0,0.9,0c0.1,0,0.2,0,0.2,0.2c0,0.2-0.1,0.2-0.2,0.2c-0.2,0-0.6-0.1-0.7,0.1
			c-0.1,0.2,0,0.5-0.1,0.7c0,0.5,0,0.9,0,1.4c0,0.1,0.1,0.3-0.2,0.3c-0.2,0-0.2-0.1-0.2-0.3c0-0.6,0-1.2,0-1.8
			c0-0.4-0.1-0.5-0.4-0.4c-0.1,0-0.2,0-0.3,0c-0.1,0-0.2,0-0.2-0.1c0-0.1,0.1-0.2,0.2-0.2C28.5,49.9,28.8,49.9,29.1,49.9z"/>
		<path class="st0" d="M23.8,51.2c0-0.4,0-0.7,0-1.1c0-0.1,0-0.3,0.2-0.3c0.2,0,0.2,0.1,0.2,0.2c0,0.6,0,1.3,0,1.9
			c0,0.3,0.1,0.3,0.3,0.3c0.3,0,0.6,0,0.8,0c0.1,0,0.2,0,0.2,0.2c0,0.2-0.1,0.2-0.2,0.2c-0.4,0-0.9,0-1.3,0c-0.2,0-0.2-0.1-0.2-0.2
			C23.8,52,23.8,51.6,23.8,51.2z"/>
		<path class="st0" d="M20.6,51.3c0,0.4,0,0.8,0,1.1c0,0.1,0,0.2-0.2,0.2c-0.2,0-0.2-0.1-0.2-0.3c0-0.8,0-1.5,0-2.3
			c0-0.1,0-0.2,0.2-0.2c0.2,0,0.2,0.1,0.2,0.3C20.6,50.5,20.6,50.9,20.6,51.3z"/>
		<path class="st0" d="M31,51.3c0,0.4,0,0.8,0,1.1c0,0.1,0,0.2-0.2,0.2c-0.2,0-0.2-0.1-0.2-0.2c0-0.8,0-1.5,0-2.3
			c0-0.1,0-0.2,0.2-0.2c0.2,0,0.2,0.1,0.2,0.2C31,50.5,31,50.9,31,51.3z"/>
		<path class="st7" d="M19.8,46.8c-0.3,0-0.6,0-0.9,0c0.1-0.4,0.3-0.8,0.4-1.2C19.5,46,19.6,46.4,19.8,46.8z"/>
		<path class="st7" d="M26.9,50.3c0.1,0.1,0.1,0.3,0.2,0.4c0.3,0.8,0.3,0.8-0.6,0.7C26.6,51.1,26.8,50.7,26.9,50.3z"/>
		<path class="st7" d="M34.9,50.2c0.2,0.4,0.3,0.8,0.4,1.2c-0.3,0-0.6,0-0.9,0C34.6,51.1,34.7,50.7,34.9,50.2z"/>
		<g>
			<path class="st8" d="M65.3,22.8h3v3.6l3.1-3.6h3.9l-3.5,3.6l3.7,6h-3.6l-2-3.9L68.3,30v2.3h-3V22.8z"/>
			<path class="st8" d="M75.6,27.6c0-1.6,0.4-2.8,1.3-3.7c0.9-0.9,2.1-1.3,3.6-1.3c1.6,0,2.8,0.4,3.7,1.3c0.9,0.9,1.3,2.1,1.3,3.6
				c0,1.1-0.2,2-0.6,2.8c-0.4,0.7-0.9,1.3-1.6,1.7c-0.7,0.4-1.6,0.6-2.7,0.6c-1.1,0-2-0.2-2.7-0.5c-0.7-0.3-1.3-0.9-1.7-1.6
				C75.9,29.6,75.6,28.7,75.6,27.6z M78.6,27.6c0,1,0.2,1.7,0.5,2.1c0.4,0.4,0.8,0.6,1.5,0.6c0.6,0,1.1-0.2,1.5-0.6
				c0.3-0.4,0.5-1.2,0.5-2.2c0-0.9-0.2-1.6-0.5-2c-0.4-0.4-0.9-0.6-1.5-0.6c-0.6,0-1.1,0.2-1.4,0.6C78.8,25.9,78.6,26.6,78.6,27.6z"
				/>
			<path class="st8" d="M87.2,22.8H90l3.6,5.3v-5.3h2.8v9.6h-2.8L90,27.1v5.3h-2.8V22.8z"/>
			<path class="st8" d="M103.2,28.9v-2h4.6V31c-0.9,0.6-1.7,1-2.3,1.2c-0.7,0.2-1.5,0.3-2.4,0.3c-1.1,0-2.1-0.2-2.8-0.6
				c-0.7-0.4-1.3-1-1.7-1.7c-0.4-0.8-0.6-1.6-0.6-2.6c0-1,0.2-2,0.6-2.7c0.4-0.8,1.1-1.4,1.9-1.8c0.6-0.3,1.5-0.5,2.6-0.5
				c1.1,0,1.9,0.1,2.4,0.3c0.5,0.2,1,0.5,1.3,0.9c0.3,0.4,0.6,0.9,0.8,1.5l-2.9,0.5c-0.1-0.4-0.3-0.6-0.6-0.8
				c-0.3-0.2-0.6-0.3-1.1-0.3c-0.6,0-1.2,0.2-1.6,0.7c-0.4,0.5-0.6,1.2-0.6,2.1c0,1,0.2,1.8,0.6,2.2c0.4,0.4,0.9,0.7,1.6,0.7
				c0.3,0,0.6,0,0.9-0.1c0.3-0.1,0.6-0.3,1-0.5v-0.9H103.2z"/>
			<path class="st8" d="M109.5,32.4v-9.6h4.9c0.9,0,1.6,0.1,2.1,0.2c0.5,0.2,0.9,0.4,1.2,0.9c0.3,0.4,0.4,0.9,0.4,1.6
				c0,0.5-0.1,1-0.3,1.4c-0.2,0.4-0.5,0.7-0.9,0.9c-0.3,0.2-0.6,0.3-1,0.4c0.4,0.1,0.6,0.2,0.8,0.4c0.1,0.1,0.3,0.2,0.5,0.5
				c0.2,0.3,0.3,0.5,0.4,0.6l1.4,2.8h-3.3l-1.6-2.9c-0.2-0.4-0.4-0.6-0.5-0.7c-0.2-0.1-0.5-0.2-0.7-0.2h-0.3v3.9H109.5z M112.5,26.6
				h1.2c0.1,0,0.4,0,0.8-0.1c0.2,0,0.4-0.1,0.5-0.3c0.1-0.2,0.2-0.3,0.2-0.6c0-0.3-0.1-0.5-0.3-0.7c-0.2-0.2-0.6-0.2-1.1-0.2h-1.3
				V26.6z"/>
			<path class="st8" d="M119.9,22.8h7.9v2h-5v1.5h4.6v2h-4.6v1.9h5.1v2.2h-8.1V22.8z"/>
			<path class="st8" d="M129.1,29.2l2.8-0.2c0.1,0.5,0.2,0.8,0.4,1c0.3,0.4,0.7,0.6,1.3,0.6c0.4,0,0.7-0.1,1-0.3
				c0.2-0.2,0.3-0.4,0.3-0.7c0-0.2-0.1-0.5-0.3-0.7c-0.2-0.2-0.7-0.4-1.5-0.6c-1.3-0.3-2.2-0.7-2.8-1.2c-0.6-0.5-0.8-1.1-0.8-1.9
				c0-0.5,0.1-1,0.4-1.4s0.7-0.8,1.3-1c0.6-0.3,1.4-0.4,2.4-0.4c1.2,0,2.2,0.2,2.8,0.7c0.6,0.5,1,1.2,1.1,2.2l-2.8,0.2
				c-0.1-0.4-0.2-0.7-0.5-0.9c-0.2-0.2-0.6-0.3-1-0.3c-0.3,0-0.6,0.1-0.8,0.2c-0.2,0.1-0.3,0.3-0.3,0.5c0,0.2,0.1,0.3,0.2,0.4
				c0.1,0.1,0.5,0.2,1,0.4c1.3,0.3,2.2,0.6,2.8,0.8c0.6,0.3,1,0.6,1.2,1.1c0.3,0.4,0.4,0.9,0.4,1.4c0,0.6-0.2,1.2-0.5,1.7
				c-0.3,0.5-0.8,0.9-1.4,1.2c-0.6,0.3-1.4,0.4-2.3,0.4c-1.6,0-2.8-0.3-3.4-0.9C129.5,30.9,129.1,30.1,129.1,29.2z"/>
			<path class="st8" d="M143.8,22.8h3v9.6h-3V22.8z"/>
			<path class="st8" d="M148.9,22.8h3v3.6l3.1-3.6h3.9l-3.5,3.6l3.7,6h-3.6l-2-3.9l-1.5,1.6v2.3h-3V22.8z"/>
			<path class="st8" d="M160.1,22.8h3V30h4.6v2.4h-7.6V22.8z"/>
			<path class="st8" d="M169.1,22.8h3v9.6h-3V22.8z"/>
			<path class="st8" d="M174.2,22.8h3.9l1.5,5.8l1.5-5.8h3.9v9.6h-2.4V25l-1.9,7.3h-2.2l-1.9-7.3v7.3h-2.4V22.8z"/>
		</g>
		<path class="st8" d="M65.2,42.8l1-0.1c0,0.4,0.2,0.7,0.3,1c0.2,0.3,0.4,0.5,0.8,0.6c0.4,0.2,0.8,0.2,1.2,0.2
			c0.4,0,0.8-0.1,1.1-0.2c0.3-0.1,0.5-0.3,0.7-0.5c0.2-0.2,0.2-0.4,0.2-0.7c0-0.3-0.1-0.5-0.2-0.7c-0.1-0.2-0.4-0.3-0.7-0.5
			c-0.2-0.1-0.7-0.2-1.4-0.4c-0.7-0.2-1.3-0.3-1.6-0.5c-0.4-0.2-0.7-0.5-0.9-0.8s-0.3-0.6-0.3-1c0-0.4,0.1-0.8,0.3-1.1
			s0.6-0.6,1-0.8c0.4-0.2,0.9-0.3,1.5-0.3c0.6,0,1.1,0.1,1.6,0.3c0.5,0.2,0.8,0.5,1.1,0.8c0.2,0.4,0.4,0.8,0.4,1.3l-1,0.1
			c-0.1-0.5-0.2-0.9-0.6-1.2s-0.8-0.4-1.4-0.4c-0.6,0-1.1,0.1-1.4,0.4c-0.3,0.2-0.4,0.5-0.4,0.9c0,0.3,0.1,0.5,0.3,0.7
			c0.2,0.2,0.7,0.4,1.6,0.6c0.9,0.2,1.5,0.4,1.8,0.5c0.5,0.2,0.8,0.5,1,0.8c0.2,0.3,0.3,0.7,0.3,1.1c0,0.4-0.1,0.8-0.4,1.2
			c-0.2,0.4-0.6,0.7-1.1,0.9c-0.5,0.2-1,0.3-1.6,0.3c-0.7,0-1.3-0.1-1.8-0.3c-0.5-0.2-0.9-0.5-1.2-1C65.3,43.8,65.2,43.3,65.2,42.8z
			"/>
		<path class="st8" d="M73.1,45.3v-8.1h5.8v1h-4.8v2.5h4.5v0.9h-4.5v2.7h4.9v1H73.1z"/>
		<path class="st8" d="M80.5,45.3v-8.1h1.6L84,43c0.2,0.5,0.3,0.9,0.4,1.2c0.1-0.3,0.2-0.7,0.4-1.3l1.9-5.6h1.4v8.1h-1v-6.7
			l-2.3,6.7h-1l-2.3-6.9v6.9H80.5z"/>
		<path class="st8" d="M89,45.3l3.1-8.1h1.1l3.3,8.1h-1.2l-0.9-2.4h-3.4l-0.9,2.4H89z M91.4,42h2.7l-0.8-2.2
			c-0.3-0.7-0.4-1.2-0.6-1.7c-0.1,0.5-0.2,1-0.4,1.5L91.4,42z"/>
		<path class="st8" d="M97.4,45.3v-8.1h3.6c0.7,0,1.3,0.1,1.6,0.2c0.4,0.1,0.7,0.4,0.9,0.8c0.2,0.4,0.3,0.8,0.3,1.2
			c0,0.6-0.2,1.1-0.6,1.4s-0.9,0.6-1.7,0.7c0.3,0.1,0.5,0.3,0.6,0.4c0.3,0.3,0.6,0.6,0.9,1.1l1.4,2.2h-1.3l-1.1-1.7
			c-0.3-0.5-0.6-0.9-0.8-1.1c-0.2-0.3-0.4-0.4-0.5-0.5c-0.2-0.1-0.3-0.2-0.5-0.2c-0.1,0-0.3,0-0.6,0h-1.2v3.6H97.4z M98.5,40.8h2.3
			c0.5,0,0.9-0.1,1.1-0.2c0.3-0.1,0.5-0.3,0.6-0.5c0.1-0.2,0.2-0.5,0.2-0.7c0-0.4-0.1-0.7-0.4-0.9c-0.3-0.2-0.7-0.4-1.3-0.4h-2.5
			V40.8z"/>
		<path class="st8" d="M104.7,45.3l3.1-8.1h1.1l3.3,8.1H111l-0.9-2.4h-3.4l-0.9,2.4H104.7z M107,42h2.7l-0.8-2.2
			c-0.3-0.7-0.4-1.2-0.6-1.7c-0.1,0.5-0.2,1-0.4,1.5L107,42z"/>
		<path class="st8" d="M113.1,45.3v-8.1h1.1l4.2,6.3v-6.3h1v8.1h-1.1l-4.2-6.3v6.3H113.1z"/>
	</g>
	<path class="st8" d="M125,42.2v-0.9l3.4,0v3c-0.5,0.4-1.1,0.7-1.6,0.9c-0.6,0.2-1.1,0.3-1.7,0.3c-0.8,0-1.5-0.2-2.2-0.5
		c-0.6-0.3-1.1-0.8-1.5-1.5c-0.3-0.6-0.5-1.4-0.5-2.1c0-0.8,0.2-1.5,0.5-2.2c0.3-0.7,0.8-1.2,1.4-1.5c0.6-0.3,1.3-0.5,2.1-0.5
		c0.6,0,1.1,0.1,1.6,0.3c0.5,0.2,0.8,0.5,1.1,0.8c0.3,0.3,0.5,0.8,0.6,1.3l-1,0.3c-0.1-0.4-0.3-0.7-0.5-1c-0.2-0.2-0.4-0.4-0.8-0.6
		c-0.3-0.1-0.7-0.2-1.1-0.2c-0.5,0-0.9,0.1-1.3,0.2c-0.4,0.1-0.6,0.3-0.9,0.6c-0.2,0.2-0.4,0.5-0.5,0.8c-0.2,0.5-0.3,1-0.3,1.6
		c0,0.7,0.1,1.3,0.4,1.8c0.2,0.5,0.6,0.8,1.1,1.1c0.5,0.2,1,0.4,1.5,0.4c0.5,0,0.9-0.1,1.4-0.3c0.4-0.2,0.8-0.4,1-0.6v-1.5H125z"/>
	<path class="st8" d="M137.9,44.4v1h-5.3c0-0.2,0-0.5,0.1-0.7c0.1-0.4,0.4-0.7,0.7-1.1c0.3-0.4,0.7-0.8,1.3-1.2
		c0.9-0.7,1.5-1.3,1.8-1.7c0.3-0.4,0.5-0.8,0.5-1.2c0-0.4-0.1-0.7-0.4-1c-0.3-0.3-0.6-0.4-1.1-0.4c-0.5,0-0.9,0.1-1.1,0.4
		c-0.3,0.3-0.4,0.7-0.4,1.2l-1-0.1c0.1-0.8,0.3-1.3,0.8-1.7s1.1-0.6,1.8-0.6c0.8,0,1.4,0.2,1.8,0.6c0.5,0.4,0.7,1,0.7,1.6
		c0,0.3-0.1,0.6-0.2,1c-0.1,0.3-0.4,0.6-0.7,1c-0.3,0.3-0.8,0.8-1.5,1.4c-0.6,0.5-1,0.8-1.1,1c-0.2,0.2-0.3,0.4-0.4,0.5H137.9z"/>
	<path class="st8" d="M138.9,41.4c0-1,0.1-1.7,0.3-2.3c0.2-0.6,0.5-1,0.9-1.3c0.4-0.3,0.9-0.5,1.5-0.5c0.4,0,0.8,0.1,1.1,0.3
		c0.3,0.2,0.6,0.4,0.8,0.8c0.2,0.3,0.4,0.7,0.5,1.2c0.1,0.5,0.2,1.1,0.2,1.9c0,0.9-0.1,1.7-0.3,2.3c-0.2,0.6-0.5,1-0.9,1.3
		c-0.4,0.3-0.9,0.5-1.5,0.5c-0.8,0-1.4-0.3-1.8-0.8C139.2,44,138.9,42.9,138.9,41.4z M139.9,41.4c0,1.3,0.2,2.2,0.5,2.6
		c0.3,0.4,0.7,0.7,1.1,0.7c0.5,0,0.8-0.2,1.1-0.7c0.3-0.4,0.5-1.3,0.5-2.6c0-1.3-0.2-2.2-0.5-2.6c-0.3-0.4-0.7-0.7-1.2-0.7
		c-0.5,0-0.8,0.2-1.1,0.6C140.1,39.1,139.9,40.1,139.9,41.4z"/>
	<path class="st8" d="M148.9,45.3h-1V39c-0.2,0.2-0.6,0.5-0.9,0.7c-0.4,0.2-0.7,0.4-1,0.5v-1c0.6-0.3,1-0.6,1.5-0.9
		c0.4-0.4,0.7-0.7,0.9-1.1h0.6V45.3z"/>
	<path class="st8" d="M151.6,43.5l1-0.1c0.1,0.4,0.2,0.8,0.5,1c0.2,0.2,0.5,0.3,0.9,0.3c0.3,0,0.6-0.1,0.8-0.2
		c0.2-0.1,0.4-0.3,0.6-0.6c0.1-0.2,0.3-0.5,0.4-0.9c0.1-0.4,0.1-0.8,0.1-1.2c0,0,0-0.1,0-0.2c-0.2,0.3-0.5,0.6-0.8,0.8
		c-0.3,0.2-0.7,0.3-1.1,0.3c-0.7,0-1.2-0.2-1.7-0.7c-0.5-0.5-0.7-1.1-0.7-1.9c0-0.8,0.2-1.5,0.7-2c0.5-0.5,1.1-0.7,1.8-0.7
		c0.5,0,1,0.1,1.4,0.4c0.4,0.3,0.8,0.7,1,1.2c0.2,0.5,0.3,1.3,0.3,2.3c0,1-0.1,1.8-0.3,2.5c-0.2,0.6-0.6,1.1-1,1.4
		c-0.4,0.3-1,0.5-1.6,0.5c-0.6,0-1.1-0.2-1.5-0.5C151.9,44.6,151.7,44.1,151.6,43.5z M155.6,39.9c0-0.6-0.2-1-0.5-1.4
		c-0.3-0.3-0.7-0.5-1.1-0.5c-0.4,0-0.8,0.2-1.1,0.5c-0.3,0.4-0.5,0.8-0.5,1.4c0,0.5,0.2,0.9,0.5,1.3s0.7,0.5,1.1,0.5
		c0.5,0,0.8-0.2,1.1-0.5C155.5,40.9,155.6,40.5,155.6,39.9z"/>
</g>
<g>
	<rect x="36.1" y="148.6" class="st0" width="15.1" height="32.3"/>
	<path class="st1" d="M8.1,180.9c-0.7,0-1.4,0-2.1,0c-0.3,0-0.4-0.1-0.4-0.3c-1.2-4.2-2.3-8.3-3.5-12.5c-0.4-1.5-0.8-3-1.3-4.5
		c0-0.1-0.1-0.1-0.1-0.2c0-0.1,0-0.2,0-0.2c0.1-0.1,0.2-0.2,0.4-0.3c1.7-1.7,3.4-3.4,5-5c4.3-4.2,8.5-8.5,12.8-12.7
		c3.6-3.6,7.3-7.2,10.9-10.8c0.2-0.2,0.4-0.3,0.6-0.2c8.6,2.5,17.2,5.1,25.8,7.6c0.3,0.1,0.4,0.2,0.4,0.5c0,12.3,0,24.7,0,37
		c0,0.1,0,0.2,0,0.3c-0.2-0.1-0.1-0.3-0.1-0.5c0-1.9,0-3.7,0-5.6c0-3.3,0.1-6.5,0-9.8c-0.1-4.7,0-9.5-0.1-14.2
		c0-0.4-0.1-0.6-0.5-0.7c-3.1-1.2-6.3-2-9.6-2.3c-1.8-0.2-3.6-0.2-5.3-0.1c-4.1,0.2-8,1.1-11.8,2.8c-3.4,1.5-6.5,3.5-9.3,5.9
		c-3,2.7-5.5,5.8-7.4,9.3c-2.1,3.9-3.4,8.1-4,12.5c-0.2,1.2-0.2,2.4-0.3,3.7C8.2,180.6,8.2,180.8,8.1,180.9z"/>
	<path class="st2" d="M8.1,180.9c0-1.1,0-2.2,0.1-3.3c0.2-2.2,0.6-4.4,1.3-6.5c1.3-4.4,3.4-8.4,6.3-12c5-6.1,11.4-10.1,19-12
		c3.3-0.8,6.6-1.1,10-0.9c3.9,0.2,7.6,1.1,11.2,2.5c0.3,0.1,0.4,0.3,0.4,0.6c0,1.5,0,3.1,0,4.6c0,2.6,0,5.2,0,7.9
		c0.1,5.8,0,11.7,0.1,17.5c0,0.1,0,0.2,0,0.3c0,0.4,0,0.8,0,1.2c0,0.2-0.1,0.2-0.2,0.2c-1.8,0-3.6,0-5.5,0c-0.2,0-0.2-0.1-0.2-0.2
		c0-0.1,0-0.2,0-0.3c0-5,0-10.1,0-15.1c0-0.3-0.1-0.4-0.4-0.5c-0.6-0.2-1-0.7-1.4-1.3c-0.4-0.8-0.9-1.5-1.5-2.2c0,0.1,0,0.3,0,0.4
		c0,6.2,0,12.5,0,18.7c0,0.1,0,0.2,0,0.3c0,0.1,0,0.2-0.2,0.2c-0.2,0-0.2-0.1-0.2-0.2c0-0.1,0-0.2,0-0.3c0-6.2,0-12.5,0-18.7
		c0-0.2,0-0.3,0-0.5c-0.2,0-0.2,0.2-0.3,0.3c-0.4,0.6-0.8,1.2-1.2,1.8c-0.1,0.2-0.3,0.4-0.5,0.6c-0.4,0.4-0.8,0.4-1.3,0
		c-0.4-0.4-0.7-0.9-1.1-1.3c-0.3-0.5-0.6-0.9-1-1.4c0,0.1,0,0.3,0,0.4c0,6.3,0,12.5,0,18.8c0,0.1,0,0.2,0,0.3c0,0.1,0,0.2-0.2,0.2
		c-0.2,0-0.2-0.1-0.2-0.2c0-0.1,0-0.2,0-0.3c0-6.2,0-12.4,0-18.5c0-0.2,0-0.3,0-0.6c-0.4,0.5-0.7,0.9-1,1.4
		c-0.2,0.4-0.5,0.8-0.8,1.2c-0.4,0.5-0.9,0.9-1.5,1c-0.2,0.1-0.3-0.1-0.4-0.2c-1-0.9-1.1-2.1-0.4-3.2c0.1-0.2,0.2-0.3,0.3-0.5
		c0.1-0.4,0.1-0.8-0.2-1.2c-0.2-0.3-0.4-0.5-0.6-0.8c-0.3-0.5-0.2-1,0.1-1.4c0.4-0.4,0.8-0.5,1.4-0.3c0.2,0.1,0.4,0.3,0.6,0.2
		c0.2-0.1,0.1-0.4,0.2-0.6c0.3-0.7,0.9-0.9,1.5-1c0.3,0,0.7-0.1,1-0.1c1.5,0,3,0,4.5,0c0.7,0,1-0.2,1.1-0.9c0.1-0.4,0.1-0.8-0.1-1.2
		c-0.7-1.3-1.4-2.7-2.1-4c-0.4-0.7-0.8-0.8-1.4-0.1c0,0-0.1,0.1-0.1,0.1c-1.5,1.3-3.1,2.7-4.6,4c-1.3,1.2-2.7,2.3-4,3.5
		c-1.3,1.2-2.7,2.4-4,3.5c-1.3,1.2-2.7,2.3-4,3.5c-1.3,1.2-2.7,2.4-4,3.5c-1.3,1.2-2.7,2.3-4,3.5c-0.3,0.3-0.6,0.5-0.9,0.8
		c-0.1,0.1-0.1,0.1-0.2,0.2c-0.3,0.3-0.6,0.6-0.9,0.8c-0.1,0.1-0.2,0.2-0.4,0.2c-0.2-0.1-0.2-0.4-0.3-0.6c-0.1-0.1-0.1-0.3-0.3-0.4
		c0,0.5,0.4,0.9,0.3,1.4c-0.2,0.3-0.5,0.5-0.8,0.7c-0.1,0.1-0.2,0.1-0.3,0c-0.1-0.6,0-1.3-0.1-1.9c-0.1,0.8,0,1.6-0.1,2.4
		c-0.2,0.3-0.6,0.5-0.8,0.7c-0.5,0.5-1.1,1-1.7,1.4c-0.1,0.3-0.1,0.6-0.1,1c0,0.4,0,0.9,0,1.3c0,0.1,0,0.3-0.1,0.4
		c-0.3-0.1-0.2-0.3-0.2-0.5c0-0.6,0-1.1,0-1.8c-1.2,1-2.3,2-3.4,3c0.2,0.1,0.3,0.1,0.4,0.1c9.4,0,18.8,0,28.2,0
		c0.3,0,0.5-0.1,0.8,0.1c-0.1,0.3-0.3,0.3-0.6,0.3c-5.5,0-11.1,0-16.6,0c-4.1,0-8.2,0-12.2,0C8.4,180.9,8.3,180.9,8.1,180.9z"/>
	<path class="st3" d="M18,172.2c0.5-0.5,1.1-1,1.6-1.5c0.7-0.6,1.5-1.3,2.2-1.9c0.9-0.8,1.9-1.6,2.8-2.4c0.7-0.6,1.4-1.3,2.2-1.9
		c0.9-0.8,1.9-1.6,2.8-2.4c0.7-0.6,1.4-1.2,2.1-1.8c1-0.9,2-1.7,2.9-2.6c0.9-0.8,1.8-1.6,2.7-2.4c0.9-0.8,1.8-1.6,2.8-2.4
		c0.7-0.6,1.4-1.3,2.2-1.9c0.4-0.4,0.9-0.8,1.4-1.1c0.1,0.2,0,0.4-0.1,0.5c-0.5,0.9-0.9,1.9-1.5,2.8c-0.2,0.3-0.3,0.6-0.4,0.9
		c-0.2,0.5-0.1,1,0.2,1.5c0.1,0.1,0.2,0.3,0.2,0.5c-0.5,0.1-1.1,0-1.6,0.2c-0.6,0.2-0.9,0.6-0.9,1.2c0,0.3-0.1,0.4-0.4,0.2
		c-0.2-0.1-0.3-0.2-0.5-0.3c-0.5-0.2-0.9,0-1.3,0.4c-0.3,0.3-0.3,0.8,0,1.2c0.1,0.2,0.3,0.5,0.5,0.7c0.5,0.6,0.5,1.1,0,1.8
		c-0.9,1.2-0.7,2.5,0.6,3.4c0,4.9,0,9.7,0,14.6c0,0.4,0.1,0.8-0.1,1.2c-9.9,0-19.7,0-29.6,0c0.1-0.3,0.3-0.4,0.5-0.6
		c0.7-0.6,1.5-1.3,2.2-1.9c0.3-0.2,0.5-0.5,0.8-0.7c0.1-0.1,0.1-0.1,0.2-0.1c0.1,0,0.1,0.1,0.1,0.2c0,0.6,0,1.2,0,1.8
		c0,0.1,0,0.3,0.1,0.4c0.3-0.2,0.6-0.1,0.9-0.1c0.2,0,0.3,0,0.5,0c-0.2-0.1-0.5,0-0.7,0c-0.2,0-0.4-0.1-0.4-0.4c0-0.7-0.1-1.5,0-2.2
		c0.6-0.6,1.3-1.1,1.9-1.7c0.1-0.1,0.2-0.3,0.4-0.2c0.2-0.1,0.2-0.3,0.4-0.5c0.3-0.3,0.6-0.6,0.9-0.8c0.2,0,0.2,0.2,0.2,0.3
		c0.1,0.2,0.1,0.4,0.2,0.6c0.1,0.1,0.1,0.3,0.3,0.3c0.2,0,0.2-0.2,0.2-0.3c0.3-0.6,0.5-1.3,0.8-1.9C18,172.5,18,172.4,18,172.2z"/>
	<path class="st0" d="M38.3,160.6c0-0.4-0.2-0.7-0.4-1.1c-0.2-0.2-0.4-0.5-0.5-0.7c-0.2-0.3-0.2-0.6,0.1-0.8
		c0.2-0.3,0.5-0.4,0.8-0.2c0.5,0.3,1.1,0.5,1.4,1c0.1,0.1,0.2,0.2,0.2,0.3c0.5,0.6,1,0.7,1.7,0.3c0.2-0.1,0.3-0.2,0.5-0.3
		c1.2-1.1,3.2-1.1,4.4-0.2c0.3,0.2,0.5,0.4,0.8,0.5c0.8,0.3,1.4,0.2,1.8-0.5c0.4-0.6,0.9-0.8,1.5-1c0.3-0.1,0.5-0.1,0.8,0.1
		c0.2,0.2,0.3,0.5,0.1,0.8c-0.1,0.1-0.1,0.3-0.2,0.4c-0.7,1-0.8,1.8-0.1,2.8c0.7,1,0.3,1.8-0.3,2.5c-0.1,0.1-0.3,0.2-0.5,0.1
		c-0.5-0.2-0.8-0.6-1-1c-0.5-0.9-1.1-1.7-1.6-2.5c-0.3-0.4-0.6-0.5-1-0.1c-0.4,0.5-0.7,1-1,1.4c-0.2,0.4-0.5,0.7-0.8,1.1
		c-0.4,0.5-0.7,0.5-1.1,0c-0.5-0.6-0.9-1.3-1.4-1.9c-0.1-0.2-0.3-0.4-0.4-0.6c-0.3-0.4-0.7-0.4-1,0.1c-0.5,0.8-1.1,1.6-1.6,2.5
		c-0.2,0.4-0.6,0.8-1,1c-0.2,0.1-0.4,0.1-0.5-0.1c-0.8-0.8-0.8-1.6-0.2-2.6C38.2,161.2,38.3,160.9,38.3,160.6z"/>
	<path class="st0" d="M44.4,156.3c1.3,0,2.6,0,3.8,0.1c1,0.1,1.4,1.1,0.8,1.9c-0.6,0.9-1.2,1-2.1,0.3c-0.6-0.5-1.3-0.8-2.1-0.8
		c-1.1-0.1-2,0.1-2.8,0.8c0,0,0,0,0,0c-1.2,1-1.6,0.5-2.3-0.6c-0.4-0.6,0.2-1.5,0.9-1.6c0.6-0.1,1.2-0.1,1.8-0.1
		C43,156.3,43.7,156.3,44.4,156.3z"/>
	<path class="st4" d="M18,172.2c0.1,0,0.3,0,0.2,0.2c-0.3,0.8-0.6,1.6-1,2.4c-0.1,0.2-0.1,0.2-0.3,0.2c-0.2,0-0.2-0.1-0.3-0.2
		c-0.1-0.4-0.3-0.7-0.4-1.1c-0.2-0.5-0.3-1-0.5-1.5c0.2-0.1,0.4,0,0.5,0.2c0.1,0.3,0.2,0.6,0.3,0.9c0.3,0.3,0.3,0.7,0.4,1
		c0.2-0.6,0.4-1.2,0.7-1.8c0-0.1,0.1-0.2,0.2-0.2C17.8,172.3,17.9,172.2,18,172.2z"/>
	<path class="st4" d="M12.1,172.3c0.3-0.1,0.4,0,0.5,0.2c0.2,0.7,0.5,1.4,0.8,2.1c0.3-0.7,0.6-1.4,0.8-2.1c0.1-0.2,0.2-0.3,0.4-0.2
		c-0.3,0.9-0.7,1.7-1,2.6c-0.1,0.1-0.2,0.1-0.3,0.2c-0.1,0-0.2,0-0.2-0.1C12.7,174,12.4,173.1,12.1,172.3z"/>
	<path class="st0" d="M12.6,176.9c0.2,0.1,0.1,0.2,0.1,0.4c0,0.6,0,1.2,0,1.8c0,0.2,0,0.4,0.3,0.3c0.2,0,0.5,0,0.8,0
		c0.1,0,0.3-0.1,0.3,0.1c0,0.2-0.2,0.2-0.3,0.2c-0.5,0-0.9,0-1.4,0c0-0.8,0-1.7,0-2.5C12.3,176.9,12.4,176.9,12.6,176.9z"/>
	<path class="st5" d="M17.8,172.4c-0.3,0.7-0.5,1.4-0.8,2.2c-0.2-0.4-0.3-0.8-0.4-1.2C17,173.1,17.3,172.7,17.8,172.4z"/>
	<path class="st0" d="M15.3,174.5c0,0.2,0.1,0.6-0.4,0.5c0-0.8,0-1.7,0-2.5c0-0.1,0-0.2,0.2-0.2c0.2,0,0.2,0.1,0.2,0.3
		C15.3,173.2,15.3,173.8,15.3,174.5z"/>
	<path class="st4" d="M19,178.2c0.3,0,0.6-0.2,0.6,0.4c-0.1,0.7-0.4,1.1-1.2,1.1c-0.6,0-1-0.3-1.2-0.8c-0.2-0.6-0.2-1.2,0.3-1.7
		c0.4-0.4,0.9-0.5,1.5-0.3c0.3,0.1,0.5,0.3,0.6,0.5c0,0.1,0.1,0.2,0,0.2c-0.1,0-0.2,0.1-0.3-0.1c-0.2-0.5-0.6-0.5-1-0.4
		c-0.5,0.1-0.7,0.4-0.7,0.9c-0.1,0.5,0,0.9,0.4,1.2c0.4,0.3,0.8,0.2,1.2,0c0.3-0.1,0.2-0.3,0.2-0.6c0-0.3-0.2-0.1-0.4-0.1
		c-0.1,0-0.2,0-0.2,0c-0.1,0-0.2,0-0.2-0.2c0-0.2,0.1-0.1,0.2-0.1C18.7,178.2,18.8,178.2,19,178.2z"/>
	<path class="st4" d="M23.1,177.6c-0.2,0.1-0.3,0.1-0.4-0.2c-0.2-0.3-0.8-0.4-1.1-0.1c-0.2,0.2-0.2,0.5,0.1,0.6
		c0.3,0.1,0.5,0.1,0.8,0.2c0.5,0.1,0.7,0.4,0.7,0.8c0,0.4-0.3,0.7-0.8,0.8c-0.6,0.1-1.3-0.2-1.4-0.7c0-0.1-0.2-0.2,0.1-0.3
		c0.1,0,0.2,0,0.3,0.2c0.2,0.5,0.7,0.7,1.1,0.5c0.2-0.1,0.3-0.2,0.3-0.4c0-0.2-0.1-0.3-0.3-0.4c-0.3-0.1-0.6-0.2-0.9-0.3
		c-0.3-0.1-0.5-0.3-0.5-0.7c0-0.4,0.2-0.6,0.6-0.7C22.4,176.7,22.9,176.9,23.1,177.6z"/>
	<path class="st0" d="M14.5,178.3c0-0.4,0-0.8,0-1.1c0-0.2,0.1-0.2,0.2-0.2c0.5,0,1,0,1.5,0c0.1,0,0.2-0.1,0.3,0.1
		c0,0.2-0.2,0.2-0.3,0.2c-0.4,0-0.7,0-1.1,0c-0.2,0-0.3,0.1-0.3,0.3c0,0.6,0,0.6,0.6,0.6c0.3,0,0.5,0,0.8,0c0.1,0,0.2,0,0.2,0.2
		c0,0.2-0.1,0.1-0.3,0.1c-0.3,0-0.7,0-1,0c-0.2,0-0.3,0.1-0.3,0.3c0,0.7,0,0.7,0.6,0.7c0.3,0,0.6,0,0.9,0c0.1,0,0.2,0,0.2,0.2
		c0,0.2-0.1,0.2-0.2,0.2c-0.6,0-1.1,0-1.7,0c-0.2,0-0.2-0.1-0.2-0.2C14.5,179,14.5,178.7,14.5,178.3z"/>
	<path class="st4" d="M18,175c0.3-0.9,0.7-1.7,1-2.6c0-0.1,0.1-0.2,0.2-0.2c0.1,0,0.2,0,0.3,0.2c0.3,0.9,0.7,1.7,1.1,2.6
		c-0.4,0.1-0.5-0.1-0.6-0.3c-0.1-0.2-0.1-0.5-0.3-0.5c-0.3,0-0.7-0.1-1,0c-0.2,0-0.2,0.4-0.3,0.5C18.3,175,18.3,175,18,175z"/>
	<path class="st4" d="M28.1,179.6c-0.3,0.1-0.4,0-0.5-0.3c-0.1-0.2-0.1-0.5-0.3-0.5c-0.3-0.1-0.7-0.1-1,0c-0.2,0-0.2,0.3-0.3,0.5
		c-0.1,0.3-0.2,0.4-0.5,0.3c0.3-0.9,0.7-1.7,1-2.6c0.1-0.1,0.1-0.2,0.3-0.2c0.1,0,0.2,0,0.3,0.2C27.4,177.9,27.8,178.8,28.1,179.6z"
		/>
	<path class="st4" d="M36.1,179.6c-0.4,0.1-0.5-0.1-0.5-0.3c-0.1-0.2-0.1-0.5-0.3-0.5c-0.3-0.1-0.7-0.1-1,0c-0.2,0-0.2,0.4-0.3,0.5
		c-0.1,0.3-0.1,0.3-0.5,0.3c0.3-0.9,0.7-1.8,1-2.6c0.1-0.2,0.4-0.2,0.5,0C35.4,177.9,35.8,178.8,36.1,179.6z"/>
	<path class="st6" d="M31.3,176.9c0.3-0.1,0.4,0,0.5,0.2c0.2,0.7,0.5,1.4,0.8,2.1c0.3-0.7,0.5-1.4,0.8-2c0-0.1,0.1-0.2,0.1-0.3
		c0.1-0.1,0.2-0.1,0.3-0.1c0.1,0,0,0.1,0,0.2c-0.3,0.8-0.6,1.6-1,2.4c-0.1,0.1-0.1,0.2-0.3,0.2c-0.1,0-0.2,0-0.3-0.2
		C31.9,178.6,31.6,177.8,31.3,176.9z"/>
	<path class="st0" d="M29,176.9c0.3,0,0.6,0,0.9,0c0.1,0,0.2,0,0.2,0.2c0,0.2-0.1,0.2-0.2,0.2c-0.2,0-0.6-0.1-0.7,0.1
		c-0.1,0.2,0,0.5-0.1,0.7c0,0.5,0,0.9,0,1.4c0,0.1,0.1,0.3-0.2,0.3c-0.2,0-0.2-0.1-0.2-0.3c0-0.6,0-1.2,0-1.8c0-0.4-0.1-0.5-0.4-0.4
		c-0.1,0-0.2,0-0.3,0c-0.1,0-0.2,0-0.2-0.1c0-0.1,0.1-0.2,0.2-0.2C28.4,176.9,28.7,176.9,29,176.9z"/>
	<path class="st0" d="M23.7,178.2c0-0.4,0-0.7,0-1.1c0-0.1,0-0.3,0.2-0.3c0.2,0,0.2,0.1,0.2,0.2c0,0.6,0,1.3,0,1.9
		c0,0.3,0.1,0.3,0.3,0.3c0.3,0,0.6,0,0.8,0c0.1,0,0.2,0,0.2,0.2c0,0.2-0.1,0.2-0.2,0.2c-0.4,0-0.9,0-1.3,0c-0.2,0-0.2-0.1-0.2-0.2
		C23.7,179,23.7,178.6,23.7,178.2z"/>
	<path class="st0" d="M20.5,178.3c0,0.4,0,0.8,0,1.1c0,0.1,0,0.2-0.2,0.2c-0.2,0-0.2-0.1-0.2-0.3c0-0.8,0-1.5,0-2.3
		c0-0.1,0-0.2,0.2-0.2c0.2,0,0.2,0.1,0.2,0.3C20.5,177.5,20.5,177.9,20.5,178.3z"/>
	<path class="st0" d="M30.9,178.3c0,0.4,0,0.8,0,1.1c0,0.1,0,0.2-0.2,0.2c-0.2,0-0.2-0.1-0.2-0.2c0-0.8,0-1.5,0-2.3
		c0-0.1,0-0.2,0.2-0.2c0.2,0,0.2,0.1,0.2,0.2C30.9,177.5,30.9,177.9,30.9,178.3z"/>
	<path class="st7" d="M19.7,173.8c-0.3,0-0.6,0-0.9,0c0.1-0.4,0.3-0.8,0.4-1.2C19.4,173,19.5,173.4,19.7,173.8z"/>
	<path class="st7" d="M26.8,177.3c0.1,0.1,0.1,0.3,0.2,0.4c0.3,0.8,0.3,0.8-0.6,0.7C26.5,178.1,26.7,177.7,26.8,177.3z"/>
	<path class="st7" d="M34.8,177.3c0.2,0.4,0.3,0.8,0.4,1.2c-0.3,0-0.6,0-0.9,0C34.5,178.1,34.6,177.7,34.8,177.3z"/>
	<g>
		<path class="st9" d="M65.2,149.8h3v3.6l3.1-3.6h3.9l-3.5,3.6l3.7,6h-3.6l-2-3.9l-1.5,1.6v2.3h-3V149.8z"/>
		<path class="st9" d="M75.5,154.6c0-1.6,0.4-2.8,1.3-3.7c0.9-0.9,2.1-1.3,3.6-1.3c1.6,0,2.8,0.4,3.7,1.3c0.9,0.9,1.3,2.1,1.3,3.6
			c0,1.1-0.2,2-0.6,2.8c-0.4,0.7-0.9,1.3-1.6,1.7c-0.7,0.4-1.6,0.6-2.7,0.6c-1.1,0-2-0.2-2.7-0.5c-0.7-0.3-1.3-0.9-1.7-1.6
			C75.8,156.6,75.5,155.7,75.5,154.6z M78.5,154.6c0,1,0.2,1.7,0.5,2.1c0.4,0.4,0.8,0.6,1.5,0.6c0.6,0,1.1-0.2,1.5-0.6
			c0.3-0.4,0.5-1.2,0.5-2.2c0-0.9-0.2-1.6-0.5-2c-0.4-0.4-0.9-0.6-1.5-0.6c-0.6,0-1.1,0.2-1.4,0.6C78.7,152.9,78.5,153.6,78.5,154.6
			z"/>
		<path class="st9" d="M87.1,149.8h2.8l3.6,5.3v-5.3h2.8v9.6h-2.8l-3.6-5.3v5.3h-2.8V149.8z"/>
		<path class="st9" d="M103,155.9v-2h4.6v4.1c-0.9,0.6-1.7,1-2.3,1.2c-0.7,0.2-1.5,0.3-2.4,0.3c-1.1,0-2.1-0.2-2.8-0.6
			c-0.7-0.4-1.3-1-1.7-1.7c-0.4-0.8-0.6-1.6-0.6-2.6c0-1,0.2-2,0.6-2.7c0.4-0.8,1.1-1.4,1.9-1.8c0.6-0.3,1.5-0.5,2.6-0.5
			c1.1,0,1.9,0.1,2.4,0.3c0.5,0.2,1,0.5,1.3,0.9c0.3,0.4,0.6,0.9,0.8,1.5l-2.9,0.5c-0.1-0.4-0.3-0.6-0.6-0.8
			c-0.3-0.2-0.6-0.3-1.1-0.3c-0.6,0-1.2,0.2-1.6,0.7c-0.4,0.5-0.6,1.2-0.6,2.1c0,1,0.2,1.8,0.6,2.2s0.9,0.7,1.6,0.7
			c0.3,0,0.6,0,0.9-0.1c0.3-0.1,0.6-0.3,1-0.5v-0.9H103z"/>
		<path class="st9" d="M109.4,159.4v-9.6h4.9c0.9,0,1.6,0.1,2.1,0.2c0.5,0.2,0.9,0.4,1.2,0.9c0.3,0.4,0.4,0.9,0.4,1.6
			c0,0.5-0.1,1-0.3,1.4c-0.2,0.4-0.5,0.7-0.9,0.9c-0.3,0.2-0.6,0.3-1,0.4c0.4,0.1,0.6,0.2,0.8,0.4c0.1,0.1,0.3,0.2,0.5,0.5
			c0.2,0.3,0.3,0.5,0.4,0.6l1.4,2.8h-3.3l-1.6-2.9c-0.2-0.4-0.4-0.6-0.5-0.7c-0.2-0.1-0.5-0.2-0.7-0.2h-0.3v3.9H109.4z M112.4,153.7
			h1.2c0.1,0,0.4,0,0.8-0.1c0.2,0,0.4-0.1,0.5-0.3c0.1-0.2,0.2-0.3,0.2-0.6c0-0.3-0.1-0.5-0.3-0.7c-0.2-0.2-0.6-0.2-1.1-0.2h-1.3
			V153.7z"/>
		<path class="st9" d="M119.8,149.8h7.9v2h-5v1.5h4.6v2h-4.6v1.9h5.1v2.2h-8.1V149.8z"/>
		<path class="st9" d="M129,156.2l2.8-0.2c0.1,0.5,0.2,0.8,0.4,1c0.3,0.4,0.7,0.6,1.3,0.6c0.4,0,0.7-0.1,1-0.3
			c0.2-0.2,0.3-0.4,0.3-0.7c0-0.2-0.1-0.5-0.3-0.7c-0.2-0.2-0.7-0.4-1.5-0.6c-1.3-0.3-2.2-0.7-2.8-1.2c-0.6-0.5-0.8-1.1-0.8-1.9
			c0-0.5,0.1-1,0.4-1.4c0.3-0.4,0.7-0.8,1.3-1c0.6-0.3,1.4-0.4,2.4-0.4c1.2,0,2.2,0.2,2.8,0.7c0.6,0.5,1,1.2,1.1,2.2l-2.8,0.2
			c-0.1-0.4-0.2-0.7-0.5-0.9c-0.2-0.2-0.6-0.3-1-0.3c-0.3,0-0.6,0.1-0.8,0.2c-0.2,0.1-0.3,0.3-0.3,0.5c0,0.2,0.1,0.3,0.2,0.4
			c0.1,0.1,0.5,0.2,1,0.4c1.3,0.3,2.2,0.6,2.8,0.8c0.6,0.3,1,0.6,1.2,1.1c0.3,0.4,0.4,0.9,0.4,1.4c0,0.6-0.2,1.2-0.5,1.7
			c-0.3,0.5-0.8,0.9-1.4,1.2c-0.6,0.3-1.4,0.4-2.3,0.4c-1.6,0-2.8-0.3-3.4-0.9C129.4,158,129,157.2,129,156.2z"/>
		<path class="st9" d="M143.7,149.8h3v9.6h-3V149.8z"/>
		<path class="st9" d="M148.8,149.8h3v3.6l3.1-3.6h3.9l-3.5,3.6l3.7,6h-3.6l-2-3.9l-1.5,1.6v2.3h-3V149.8z"/>
		<path class="st9" d="M160,149.8h3v7.2h4.6v2.4H160V149.8z"/>
		<path class="st9" d="M169,149.8h3v9.6h-3V149.8z"/>
		<path class="st9" d="M174.1,149.8h3.9l1.5,5.8l1.5-5.8h3.9v9.6h-2.4v-7.3l-1.9,7.3h-2.2l-1.9-7.3v7.3h-2.4V149.8z"/>
	</g>
	<path class="st9" d="M65.1,169.8l1-0.1c0,0.4,0.2,0.7,0.3,1c0.2,0.3,0.4,0.5,0.8,0.6c0.4,0.2,0.8,0.2,1.2,0.2
		c0.4,0,0.8-0.1,1.1-0.2c0.3-0.1,0.5-0.3,0.7-0.5c0.2-0.2,0.2-0.4,0.2-0.7c0-0.3-0.1-0.5-0.2-0.7c-0.1-0.2-0.4-0.3-0.7-0.5
		c-0.2-0.1-0.7-0.2-1.4-0.4s-1.3-0.3-1.6-0.5c-0.4-0.2-0.7-0.5-0.9-0.8c-0.2-0.3-0.3-0.6-0.3-1c0-0.4,0.1-0.8,0.3-1.1s0.6-0.6,1-0.8
		c0.4-0.2,0.9-0.3,1.5-0.3c0.6,0,1.1,0.1,1.6,0.3c0.5,0.2,0.8,0.5,1.1,0.8c0.2,0.4,0.4,0.8,0.4,1.3l-1,0.1c-0.1-0.5-0.2-0.9-0.6-1.2
		c-0.3-0.3-0.8-0.4-1.4-0.4c-0.6,0-1.1,0.1-1.4,0.4c-0.3,0.2-0.4,0.5-0.4,0.9c0,0.3,0.1,0.5,0.3,0.7c0.2,0.2,0.7,0.4,1.6,0.6
		c0.9,0.2,1.5,0.4,1.8,0.5c0.5,0.2,0.8,0.5,1,0.8c0.2,0.3,0.3,0.7,0.3,1.1c0,0.4-0.1,0.8-0.4,1.2c-0.2,0.4-0.6,0.7-1.1,0.9
		c-0.5,0.2-1,0.3-1.6,0.3c-0.7,0-1.3-0.1-1.8-0.3c-0.5-0.2-0.9-0.5-1.2-1C65.2,170.8,65.1,170.3,65.1,169.8z"/>
	<path class="st9" d="M73,172.4v-8.1h5.8v1H74v2.5h4.5v0.9H74v2.7H79v1H73z"/>
	<path class="st9" d="M80.4,172.4v-8.1H82l1.9,5.7c0.2,0.5,0.3,0.9,0.4,1.2c0.1-0.3,0.2-0.7,0.4-1.3l1.9-5.6h1.4v8.1h-1v-6.7
		l-2.3,6.7h-1l-2.3-6.9v6.9H80.4z"/>
	<path class="st9" d="M88.9,172.4l3.1-8.1h1.1l3.3,8.1h-1.2l-0.9-2.4H91l-0.9,2.4H88.9z M91.3,169.1H94l-0.8-2.2
		c-0.3-0.7-0.4-1.2-0.6-1.7c-0.1,0.5-0.2,1-0.4,1.5L91.3,169.1z"/>
	<path class="st9" d="M97.3,172.4v-8.1h3.6c0.7,0,1.3,0.1,1.6,0.2c0.4,0.1,0.7,0.4,0.9,0.8c0.2,0.4,0.3,0.8,0.3,1.2
		c0,0.6-0.2,1.1-0.6,1.4s-0.9,0.6-1.7,0.7c0.3,0.1,0.5,0.3,0.6,0.4c0.3,0.3,0.6,0.6,0.9,1.1l1.4,2.2h-1.3l-1.1-1.7
		c-0.3-0.5-0.6-0.9-0.8-1.1c-0.2-0.3-0.4-0.4-0.5-0.5c-0.2-0.1-0.3-0.2-0.5-0.2c-0.1,0-0.3,0-0.6,0h-1.2v3.6H97.3z M98.4,167.9h2.3
		c0.5,0,0.9-0.1,1.1-0.2c0.3-0.1,0.5-0.3,0.6-0.5c0.1-0.2,0.2-0.5,0.2-0.7c0-0.4-0.1-0.7-0.4-0.9c-0.3-0.2-0.7-0.4-1.3-0.4h-2.5
		V167.9z"/>
	<path class="st9" d="M104.6,172.4l3.1-8.1h1.1l3.3,8.1h-1.2l-0.9-2.4h-3.4l-0.9,2.4H104.6z M106.9,169.1h2.7l-0.8-2.2
		c-0.3-0.7-0.4-1.2-0.6-1.7c-0.1,0.5-0.2,1-0.4,1.5L106.9,169.1z"/>
	<path class="st9" d="M112.9,172.4v-8.1h1.1l4.2,6.3v-6.3h1v8.1h-1.1L114,166v6.3H112.9z"/>
	<path class="st9" d="M124.9,169.2v-0.9l3.4,0v3c-0.5,0.4-1.1,0.7-1.6,0.9c-0.6,0.2-1.1,0.3-1.7,0.3c-0.8,0-1.5-0.2-2.2-0.5
		c-0.6-0.3-1.1-0.8-1.5-1.5c-0.3-0.6-0.5-1.4-0.5-2.1c0-0.8,0.2-1.5,0.5-2.2c0.3-0.7,0.8-1.2,1.4-1.5c0.6-0.3,1.3-0.5,2.1-0.5
		c0.6,0,1.1,0.1,1.6,0.3c0.5,0.2,0.8,0.5,1.1,0.8c0.3,0.3,0.5,0.8,0.6,1.3l-1,0.3c-0.1-0.4-0.3-0.7-0.5-1c-0.2-0.2-0.4-0.4-0.8-0.6
		c-0.3-0.1-0.7-0.2-1.1-0.2c-0.5,0-0.9,0.1-1.3,0.2c-0.4,0.1-0.6,0.3-0.9,0.6c-0.2,0.2-0.4,0.5-0.5,0.8c-0.2,0.5-0.3,1-0.3,1.6
		c0,0.7,0.1,1.3,0.4,1.8c0.2,0.5,0.6,0.8,1.1,1.1c0.5,0.2,1,0.4,1.5,0.4c0.5,0,0.9-0.1,1.4-0.3c0.4-0.2,0.8-0.4,1-0.6v-1.5H124.9z"
		/>
	<path class="st9" d="M137.8,171.4v1h-5.3c0-0.2,0-0.5,0.1-0.7c0.1-0.4,0.4-0.7,0.7-1.1c0.3-0.4,0.7-0.8,1.3-1.2
		c0.9-0.7,1.5-1.3,1.8-1.7c0.3-0.4,0.5-0.8,0.5-1.2c0-0.4-0.1-0.7-0.4-1c-0.3-0.3-0.6-0.4-1.1-0.4c-0.5,0-0.9,0.1-1.1,0.4
		c-0.3,0.3-0.4,0.7-0.4,1.2l-1-0.1c0.1-0.8,0.3-1.3,0.8-1.7s1.1-0.6,1.8-0.6c0.8,0,1.4,0.2,1.8,0.6c0.5,0.4,0.7,1,0.7,1.6
		c0,0.3-0.1,0.6-0.2,1c-0.1,0.3-0.4,0.6-0.7,1c-0.3,0.3-0.8,0.8-1.5,1.4c-0.6,0.5-1,0.8-1.1,1c-0.2,0.2-0.3,0.4-0.4,0.5H137.8z"/>
	<path class="st9" d="M138.8,168.4c0-1,0.1-1.7,0.3-2.3c0.2-0.6,0.5-1,0.9-1.3c0.4-0.3,0.9-0.5,1.5-0.5c0.4,0,0.8,0.1,1.1,0.3
		c0.3,0.2,0.6,0.4,0.8,0.8c0.2,0.3,0.4,0.7,0.5,1.2c0.1,0.5,0.2,1.1,0.2,1.9c0,0.9-0.1,1.7-0.3,2.3c-0.2,0.6-0.5,1-0.9,1.3
		c-0.4,0.3-0.9,0.5-1.5,0.5c-0.8,0-1.4-0.3-1.8-0.8C139.1,171,138.8,169.9,138.8,168.4z M139.8,168.4c0,1.3,0.2,2.2,0.5,2.6
		c0.3,0.4,0.7,0.7,1.1,0.7c0.5,0,0.8-0.2,1.1-0.7c0.3-0.4,0.5-1.3,0.5-2.6c0-1.3-0.2-2.2-0.5-2.6c-0.3-0.4-0.7-0.7-1.2-0.7
		c-0.5,0-0.8,0.2-1.1,0.6C140,166.2,139.8,167.1,139.8,168.4z"/>
	<path class="st9" d="M148.8,172.4h-1v-6.3c-0.2,0.2-0.6,0.5-0.9,0.7c-0.4,0.2-0.7,0.4-1,0.5v-1c0.6-0.3,1-0.6,1.5-0.9
		c0.4-0.4,0.7-0.7,0.9-1.1h0.6V172.4z"/>
	<path class="st9" d="M151.5,170.5l1-0.1c0.1,0.4,0.2,0.8,0.5,1c0.2,0.2,0.5,0.3,0.9,0.3c0.3,0,0.6-0.1,0.8-0.2
		c0.2-0.1,0.4-0.3,0.6-0.6c0.1-0.2,0.3-0.5,0.4-0.9c0.1-0.4,0.1-0.8,0.1-1.2c0,0,0-0.1,0-0.2c-0.2,0.3-0.5,0.6-0.8,0.8
		c-0.3,0.2-0.7,0.3-1.1,0.3c-0.7,0-1.2-0.2-1.7-0.7c-0.5-0.5-0.7-1.1-0.7-1.9c0-0.8,0.2-1.5,0.7-2c0.5-0.5,1.1-0.7,1.8-0.7
		c0.5,0,1,0.1,1.4,0.4c0.4,0.3,0.8,0.7,1,1.2s0.3,1.3,0.3,2.3c0,1-0.1,1.8-0.3,2.5c-0.2,0.6-0.6,1.1-1,1.4c-0.4,0.3-1,0.5-1.6,0.5
		c-0.6,0-1.1-0.2-1.5-0.5C151.8,171.6,151.6,171.1,151.5,170.5z M155.5,166.9c0-0.6-0.2-1-0.5-1.4c-0.3-0.3-0.7-0.5-1.1-0.5
		c-0.4,0-0.8,0.2-1.1,0.5c-0.3,0.4-0.5,0.8-0.5,1.4c0,0.5,0.2,0.9,0.5,1.3c0.3,0.3,0.7,0.5,1.1,0.5c0.5,0,0.8-0.2,1.1-0.5
		C155.4,168,155.5,167.5,155.5,166.9z"/>
</g>
<g>
	<rect x="35.7" y="82.5" class="st0" width="15.1" height="32.3"/>
	<path class="st10" d="M7.7,114.9c-0.7,0-1.4,0-2.1,0c-0.3,0-0.4-0.1-0.4-0.3c-1.2-4.2-2.3-8.3-3.5-12.5c-0.4-1.5-0.8-3-1.3-4.5
		c0-0.1-0.1-0.1-0.1-0.2c0-0.1,0-0.2,0-0.2c0.1-0.1,0.2-0.2,0.4-0.3c1.7-1.7,3.4-3.4,5-5c4.3-4.2,8.5-8.5,12.8-12.7
		c3.6-3.6,7.3-7.2,10.9-10.8c0.2-0.2,0.4-0.3,0.6-0.2c8.6,2.5,17.2,5.1,25.8,7.6c0.3,0.1,0.4,0.2,0.4,0.5c0,12.3,0,24.7,0,37
		c0,0.1,0,0.2,0,0.3c-0.2-0.1-0.1-0.3-0.1-0.5c0-1.9,0-3.7,0-5.6c0-3.3,0.1-6.5,0-9.8c-0.1-4.7,0-9.5-0.1-14.2
		c0-0.4-0.1-0.6-0.5-0.7c-3.1-1.2-6.3-2-9.6-2.3c-1.8-0.2-3.6-0.2-5.3-0.1c-4.1,0.2-8,1.1-11.8,2.8c-3.4,1.5-6.5,3.5-9.3,5.9
		c-3,2.7-5.5,5.8-7.4,9.3c-2.1,3.9-3.4,8.1-4,12.5c-0.2,1.2-0.2,2.4-0.3,3.7C7.8,114.6,7.8,114.7,7.7,114.9z"/>
	<path class="st8" d="M7.7,114.9c0-1.1,0-2.2,0.1-3.3c0.2-2.2,0.6-4.4,1.3-6.5c1.3-4.4,3.4-8.4,6.3-12c5-6.1,11.4-10.1,19-12
		c3.3-0.8,6.6-1.1,10-0.9c3.9,0.2,7.6,1.1,11.2,2.5c0.3,0.1,0.4,0.3,0.4,0.6c0,1.5,0,3.1,0,4.6c0,2.6,0,5.2,0,7.9
		c0.1,5.8,0,11.7,0.1,17.5c0,0.1,0,0.2,0,0.3c0,0.4,0,0.8,0,1.2c0,0.2-0.1,0.2-0.2,0.2c-1.8,0-3.6,0-5.5,0c-0.2,0-0.2-0.1-0.2-0.2
		c0-0.1,0-0.2,0-0.3c0-5,0-10.1,0-15.1c0-0.3-0.1-0.4-0.4-0.5c-0.6-0.2-1-0.7-1.4-1.3c-0.4-0.8-0.9-1.5-1.5-2.2c0,0.1,0,0.3,0,0.4
		c0,6.2,0,12.5,0,18.7c0,0.1,0,0.2,0,0.3c0,0.1,0,0.2-0.2,0.2c-0.2,0-0.2-0.1-0.2-0.2c0-0.1,0-0.2,0-0.3c0-6.2,0-12.5,0-18.7
		c0-0.2,0-0.3,0-0.5c-0.2,0-0.2,0.2-0.3,0.3c-0.4,0.6-0.8,1.2-1.2,1.8c-0.1,0.2-0.3,0.4-0.5,0.6c-0.4,0.4-0.8,0.4-1.3,0
		c-0.4-0.4-0.7-0.9-1.1-1.3c-0.3-0.5-0.6-0.9-1-1.4c0,0.1,0,0.3,0,0.4c0,6.3,0,12.5,0,18.8c0,0.1,0,0.2,0,0.3c0,0.1,0,0.2-0.2,0.2
		c-0.2,0-0.2-0.1-0.2-0.2c0-0.1,0-0.2,0-0.3c0-6.2,0-12.4,0-18.5c0-0.2,0-0.3,0-0.6c-0.4,0.5-0.7,0.9-1,1.4
		c-0.2,0.4-0.5,0.8-0.8,1.2c-0.4,0.5-0.9,0.9-1.5,1c-0.2,0.1-0.3-0.1-0.4-0.2c-1-0.9-1.1-2.1-0.4-3.2c0.1-0.2,0.2-0.3,0.3-0.5
		c0.1-0.4,0.1-0.8-0.2-1.2c-0.2-0.3-0.4-0.5-0.6-0.8c-0.3-0.5-0.2-1,0.1-1.4c0.4-0.4,0.8-0.5,1.4-0.3c0.2,0.1,0.4,0.3,0.6,0.2
		c0.2-0.1,0.1-0.4,0.2-0.6c0.3-0.7,0.9-0.9,1.5-1c0.3,0,0.7-0.1,1-0.1c1.5,0,3,0,4.5,0c0.7,0,1-0.2,1.1-0.9c0.1-0.4,0.1-0.8-0.1-1.2
		c-0.7-1.3-1.4-2.7-2.1-4c-0.4-0.7-0.8-0.8-1.4-0.1c0,0-0.1,0.1-0.1,0.1c-1.5,1.3-3.1,2.7-4.6,4c-1.3,1.2-2.7,2.3-4,3.5
		c-1.3,1.2-2.7,2.4-4,3.5c-1.3,1.2-2.7,2.3-4,3.5c-1.3,1.2-2.7,2.4-4,3.5c-1.3,1.2-2.7,2.3-4,3.5c-0.3,0.3-0.6,0.5-0.9,0.8
		c-0.1,0.1-0.1,0.1-0.2,0.2c-0.3,0.3-0.6,0.6-0.9,0.8c-0.1,0.1-0.2,0.2-0.4,0.2c-0.2-0.1-0.2-0.4-0.3-0.6c-0.1-0.1-0.1-0.3-0.3-0.4
		c0,0.5,0.4,0.9,0.3,1.4c-0.2,0.3-0.5,0.5-0.8,0.7c-0.1,0.1-0.2,0.1-0.3,0c-0.1-0.6,0-1.3-0.1-1.9c-0.1,0.8,0,1.6-0.1,2.4
		c-0.2,0.3-0.6,0.5-0.8,0.7c-0.5,0.5-1.1,1-1.7,1.4c-0.1,0.3-0.1,0.6-0.1,1c0,0.4,0,0.9,0,1.3c0,0.1,0,0.3-0.1,0.4
		c-0.3-0.1-0.2-0.3-0.2-0.5c0-0.6,0-1.1,0-1.8c-1.2,1-2.3,2-3.4,3c0.2,0.1,0.3,0.1,0.4,0.1c9.4,0,18.8,0,28.2,0
		c0.3,0,0.5-0.1,0.8,0.1c-0.1,0.3-0.3,0.3-0.6,0.3c-5.5,0-11.1,0-16.6,0c-4.1,0-8.2,0-12.2,0C8,114.9,7.9,114.9,7.7,114.9z"/>
	<path class="st11" d="M17.6,106.2c0.5-0.5,1.1-1,1.6-1.5c0.7-0.6,1.5-1.3,2.2-1.9c0.9-0.8,1.9-1.6,2.8-2.4c0.7-0.6,1.4-1.3,2.2-1.9
		c0.9-0.8,1.9-1.6,2.8-2.4c0.7-0.6,1.4-1.2,2.1-1.8c1-0.9,2-1.7,2.9-2.6c0.9-0.8,1.8-1.6,2.7-2.4c0.9-0.8,1.8-1.6,2.8-2.4
		c0.7-0.6,1.4-1.3,2.2-1.9c0.4-0.4,0.9-0.8,1.4-1.1c0.1,0.2,0,0.4-0.1,0.5c-0.5,0.9-0.9,1.9-1.5,2.8c-0.2,0.3-0.3,0.6-0.4,0.9
		c-0.2,0.5-0.1,1,0.2,1.5c0.1,0.1,0.2,0.3,0.2,0.5c-0.5,0.1-1.1,0-1.6,0.2c-0.6,0.2-0.9,0.6-0.9,1.2c0,0.3-0.1,0.4-0.4,0.2
		c-0.2-0.1-0.3-0.2-0.5-0.3c-0.5-0.2-0.9,0-1.3,0.4c-0.3,0.3-0.3,0.8,0,1.2c0.1,0.2,0.3,0.5,0.5,0.7c0.5,0.6,0.5,1.1,0,1.8
		c-0.9,1.2-0.7,2.5,0.6,3.4c0,4.9,0,9.7,0,14.6c0,0.4,0.1,0.8-0.1,1.2c-9.9,0-19.7,0-29.6,0c0.1-0.3,0.3-0.4,0.5-0.6
		c0.7-0.6,1.5-1.3,2.2-1.9c0.3-0.2,0.5-0.5,0.8-0.7c0.1-0.1,0.1-0.1,0.2-0.1c0.1,0,0.1,0.1,0.1,0.2c0,0.6,0,1.2,0,1.8
		c0,0.1,0,0.3,0.1,0.4c0.3-0.2,0.6-0.1,0.9-0.1c0.2,0,0.3,0,0.5,0c-0.2-0.1-0.5,0-0.7,0c-0.2,0-0.4-0.1-0.4-0.4c0-0.7-0.1-1.5,0-2.2
		c0.6-0.6,1.3-1.1,1.9-1.7c0.1-0.1,0.2-0.3,0.4-0.2c0.2-0.1,0.2-0.3,0.4-0.5c0.3-0.3,0.6-0.6,0.9-0.8c0.2,0,0.2,0.2,0.2,0.3
		c0.1,0.2,0.1,0.4,0.2,0.6c0.1,0.1,0.1,0.3,0.3,0.3c0.2,0,0.2-0.2,0.2-0.3c0.3-0.6,0.5-1.3,0.8-1.9
		C17.6,106.5,17.6,106.3,17.6,106.2z"/>
	<path class="st0" d="M37.9,94.5c0-0.4-0.2-0.7-0.4-1.1c-0.2-0.2-0.4-0.5-0.5-0.7c-0.2-0.3-0.2-0.6,0.1-0.8c0.2-0.3,0.5-0.4,0.8-0.2
		c0.5,0.3,1.1,0.5,1.4,1c0.1,0.1,0.2,0.2,0.2,0.3c0.5,0.6,1,0.7,1.7,0.3c0.2-0.1,0.3-0.2,0.5-0.3c1.2-1.1,3.2-1.1,4.4-0.2
		c0.3,0.2,0.5,0.4,0.8,0.5c0.8,0.3,1.4,0.2,1.8-0.5c0.4-0.6,0.9-0.8,1.5-1c0.3-0.1,0.5-0.1,0.8,0.1c0.2,0.2,0.3,0.5,0.1,0.8
		c-0.1,0.1-0.1,0.3-0.2,0.4c-0.7,1-0.8,1.8-0.1,2.8c0.7,1,0.3,1.8-0.3,2.5c-0.1,0.1-0.3,0.2-0.5,0.1c-0.5-0.2-0.8-0.6-1-1
		c-0.5-0.9-1.1-1.7-1.6-2.5c-0.3-0.4-0.6-0.5-1-0.1c-0.4,0.5-0.7,1-1,1.4c-0.2,0.4-0.5,0.7-0.8,1.1c-0.4,0.5-0.7,0.5-1.1,0
		c-0.5-0.6-0.9-1.3-1.4-1.9c-0.1-0.2-0.3-0.4-0.4-0.6c-0.3-0.4-0.7-0.4-1,0.1c-0.5,0.8-1.1,1.6-1.6,2.5c-0.2,0.4-0.6,0.8-1,1
		c-0.2,0.1-0.4,0.1-0.5-0.1c-0.8-0.8-0.8-1.6-0.2-2.6C37.8,95.1,37.9,94.9,37.9,94.5z"/>
	<path class="st0" d="M44,90.3c1.3,0,2.6,0,3.8,0.1c1,0.1,1.4,1.1,0.8,1.9c-0.6,0.9-1.2,1-2.1,0.3c-0.6-0.5-1.3-0.8-2.1-0.8
		c-1.1-0.1-2,0.1-2.8,0.8c0,0,0,0,0,0c-1.2,1-1.6,0.5-2.3-0.6c-0.4-0.6,0.2-1.5,0.9-1.6c0.6-0.1,1.2-0.1,1.8-0.1
		C42.6,90.3,43.3,90.3,44,90.3z"/>
	<path class="st4" d="M17.6,106.2c0.1,0,0.3,0,0.2,0.2c-0.3,0.8-0.6,1.6-1,2.4c-0.1,0.2-0.1,0.2-0.3,0.2c-0.2,0-0.2-0.1-0.3-0.2
		c-0.1-0.4-0.3-0.7-0.4-1.1c-0.2-0.5-0.3-1-0.5-1.5c0.2-0.1,0.4,0,0.5,0.2c0.1,0.3,0.2,0.6,0.3,0.9c0.3,0.3,0.3,0.7,0.4,1
		c0.2-0.6,0.4-1.2,0.7-1.8c0-0.1,0.1-0.2,0.2-0.2C17.4,106.3,17.5,106.2,17.6,106.2z"/>
	<path class="st4" d="M11.7,106.3c0.3-0.1,0.4,0,0.5,0.2c0.2,0.7,0.5,1.4,0.8,2.1c0.3-0.7,0.6-1.4,0.8-2.1c0.1-0.2,0.2-0.3,0.4-0.2
		c-0.3,0.9-0.7,1.7-1,2.6c-0.1,0.1-0.2,0.1-0.3,0.2c-0.1,0-0.2,0-0.2-0.1C12.3,108,12,107.1,11.7,106.3z"/>
	<path class="st0" d="M12.2,110.9c0.2,0.1,0.1,0.2,0.1,0.4c0,0.6,0,1.2,0,1.8c0,0.2,0,0.4,0.3,0.3c0.2,0,0.5,0,0.8,0
		c0.1,0,0.3-0.1,0.3,0.1c0,0.2-0.2,0.2-0.3,0.2c-0.5,0-0.9,0-1.4,0c0-0.8,0-1.7,0-2.5C11.9,110.9,12,110.9,12.2,110.9z"/>
	<path class="st11" d="M17.4,106.4c-0.3,0.7-0.5,1.4-0.8,2.2c-0.2-0.4-0.3-0.8-0.4-1.2C16.6,107.1,16.9,106.6,17.4,106.4z"/>
	<path class="st0" d="M14.9,108.5c0,0.2,0.1,0.6-0.4,0.5c0-0.8,0-1.7,0-2.5c0-0.1,0-0.2,0.2-0.2c0.2,0,0.2,0.1,0.2,0.3
		C14.9,107.1,14.9,107.8,14.9,108.5z"/>
	<path class="st4" d="M18.6,112.2c0.3,0,0.6-0.2,0.6,0.4c-0.1,0.7-0.4,1.1-1.2,1.1c-0.6,0-1-0.3-1.2-0.8c-0.2-0.6-0.2-1.2,0.3-1.7
		c0.4-0.4,0.9-0.5,1.5-0.3c0.3,0.1,0.5,0.3,0.6,0.5c0,0.1,0.1,0.2,0,0.2c-0.1,0-0.2,0.1-0.3-0.1c-0.2-0.5-0.6-0.5-1-0.4
		c-0.5,0.1-0.7,0.4-0.7,0.9c-0.1,0.5,0,0.9,0.4,1.2c0.4,0.3,0.8,0.2,1.2,0c0.3-0.1,0.2-0.3,0.2-0.6c0-0.3-0.2-0.1-0.4-0.1
		c-0.1,0-0.2,0-0.2,0c-0.1,0-0.2,0-0.2-0.2c0-0.2,0.1-0.1,0.2-0.1C18.3,112.2,18.4,112.2,18.6,112.2z"/>
	<path class="st4" d="M22.7,111.6c-0.2,0.1-0.3,0.1-0.4-0.2c-0.2-0.3-0.8-0.4-1.1-0.1c-0.2,0.2-0.2,0.5,0.1,0.6
		c0.3,0.1,0.5,0.1,0.8,0.2c0.5,0.1,0.7,0.4,0.7,0.8c0,0.4-0.3,0.7-0.8,0.8c-0.6,0.1-1.3-0.2-1.4-0.7c0-0.1-0.2-0.2,0.1-0.3
		c0.1,0,0.2,0,0.3,0.2c0.2,0.5,0.7,0.7,1.1,0.5c0.2-0.1,0.3-0.2,0.3-0.4c0-0.2-0.1-0.3-0.3-0.4c-0.3-0.1-0.6-0.2-0.9-0.3
		c-0.3-0.1-0.5-0.3-0.5-0.7c0-0.4,0.2-0.6,0.6-0.7C22,110.6,22.5,110.9,22.7,111.6z"/>
	<path class="st0" d="M14.1,112.3c0-0.4,0-0.8,0-1.1c0-0.2,0.1-0.2,0.2-0.2c0.5,0,1,0,1.5,0c0.1,0,0.2-0.1,0.3,0.1
		c0,0.2-0.2,0.2-0.3,0.2c-0.4,0-0.7,0-1.1,0c-0.2,0-0.3,0.1-0.3,0.3c0,0.6,0,0.6,0.6,0.6c0.3,0,0.5,0,0.8,0c0.1,0,0.2,0,0.2,0.2
		c0,0.2-0.1,0.1-0.3,0.1c-0.3,0-0.7,0-1,0c-0.2,0-0.3,0.1-0.3,0.3c0,0.7,0,0.7,0.6,0.7c0.3,0,0.6,0,0.9,0c0.1,0,0.2,0,0.2,0.2
		c0,0.2-0.1,0.2-0.2,0.2c-0.6,0-1.1,0-1.7,0c-0.2,0-0.2-0.1-0.2-0.2C14.1,113,14.1,112.6,14.1,112.3z"/>
	<path class="st4" d="M17.5,109c0.3-0.9,0.7-1.7,1-2.6c0-0.1,0.1-0.2,0.2-0.2c0.1,0,0.2,0,0.3,0.2c0.3,0.9,0.7,1.7,1.1,2.6
		c-0.4,0.1-0.5-0.1-0.6-0.3c-0.1-0.2-0.1-0.5-0.3-0.5c-0.3,0-0.7-0.1-1,0c-0.2,0-0.2,0.4-0.3,0.5C17.9,109,17.9,109,17.5,109z"/>
	<path class="st4" d="M27.7,113.6c-0.3,0.1-0.4,0-0.5-0.3c-0.1-0.2-0.1-0.5-0.3-0.5c-0.3-0.1-0.7-0.1-1,0c-0.2,0-0.2,0.3-0.3,0.5
		c-0.1,0.3-0.2,0.4-0.5,0.3c0.3-0.9,0.7-1.7,1-2.6c0.1-0.1,0.1-0.2,0.3-0.2c0.1,0,0.2,0,0.3,0.2C27,111.9,27.4,112.7,27.7,113.6z"/>
	<path class="st4" d="M35.7,113.6c-0.4,0.1-0.5-0.1-0.5-0.3c-0.1-0.2-0.1-0.5-0.3-0.5c-0.3-0.1-0.7-0.1-1,0c-0.2,0-0.2,0.4-0.3,0.5
		c-0.1,0.3-0.1,0.3-0.5,0.3c0.3-0.9,0.7-1.8,1-2.6c0.1-0.2,0.4-0.2,0.5,0C35,111.9,35.4,112.7,35.7,113.6z"/>
	<path class="st6" d="M30.9,110.9c0.3-0.1,0.4,0,0.5,0.2c0.2,0.7,0.5,1.4,0.8,2.1c0.3-0.7,0.5-1.4,0.8-2c0-0.1,0.1-0.2,0.1-0.3
		c0.1-0.1,0.2-0.1,0.3-0.1c0.1,0,0,0.1,0,0.2c-0.3,0.8-0.6,1.6-1,2.4c-0.1,0.1-0.1,0.2-0.3,0.2c-0.1,0-0.2,0-0.3-0.2
		C31.5,112.6,31.2,111.8,30.9,110.9z"/>
	<path class="st0" d="M28.6,110.9c0.3,0,0.6,0,0.9,0c0.1,0,0.2,0,0.2,0.2c0,0.2-0.1,0.2-0.2,0.2c-0.2,0-0.6-0.1-0.7,0.1
		c-0.1,0.2,0,0.5-0.1,0.7c0,0.5,0,0.9,0,1.4c0,0.1,0.1,0.3-0.2,0.3c-0.2,0-0.2-0.1-0.2-0.3c0-0.6,0-1.2,0-1.8c0-0.4-0.1-0.5-0.4-0.4
		c-0.1,0-0.2,0-0.3,0c-0.1,0-0.2,0-0.2-0.1c0-0.1,0.1-0.2,0.2-0.2C28,110.9,28.3,110.9,28.6,110.9z"/>
	<path class="st0" d="M23.3,112.2c0-0.4,0-0.7,0-1.1c0-0.1,0-0.3,0.2-0.3c0.2,0,0.2,0.1,0.2,0.2c0,0.6,0,1.3,0,1.9
		c0,0.3,0.1,0.3,0.3,0.3c0.3,0,0.6,0,0.8,0c0.1,0,0.2,0,0.2,0.2c0,0.2-0.1,0.2-0.2,0.2c-0.4,0-0.9,0-1.3,0c-0.2,0-0.2-0.1-0.2-0.2
		C23.3,113,23.3,112.6,23.3,112.2z"/>
	<path class="st0" d="M20.1,112.3c0,0.4,0,0.8,0,1.1c0,0.1,0,0.2-0.2,0.2c-0.2,0-0.2-0.1-0.2-0.3c0-0.8,0-1.5,0-2.3
		c0-0.1,0-0.2,0.2-0.2c0.2,0,0.2,0.1,0.2,0.3C20.1,111.5,20.1,111.9,20.1,112.3z"/>
	<path class="st0" d="M30.5,112.3c0,0.4,0,0.8,0,1.1c0,0.1,0,0.2-0.2,0.2c-0.2,0-0.2-0.1-0.2-0.2c0-0.8,0-1.5,0-2.3
		c0-0.1,0-0.2,0.2-0.2c0.2,0,0.2,0.1,0.2,0.2C30.5,111.5,30.5,111.9,30.5,112.3z"/>
	<path class="st11" d="M19.3,107.8c-0.3,0-0.6,0-0.9,0c0.1-0.4,0.3-0.8,0.4-1.2C19,107,19.1,107.4,19.3,107.8z"/>
	<path class="st11" d="M26.4,111.3c0.1,0.1,0.1,0.3,0.2,0.4c0.3,0.8,0.3,0.8-0.6,0.7C26.1,112.1,26.2,111.7,26.4,111.3z"/>
	<path class="st11" d="M34.4,111.2c0.2,0.4,0.3,0.8,0.4,1.2c-0.3,0-0.6,0-0.9,0C34.1,112.1,34.2,111.7,34.4,111.2z"/>
	<g>
		<path class="st8" d="M64.8,83.8h3v3.6l3.1-3.6h3.9l-3.5,3.6l3.7,6h-3.6l-2-3.9L67.8,91v2.3h-3V83.8z"/>
		<path class="st8" d="M75.1,88.6c0-1.6,0.4-2.8,1.3-3.7c0.9-0.9,2.1-1.3,3.6-1.3c1.6,0,2.8,0.4,3.7,1.3c0.9,0.9,1.3,2.1,1.3,3.6
			c0,1.1-0.2,2-0.6,2.8c-0.4,0.7-0.9,1.3-1.6,1.7c-0.7,0.4-1.6,0.6-2.7,0.6c-1.1,0-2-0.2-2.7-0.5c-0.7-0.3-1.3-0.9-1.7-1.6
			C75.3,90.6,75.1,89.7,75.1,88.6z M78.1,88.6c0,1,0.2,1.7,0.5,2.1c0.4,0.4,0.8,0.6,1.5,0.6c0.6,0,1.1-0.2,1.5-0.6
			c0.3-0.4,0.5-1.2,0.5-2.2c0-0.9-0.2-1.6-0.5-2c-0.4-0.4-0.9-0.6-1.5-0.6c-0.6,0-1.1,0.2-1.4,0.6C78.3,86.9,78.1,87.6,78.1,88.6z"
			/>
		<path class="st8" d="M86.7,83.8h2.8l3.6,5.3v-5.3h2.8v9.6h-2.8l-3.6-5.3v5.3h-2.8V83.8z"/>
		<path class="st8" d="M102.6,89.9v-2h4.6V92c-0.9,0.6-1.7,1-2.3,1.2c-0.7,0.2-1.5,0.3-2.4,0.3c-1.1,0-2.1-0.2-2.8-0.6
			c-0.7-0.4-1.3-1-1.7-1.7c-0.4-0.8-0.6-1.6-0.6-2.6c0-1,0.2-2,0.6-2.7c0.4-0.8,1.1-1.4,1.9-1.8c0.6-0.3,1.5-0.5,2.6-0.5
			c1.1,0,1.9,0.1,2.4,0.3c0.5,0.2,1,0.5,1.3,0.9c0.3,0.4,0.6,0.9,0.8,1.5l-2.9,0.5c-0.1-0.4-0.3-0.6-0.6-0.8
			c-0.3-0.2-0.6-0.3-1.1-0.3c-0.6,0-1.2,0.2-1.6,0.7c-0.4,0.5-0.6,1.2-0.6,2.1c0,1,0.2,1.8,0.6,2.2c0.4,0.4,0.9,0.7,1.6,0.7
			c0.3,0,0.6,0,0.9-0.1c0.3-0.1,0.6-0.3,1-0.5v-0.9H102.6z"/>
		<path class="st8" d="M109,93.4v-9.6h4.9c0.9,0,1.6,0.1,2.1,0.2c0.5,0.2,0.9,0.4,1.2,0.9c0.3,0.4,0.4,0.9,0.4,1.6
			c0,0.5-0.1,1-0.3,1.4c-0.2,0.4-0.5,0.7-0.9,0.9c-0.3,0.2-0.6,0.3-1,0.4c0.4,0.1,0.6,0.2,0.8,0.4c0.1,0.1,0.3,0.2,0.5,0.5
			c0.2,0.3,0.3,0.5,0.4,0.6l1.4,2.8h-3.3l-1.6-2.9c-0.2-0.4-0.4-0.6-0.5-0.7c-0.2-0.1-0.5-0.2-0.7-0.2H112v3.9H109z M112,87.7h1.2
			c0.1,0,0.4,0,0.8-0.1c0.2,0,0.4-0.1,0.5-0.3c0.1-0.2,0.2-0.3,0.2-0.6c0-0.3-0.1-0.5-0.3-0.7s-0.6-0.2-1.1-0.2H112V87.7z"/>
		<path class="st8" d="M119.4,83.8h7.9v2h-5v1.5h4.6v2h-4.6v1.9h5.1v2.2h-8.1V83.8z"/>
		<path class="st8" d="M128.5,90.2l2.8-0.2c0.1,0.5,0.2,0.8,0.4,1c0.3,0.4,0.7,0.6,1.3,0.6c0.4,0,0.7-0.1,1-0.3
			c0.2-0.2,0.3-0.4,0.3-0.7c0-0.2-0.1-0.5-0.3-0.7c-0.2-0.2-0.7-0.4-1.5-0.6c-1.3-0.3-2.2-0.7-2.8-1.2c-0.6-0.5-0.8-1.1-0.8-1.9
			c0-0.5,0.1-1,0.4-1.4s0.7-0.8,1.3-1c0.6-0.3,1.4-0.4,2.4-0.4c1.2,0,2.2,0.2,2.8,0.7c0.6,0.5,1,1.2,1.1,2.2l-2.8,0.2
			c-0.1-0.4-0.2-0.7-0.5-0.9c-0.2-0.2-0.6-0.3-1-0.3c-0.3,0-0.6,0.1-0.8,0.2c-0.2,0.1-0.3,0.3-0.3,0.5c0,0.2,0.1,0.3,0.2,0.4
			c0.1,0.1,0.5,0.2,1,0.4c1.3,0.3,2.2,0.6,2.8,0.8c0.6,0.3,1,0.6,1.2,1.1c0.3,0.4,0.4,0.9,0.4,1.4c0,0.6-0.2,1.2-0.5,1.7
			c-0.3,0.5-0.8,0.9-1.4,1.2c-0.6,0.3-1.4,0.4-2.3,0.4c-1.6,0-2.8-0.3-3.4-0.9C129,92,128.6,91.2,128.5,90.2z"/>
		<path class="st8" d="M143.3,83.8h3v9.6h-3V83.8z"/>
		<path class="st8" d="M148.4,83.8h3v3.6l3.1-3.6h3.9l-3.5,3.6l3.7,6h-3.6l-2-3.9l-1.5,1.6v2.3h-3V83.8z"/>
		<path class="st8" d="M159.6,83.8h3V91h4.6v2.4h-7.6V83.8z"/>
		<path class="st8" d="M168.6,83.8h3v9.6h-3V83.8z"/>
		<path class="st8" d="M173.7,83.8h3.9l1.5,5.8l1.5-5.8h3.9v9.6H182V86l-1.9,7.3H178l-1.9-7.3v7.3h-2.4V83.8z"/>
	</g>
	<path class="st8" d="M64.7,103.8l1-0.1c0,0.4,0.2,0.7,0.3,1c0.2,0.3,0.4,0.5,0.8,0.6c0.4,0.2,0.8,0.2,1.2,0.2
		c0.4,0,0.8-0.1,1.1-0.2c0.3-0.1,0.5-0.3,0.7-0.5c0.2-0.2,0.2-0.4,0.2-0.7c0-0.3-0.1-0.5-0.2-0.7s-0.4-0.3-0.7-0.5
		c-0.2-0.1-0.7-0.2-1.4-0.4c-0.7-0.2-1.3-0.3-1.6-0.5c-0.4-0.2-0.7-0.5-0.9-0.8c-0.2-0.3-0.3-0.6-0.3-1c0-0.4,0.1-0.8,0.3-1.1
		c0.2-0.4,0.6-0.6,1-0.8c0.4-0.2,0.9-0.3,1.5-0.3c0.6,0,1.1,0.1,1.6,0.3c0.5,0.2,0.8,0.5,1.1,0.8c0.2,0.4,0.4,0.8,0.4,1.3l-1,0.1
		c-0.1-0.5-0.2-0.9-0.6-1.2s-0.8-0.4-1.4-0.4c-0.6,0-1.1,0.1-1.4,0.4c-0.3,0.2-0.4,0.5-0.4,0.9c0,0.3,0.1,0.5,0.3,0.7
		c0.2,0.2,0.7,0.4,1.6,0.6c0.9,0.2,1.5,0.4,1.8,0.5c0.5,0.2,0.8,0.5,1,0.8c0.2,0.3,0.3,0.7,0.3,1.1c0,0.4-0.1,0.8-0.4,1.2
		c-0.2,0.4-0.6,0.7-1.1,0.9c-0.5,0.2-1,0.3-1.6,0.3c-0.7,0-1.3-0.1-1.8-0.3c-0.5-0.2-0.9-0.5-1.2-1
		C64.8,104.8,64.7,104.3,64.7,103.8z"/>
	<path class="st8" d="M72.5,106.4v-8.1h5.8v1h-4.8v2.5h4.5v0.9h-4.5v2.7h4.9v1H72.5z"/>
	<path class="st8" d="M80,106.4v-8.1h1.6l1.9,5.7c0.2,0.5,0.3,0.9,0.4,1.2c0.1-0.3,0.2-0.7,0.4-1.3l1.9-5.6h1.4v8.1h-1v-6.7
		l-2.3,6.7h-1L81,99.5v6.9H80z"/>
	<path class="st8" d="M88.5,106.4l3.1-8.1h1.1l3.3,8.1h-1.2l-0.9-2.4h-3.4l-0.9,2.4H88.5z M90.8,103h2.7l-0.8-2.2
		c-0.3-0.7-0.4-1.2-0.6-1.7c-0.1,0.5-0.2,1-0.4,1.5L90.8,103z"/>
	<path class="st8" d="M96.9,106.4v-8.1h3.6c0.7,0,1.3,0.1,1.6,0.2c0.4,0.1,0.7,0.4,0.9,0.8c0.2,0.4,0.3,0.8,0.3,1.2
		c0,0.6-0.2,1.1-0.6,1.4c-0.4,0.4-0.9,0.6-1.7,0.7c0.3,0.1,0.5,0.3,0.6,0.4c0.3,0.3,0.6,0.6,0.9,1.1l1.4,2.2h-1.3l-1.1-1.7
		c-0.3-0.5-0.6-0.9-0.8-1.1c-0.2-0.3-0.4-0.4-0.5-0.5c-0.2-0.1-0.3-0.2-0.5-0.2c-0.1,0-0.3,0-0.6,0H98v3.6H96.9z M98,101.9h2.3
		c0.5,0,0.9-0.1,1.1-0.2c0.3-0.1,0.5-0.3,0.6-0.5c0.1-0.2,0.2-0.5,0.2-0.7c0-0.4-0.1-0.7-0.4-0.9c-0.3-0.2-0.7-0.4-1.3-0.4H98V101.9
		z"/>
	<path class="st8" d="M104.2,106.4l3.1-8.1h1.1l3.3,8.1h-1.2l-0.9-2.4h-3.4l-0.9,2.4H104.2z M106.5,103h2.7l-0.8-2.2
		c-0.3-0.7-0.4-1.2-0.6-1.7c-0.1,0.5-0.2,1-0.4,1.5L106.5,103z"/>
	<path class="st8" d="M112.5,106.4v-8.1h1.1l4.2,6.3v-6.3h1v8.1h-1.1l-4.2-6.3v6.3H112.5z"/>
	<path class="st8" d="M124.4,103.2v-0.9l3.4,0v3c-0.5,0.4-1.1,0.7-1.6,0.9c-0.6,0.2-1.1,0.3-1.7,0.3c-0.8,0-1.5-0.2-2.2-0.5
		c-0.6-0.3-1.1-0.8-1.5-1.5c-0.3-0.6-0.5-1.4-0.5-2.1c0-0.8,0.2-1.5,0.5-2.2c0.3-0.7,0.8-1.2,1.4-1.5c0.6-0.3,1.3-0.5,2.1-0.5
		c0.6,0,1.1,0.1,1.6,0.3c0.5,0.2,0.8,0.5,1.1,0.8c0.3,0.3,0.5,0.8,0.6,1.3l-1,0.3c-0.1-0.4-0.3-0.7-0.5-1c-0.2-0.2-0.4-0.4-0.8-0.6
		c-0.3-0.1-0.7-0.2-1.1-0.2c-0.5,0-0.9,0.1-1.3,0.2c-0.4,0.1-0.6,0.3-0.9,0.6c-0.2,0.2-0.4,0.5-0.5,0.8c-0.2,0.5-0.3,1-0.3,1.6
		c0,0.7,0.1,1.3,0.4,1.8c0.2,0.5,0.6,0.8,1.1,1.1c0.5,0.2,1,0.4,1.5,0.4c0.5,0,0.9-0.1,1.4-0.3c0.4-0.2,0.8-0.4,1-0.6v-1.5H124.4z"
		/>
	<path class="st8" d="M137.4,105.4v1H132c0-0.2,0-0.5,0.1-0.7c0.1-0.4,0.4-0.7,0.7-1.1c0.3-0.4,0.7-0.8,1.3-1.2
		c0.9-0.7,1.5-1.3,1.8-1.7c0.3-0.4,0.5-0.8,0.5-1.2c0-0.4-0.1-0.7-0.4-1c-0.3-0.3-0.6-0.4-1.1-0.4c-0.5,0-0.9,0.1-1.1,0.4
		c-0.3,0.3-0.4,0.7-0.4,1.2l-1-0.1c0.1-0.8,0.3-1.3,0.8-1.7c0.5-0.4,1.1-0.6,1.8-0.6c0.8,0,1.4,0.2,1.8,0.6c0.5,0.4,0.7,1,0.7,1.6
		c0,0.3-0.1,0.6-0.2,1c-0.1,0.3-0.4,0.6-0.7,1c-0.3,0.3-0.8,0.8-1.5,1.4c-0.6,0.5-1,0.8-1.1,1c-0.2,0.2-0.3,0.4-0.4,0.5H137.4z"/>
	<path class="st8" d="M138.4,102.4c0-1,0.1-1.7,0.3-2.3c0.2-0.6,0.5-1,0.9-1.3c0.4-0.3,0.9-0.5,1.5-0.5c0.4,0,0.8,0.1,1.1,0.3
		c0.3,0.2,0.6,0.4,0.8,0.8c0.2,0.3,0.4,0.7,0.5,1.2c0.1,0.5,0.2,1.1,0.2,1.9c0,0.9-0.1,1.7-0.3,2.3c-0.2,0.6-0.5,1-0.9,1.3
		c-0.4,0.3-0.9,0.5-1.5,0.5c-0.8,0-1.4-0.3-1.8-0.8C138.7,105,138.4,103.9,138.4,102.4z M139.4,102.4c0,1.3,0.2,2.2,0.5,2.6
		c0.3,0.4,0.7,0.7,1.1,0.7c0.5,0,0.8-0.2,1.1-0.7c0.3-0.4,0.5-1.3,0.5-2.6c0-1.3-0.2-2.2-0.5-2.6c-0.3-0.4-0.7-0.7-1.2-0.7
		c-0.5,0-0.8,0.2-1.1,0.6C139.6,100.2,139.4,101.1,139.4,102.4z"/>
	<path class="st8" d="M148.4,106.4h-1v-6.3c-0.2,0.2-0.6,0.5-0.9,0.7c-0.4,0.2-0.7,0.4-1,0.5v-1c0.6-0.3,1-0.6,1.5-0.9
		c0.4-0.4,0.7-0.7,0.9-1.1h0.6V106.4z"/>
	<path class="st8" d="M151.1,104.5l1-0.1c0.1,0.4,0.2,0.8,0.5,1c0.2,0.2,0.5,0.3,0.9,0.3c0.3,0,0.6-0.1,0.8-0.2
		c0.2-0.1,0.4-0.3,0.6-0.6c0.1-0.2,0.3-0.5,0.4-0.9c0.1-0.4,0.1-0.8,0.1-1.2c0,0,0-0.1,0-0.2c-0.2,0.3-0.5,0.6-0.8,0.8
		c-0.3,0.2-0.7,0.3-1.1,0.3c-0.7,0-1.2-0.2-1.7-0.7c-0.5-0.5-0.7-1.1-0.7-1.9c0-0.8,0.2-1.5,0.7-2c0.5-0.5,1.1-0.7,1.8-0.7
		c0.5,0,1,0.1,1.4,0.4c0.4,0.3,0.8,0.7,1,1.2c0.2,0.5,0.3,1.3,0.3,2.3c0,1-0.1,1.8-0.3,2.5c-0.2,0.6-0.6,1.1-1,1.4s-1,0.5-1.6,0.5
		c-0.6,0-1.1-0.2-1.5-0.5C151.4,105.6,151.2,105.1,151.1,104.5z M155.1,100.9c0-0.6-0.2-1-0.5-1.4c-0.3-0.3-0.7-0.5-1.1-0.5
		c-0.4,0-0.8,0.2-1.1,0.5c-0.3,0.4-0.5,0.8-0.5,1.4c0,0.5,0.2,0.9,0.5,1.3c0.3,0.3,0.7,0.5,1.1,0.5c0.5,0,0.8-0.2,1.1-0.5
		C155,101.9,155.1,101.5,155.1,100.9z"/>
</g>
</svg>
