<svg id="Layer_1" data-name="Layer 1" xmlns="http://www.w3.org/2000/svg" viewBox="0 0 185 188"><defs><style>.cls-1{fill:#fff;}.cls-2{fill:#ffdd0f;}.cls-3{fill:#08a650;}.cls-4{fill:#0d8a4c;}.cls-5{fill:#fcfdfc;}.cls-6{fill:#188a4d;}.cls-7{fill:#fcfdfb;}.cls-8{fill:#208c4f;}.cls-9{fill:#58595b;}.cls-10{fill:#e6e6e5;}.cls-11{fill:#6d6e70;}.cls-12{fill:#404041;}</style></defs><title>logos</title><rect class="cls-1" x="36.2" y="21.5" width="15.1" height="32.3"/><path class="cls-2" d="M8.2,53.9H6.1c-.3,0-.4-.1-.4-.3-1.2-4.2-2.3-8.3-3.5-12.5-.4-1.5-.8-3-1.3-4.5,0-.1-.1-.1-.1-.2v-.2a1.38,1.38,0,0,0,.4-.3l5-5c4.3-4.2,8.5-8.5,12.8-12.7,3.6-3.6,7.3-7.2,10.9-10.8.2-.2.4-.3.6-.2,8.6,2.5,17.2,5.1,25.8,7.6.3.1.4.2.4.5V52.6c-.2-.1-.1-.3-.1-.5V46.5c0-3.3.1-6.5,0-9.8-.1-4.7,0-9.5-.1-14.2,0-.4-.1-.6-.5-.7a35.41,35.41,0,0,0-9.6-2.3,31.47,31.47,0,0,0-5.3-.1,32.36,32.36,0,0,0-11.8,2.8A37.59,37.59,0,0,0,20,28.1a34.9,34.9,0,0,0-7.4,9.3,36.61,36.61,0,0,0-4,12.5c-.2,1.2-.2,2.4-.3,3.7A.77.77,0,0,1,8.2,53.9Z"/><path class="cls-3" d="M8.2,53.9c0-1.1,0-2.2.1-3.3A51.3,51.3,0,0,1,9.6,44a34.57,34.57,0,0,1,6.3-12,35,35,0,0,1,19-12,33.63,33.63,0,0,1,10-.9,35.73,35.73,0,0,1,11.2,2.5.55.55,0,0,1,.4.6V34.7c.1,5.8,0,11.7.1,17.5v1.5c0,.2-.1.2-.2.2H50.9c-.2,0-.2-.1-.2-.2V38.3c0-.3-.1-.4-.4-.5a2.91,2.91,0,0,1-1.4-1.3,10.71,10.71,0,0,0-1.5-2.2V53.7c0,.1,0,.2-.2.2s-.2-.1-.2-.2V34.2c-.2,0-.2.2-.3.3l-1.2,1.8a2.65,2.65,0,0,1-.5.6.85.85,0,0,1-1.3,0c-.4-.4-.7-.9-1.1-1.3a12.13,12.13,0,0,0-1-1.4V53.7c0,.1,0,.2-.2.2s-.2-.1-.2-.2V34.3a12.13,12.13,0,0,0-1,1.4,8.34,8.34,0,0,1-.8,1.2,2.52,2.52,0,0,1-1.5,1c-.2.1-.3-.1-.4-.2a2.35,2.35,0,0,1-.4-3.2c.1-.2.2-.3.3-.5a1.32,1.32,0,0,0-.2-1.2c-.2-.3-.4-.5-.6-.8a1.18,1.18,0,0,1,1.5-1.7c.2.1.4.3.6.2s.1-.4.2-.6a1.75,1.75,0,0,1,1.5-1c.3,0,.7-.1,1-.1h4.5c.7,0,1-.2,1.1-.9a1.67,1.67,0,0,0-.1-1.2c-.7-1.3-1.4-2.7-2.1-4-.4-.7-.8-.8-1.4-.1l-.1.1-4.6,4c-1.3,1.2-2.7,2.3-4,3.5s-2.7,2.4-4,3.5-2.7,2.3-4,3.5-2.7,2.4-4,3.5-2.7,2.3-4,3.5c-.3.3-.6.5-.9.8l-.2.2a6.47,6.47,0,0,1-.9.8.52.52,0,0,1-.4.2c-.2-.1-.2-.4-.3-.6s-.1-.3-.3-.4c0,.5.4.9.3,1.4a2.7,2.7,0,0,1-.8.7.19.19,0,0,1-.3,0c-.1-.6,0-1.3-.1-1.9-.1.8,0,1.6-.1,2.4a5,5,0,0,1-.8.7,11.51,11.51,0,0,1-1.7,1.4,3.08,3.08,0,0,0-.1,1v1.3a.6.6,0,0,1-.1.4c-.3-.1-.2-.3-.2-.5V50.3c-1.2,1-2.3,2-3.4,3a.76.76,0,0,0,.4.1H37c.3,0,.5-.1.8.1-.1.3-.3.3-.6.3H8.4C8.5,53.9,8.4,53.9,8.2,53.9Z"/><path class="cls-4" d="M18.1,45.2c.5-.5,1.1-1,1.6-1.5l2.2-1.9c.9-.8,1.9-1.6,2.8-2.4.7-.6,1.4-1.3,2.2-1.9.9-.8,1.9-1.6,2.8-2.4l2.1-1.8c1-.9,2-1.7,2.9-2.6l2.7-2.4c.9-.8,1.8-1.6,2.8-2.4.7-.6,1.4-1.3,2.2-1.9a7.55,7.55,0,0,1,1.4-1.1.44.44,0,0,1-.1.5c-.5.9-.9,1.9-1.5,2.8a3.55,3.55,0,0,0-.4.9,1.63,1.63,0,0,0,.2,1.5.76.76,0,0,1,.2.5,8.75,8.75,0,0,0-1.6.2,1.18,1.18,0,0,0-.9,1.2c0,.3-.1.4-.4.2s-.3-.2-.5-.3a1.13,1.13,0,0,0-1.3.4.84.84,0,0,0-.3,1.2,3,3,0,0,0,.5.7,1.27,1.27,0,0,1,0,1.8,2.21,2.21,0,0,0,.6,3.4V52.5a2.46,2.46,0,0,1-.1,1.2H8.6c.1-.3.3-.4.5-.6l2.2-1.9c.3-.2.5-.5.8-.7.1-.1.1-.1.2-.1s.1.1.1.2v1.8a.6.6,0,0,0,.1.4c.3-.2.6-.1.9-.1h.5c-.2-.1-.5,0-.7,0a.37.37,0,0,1-.4-.4,16.15,16.15,0,0,1,0-2.2c.6-.6,1.3-1.1,1.9-1.7.1-.1.2-.3.4-.2.2-.1.2-.3.4-.5a6.47,6.47,0,0,1,.9-.8c.2,0,.2.2.2.3s.1.4.2.6.1.3.3.3.2-.2.2-.3c.3-.6.5-1.3.8-1.9Z"/><path class="cls-1" d="M38.4,33.5a2.46,2.46,0,0,0-.4-1.1,3,3,0,0,1-.5-.7.52.52,0,0,1,.1-.8.54.54,0,0,1,.8-.2c.5.3,1.1.5,1.4,1,.1.1.2.2.2.3a1.17,1.17,0,0,0,1.7.3c.2-.1.3-.2.5-.3a3.61,3.61,0,0,1,4.4-.2,3.51,3.51,0,0,0,.8.5c.8.3,1.4.2,1.8-.5a2.52,2.52,0,0,1,1.5-1,.78.78,0,0,1,.8.1.61.61,0,0,1,.1.8c-.1.1-.1.3-.2.4a2.13,2.13,0,0,0-.1,2.8,1.84,1.84,0,0,1-.3,2.5.44.44,0,0,1-.5.1,2,2,0,0,1-1-1c-.5-.9-1.1-1.7-1.6-2.5-.3-.4-.6-.5-1-.1s-.7,1-1,1.4a7.63,7.63,0,0,1-.8,1.1c-.4.5-.7.5-1.1,0s-.9-1.3-1.4-1.9c-.1-.2-.3-.4-.4-.6-.3-.4-.7-.4-1,.1-.5.8-1.1,1.6-1.6,2.5a2.41,2.41,0,0,1-1,1c-.2.1-.4.1-.5-.1a1.87,1.87,0,0,1-.2-2.6C38.3,34.1,38.4,33.9,38.4,33.5Z"/><path class="cls-1" d="M44.5,29.3c1.3,0,2.6,0,3.8.1a1.14,1.14,0,0,1,.8,1.9c-.6.9-1.2,1-2.1.3a3.23,3.23,0,0,0-2.1-.8,3.48,3.48,0,0,0-2.8.8h0c-1.2,1-1.6.5-2.3-.6-.4-.6.2-1.5.9-1.6a10.87,10.87,0,0,1,1.8-.1Z"/><path class="cls-5" d="M18.1,45.2c.1,0,.3,0,.2.2a24.43,24.43,0,0,1-1,2.4c-.1.1-.1.2-.3.2s-.2-.1-.3-.2c-.1-.4-.3-.7-.4-1.1s-.3-1-.5-1.5a.37.37,0,0,1,.5.2l.3.9a2.11,2.11,0,0,1,.4,1,13.36,13.36,0,0,1,.7-1.8.22.22,0,0,1,.2-.2A.35.35,0,0,1,18.1,45.2Z"/><path class="cls-5" d="M12.2,45.3c.3-.1.4,0,.5.2a18,18,0,0,0,.8,2.1,18,18,0,0,0,.8-2.1c.1-.2.2-.3.4-.2-.3.9-.7,1.7-1,2.6a.37.37,0,0,1-.3.1c-.1,0-.2,0-.2-.1C12.8,47,12.5,46.1,12.2,45.3Z"/><path class="cls-1" d="M12.7,49.9c.2.1.1.2.1.4v1.8c0,.2,0,.4.3.3h.8c.1,0,.3-.1.3.1s-.2.2-.3.2H12.5V50.2C12.4,49.9,12.5,49.9,12.7,49.9Z"/><path class="cls-6" d="M17.9,45.4c-.3.7-.5,1.4-.8,2.2a5.64,5.64,0,0,1-.4-1.2C17.1,46.1,17.4,45.6,17.9,45.4Z"/><path class="cls-1" d="M15.4,47.5c0,.2.1.6-.4.5V45.5c0-.1,0-.2.2-.2s.2.1.2.3Z"/><path class="cls-5" d="M19.1,51.2c.3,0,.6-.2.6.4s-.4,1.1-1.2,1.1a1.21,1.21,0,0,1-1.2-.8,1.54,1.54,0,0,1,.3-1.7,1.36,1.36,0,0,1,1.5-.3,1,1,0,0,1,.6.5c0,.1.1.2,0,.2s-.2.1-.3-.1c-.2-.5-.6-.5-1-.4a.8.8,0,0,0-.7.9,1.09,1.09,0,0,0,.4,1.2,1.05,1.05,0,0,0,1.2,0c.3-.1.2-.3.2-.6s-.2-.1-.4-.1h-.2c-.1,0-.2,0-.2-.2s.1-.1.2-.1Z"/><path class="cls-5" d="M23.2,50.6c-.2.1-.3.1-.4-.2a.78.78,0,0,0-1.1-.1c-.2.2-.2.5.1.6s.5.1.8.2a.76.76,0,0,1,.7.8c0,.4-.3.7-.8.8s-1.3-.2-1.4-.7c0-.1-.2-.2.1-.3.1,0,.2,0,.3.2a.81.81,0,0,0,1.1.5c.2-.1.3-.2.3-.4s-.1-.3-.3-.4l-.9-.3a.72.72,0,0,1,.1-1.4A.94.94,0,0,1,23.2,50.6Z"/><path class="cls-1" d="M14.6,51.3V50.2c0-.2.1-.2.2-.2h1.5c.1,0,.2-.1.3.1s-.2.2-.3.2H15.2a.27.27,0,0,0-.3.3c0,.6,0,.6.6.6h.8c.1,0,.2,0,.2.2s-.1.1-.3.1h-1a.27.27,0,0,0-.3.3c0,.7,0,.7.6.7h.9c.1,0,.2,0,.2.2s-.1.2-.2.2H14.7c-.2,0-.2-.1-.2-.2A8.8,8.8,0,0,0,14.6,51.3Z"/><path class="cls-5" d="M18.1,48c.3-.9.7-1.7,1-2.6a.22.22,0,0,1,.2-.2c.1,0,.2,0,.3.2.3.9.7,1.7,1.1,2.6a.44.44,0,0,1-.6-.3c-.1-.2-.1-.5-.3-.5a3.35,3.35,0,0,0-1,0c-.2,0-.2.4-.3.5C18.4,48,18.4,48,18.1,48Z"/><path class="cls-5" d="M28.2,52.6c-.3.1-.4,0-.5-.3s-.1-.5-.3-.5a1.7,1.7,0,0,0-1,0c-.2,0-.2.3-.3.5s-.2.4-.5.3c.3-.9.7-1.7,1-2.6.1-.1.1-.2.3-.2s.2,0,.3.2C27.5,50.9,27.9,51.7,28.2,52.6Z"/><path class="cls-5" d="M36.2,52.6c-.4.1-.5-.1-.5-.3s-.1-.5-.3-.5a1.7,1.7,0,0,0-1,0c-.2,0-.2.4-.3.5-.1.3-.1.3-.5.3.3-.9.7-1.8,1-2.6a.28.28,0,0,1,.5,0C35.5,50.9,35.9,51.7,36.2,52.6Z"/><path class="cls-7" d="M31.4,49.9c.3-.1.4,0,.5.2a18,18,0,0,0,.8,2.1c.3-.7.5-1.4.8-2,0-.1.1-.2.1-.3a.37.37,0,0,1,.3-.1c.1,0,0,.1,0,.2a24.43,24.43,0,0,1-1,2.4c-.1.1-.1.2-.3.2s-.2,0-.3-.2C32,51.6,31.7,50.8,31.4,49.9Z"/><path class="cls-1" d="M29.1,49.9H30c.1,0,.2,0,.2.2s-.1.2-.2.2-.6-.1-.7.1,0,.5-.1.7v1.4c0,.1.1.3-.2.3s-.2-.1-.2-.3V50.7c0-.4-.1-.5-.4-.4h-.3c-.1,0-.2,0-.2-.1a.22.22,0,0,1,.2-.2A3.75,3.75,0,0,1,29.1,49.9Z"/><path class="cls-1" d="M23.8,51.2V50.1c0-.1,0-.3.2-.3s.2.1.2.2v1.9c0,.3.1.3.3.3h.8c.1,0,.2,0,.2.2s-.1.2-.2.2H24c-.2,0-.2-.1-.2-.2Z"/><path class="cls-1" d="M20.6,51.3v1.1c0,.1,0,.2-.2.2s-.2-.1-.2-.3V50c0-.1,0-.2.2-.2s.2.1.2.3Z"/><path class="cls-1" d="M31,51.3v1.1c0,.1,0,.2-.2.2s-.2-.1-.2-.2V50.1c0-.1,0-.2.2-.2s.2.1.2.2Z"/><path class="cls-8" d="M19.8,46.8h-.9c.1-.4.3-.8.4-1.2C19.5,46,19.6,46.4,19.8,46.8Z"/><path class="cls-8" d="M26.9,50.3c.1.1.1.3.2.4.3.8.3.8-.6.7C26.6,51.1,26.8,50.7,26.9,50.3Z"/><path class="cls-8" d="M34.9,50.2a5.64,5.64,0,0,1,.4,1.2h-.9A7.26,7.26,0,0,0,34.9,50.2Z"/><path class="cls-9" d="M65.3,22.8h3v3.6l3.1-3.6h3.9l-3.5,3.6,3.7,6H71.9l-2-3.9L68.3,30v2.3h-3Z"/><path class="cls-9" d="M75.6,27.6a4.92,4.92,0,0,1,1.3-3.7,4.84,4.84,0,0,1,3.6-1.3,4.92,4.92,0,0,1,3.7,1.3,4.84,4.84,0,0,1,1.3,3.6,6.09,6.09,0,0,1-.6,2.8A4.36,4.36,0,0,1,83.3,32a5.4,5.4,0,0,1-2.7.6,6.84,6.84,0,0,1-2.7-.5,3.75,3.75,0,0,1-1.7-1.6A8.8,8.8,0,0,1,75.6,27.6Zm3,0a3.58,3.58,0,0,0,.5,2.1,1.89,1.89,0,0,0,1.5.6,2,2,0,0,0,1.5-.6,4,4,0,0,0,.5-2.2,3.44,3.44,0,0,0-.5-2,2,2,0,0,0-1.5-.6,1.68,1.68,0,0,0-1.4.6A2.93,2.93,0,0,0,78.6,27.6Z"/><path class="cls-9" d="M87.2,22.8H90l3.6,5.3V22.8h2.8v9.6H93.6L90,27.1v5.3H87.2Z"/><path class="cls-9" d="M103.2,28.9v-2h4.6V31a10.26,10.26,0,0,1-2.3,1.2,8.75,8.75,0,0,1-2.4.3,5.81,5.81,0,0,1-2.8-.6,4.62,4.62,0,0,1-1.7-1.7,5.54,5.54,0,0,1-.6-2.6,5.67,5.67,0,0,1,.6-2.7,4.14,4.14,0,0,1,1.9-1.8,6,6,0,0,1,2.6-.5,7,7,0,0,1,2.4.3,3,3,0,0,1,1.3.9,5.3,5.3,0,0,1,.8,1.5l-2.9.5a1.24,1.24,0,0,0-.6-.8,1.8,1.8,0,0,0-1.1-.3,2,2,0,0,0-1.6.7,3.28,3.28,0,0,0-.6,2.1,3.22,3.22,0,0,0,.6,2.2,2.18,2.18,0,0,0,1.6.7,2.77,2.77,0,0,0,.9-.1,9.25,9.25,0,0,0,1-.5v-.9Z"/><path class="cls-9" d="M109.5,32.4V22.8h4.9a10.61,10.61,0,0,1,2.1.2,2.15,2.15,0,0,1,1.2.9,2.54,2.54,0,0,1,.4,1.6,3.19,3.19,0,0,1-.3,1.4,2,2,0,0,1-.9.9,3,3,0,0,1-1,.4,1.51,1.51,0,0,1,.8.4,2.25,2.25,0,0,1,.5.5,5.92,5.92,0,0,0,.4.6l1.4,2.8h-3.3l-1.6-2.9a2.49,2.49,0,0,0-.5-.7,1.85,1.85,0,0,0-.7-.2h-.3v3.9h-3.1Zm3-5.8h1.2a3.22,3.22,0,0,0,.8-.1.55.55,0,0,0,.5-.3,1.07,1.07,0,0,0,.2-.6.91.91,0,0,0-.3-.7c-.2-.2-.6-.2-1.1-.2h-1.3Z"/><path class="cls-9" d="M119.9,22.8h7.9v2h-5v1.5h4.6v2h-4.6v1.9h5.1v2.2h-8.1V22.8Z"/><path class="cls-9" d="M129.1,29.2l2.8-.2a1.88,1.88,0,0,0,.4,1,1.49,1.49,0,0,0,1.3.6,1.69,1.69,0,0,0,1-.3.91.91,0,0,0,.3-.7,1.08,1.08,0,0,0-.3-.7,3.69,3.69,0,0,0-1.5-.6,6.69,6.69,0,0,1-2.8-1.2,2.24,2.24,0,0,1-.8-1.9,2.3,2.3,0,0,1,.4-1.4,2.68,2.68,0,0,1,1.3-1,5.46,5.46,0,0,1,2.4-.4,4.46,4.46,0,0,1,2.8.7,3.12,3.12,0,0,1,1.1,2.2l-2.8.2a1.35,1.35,0,0,0-.5-.9,1.49,1.49,0,0,0-1-.3,1.88,1.88,0,0,0-.8.2.55.55,0,0,0-.3.5.52.52,0,0,0,.2.4,6.39,6.39,0,0,0,1,.4,28.46,28.46,0,0,1,2.8.8,2.18,2.18,0,0,1,1.2,1.1,2.3,2.3,0,0,1,.4,1.4,3.37,3.37,0,0,1-.5,1.7,3.33,3.33,0,0,1-1.4,1.2,5.27,5.27,0,0,1-2.3.4,5,5,0,0,1-3.4-.9A3.26,3.26,0,0,1,129.1,29.2Z"/><path class="cls-9" d="M143.8,22.8h3v9.6h-3Z"/><path class="cls-9" d="M148.9,22.8h3v3.6l3.1-3.6h3.9l-3.5,3.6,3.7,6h-3.6l-2-3.9L152,30.1v2.3h-3V22.8Z"/><path class="cls-9" d="M160.1,22.8h3V30h4.6v2.4h-7.6Z"/><path class="cls-9" d="M169.1,22.8h3v9.6h-3Z"/><path class="cls-9" d="M174.2,22.8h3.9l1.5,5.8,1.5-5.8H185v9.6h-2.4V25l-1.9,7.3h-2.2L176.6,25v7.3h-2.4V22.8Z"/><path class="cls-9" d="M65.2,42.8l1-.1a2.93,2.93,0,0,0,.3,1,1.24,1.24,0,0,0,.8.6,2.54,2.54,0,0,0,1.2.2,3.59,3.59,0,0,0,1.1-.2,1.79,1.79,0,0,0,.7-.5.84.84,0,0,0,.2-.7,1.45,1.45,0,0,0-.2-.7c-.1-.2-.4-.3-.7-.5s-.7-.2-1.4-.4a7.65,7.65,0,0,1-1.6-.5,2.36,2.36,0,0,1-.9-.8,1.69,1.69,0,0,1-.3-1,2,2,0,0,1,.3-1.1,2.72,2.72,0,0,1,1-.8,3.34,3.34,0,0,1,1.5-.3,4.15,4.15,0,0,1,1.6.3,3.13,3.13,0,0,1,1.1.8,2.84,2.84,0,0,1,.4,1.3l-1,.1a1.74,1.74,0,0,0-.6-1.2,2.12,2.12,0,0,0-1.4-.4,2,2,0,0,0-1.4.4,1,1,0,0,0-.4.9.91.91,0,0,0,.3.7,3.69,3.69,0,0,0,1.6.6,17.06,17.06,0,0,1,1.8.5,2.09,2.09,0,0,1,1,.8,2,2,0,0,1,.3,1.1,1.92,1.92,0,0,1-.4,1.2A2,2,0,0,1,70,45a4.15,4.15,0,0,1-1.6.3,4.84,4.84,0,0,1-1.8-.3,2.34,2.34,0,0,1-1.2-1A3.26,3.26,0,0,1,65.2,42.8Z"/><path class="cls-9" d="M73.1,45.3V37.2h5.8v1H74.1v2.5h4.5v.9H74.1v2.7H79v1Z"/><path class="cls-9" d="M80.5,45.3V37.2h1.6L84,43c.2.5.3.9.4,1.2.1-.3.2-.7.4-1.3l1.9-5.6h1.4v8.1h-1V38.7l-2.3,6.7h-1l-2.3-6.9v6.9h-1Z"/><path class="cls-9" d="M89,45.3l3.1-8.1h1.1l3.3,8.1H95.3l-.9-2.4H91l-.9,2.4ZM91.4,42h2.7l-.8-2.2c-.3-.7-.4-1.2-.6-1.7a8.33,8.33,0,0,1-.4,1.5Z"/><path class="cls-9" d="M97.4,45.3V37.2H101a5.67,5.67,0,0,1,1.6.2,1.42,1.42,0,0,1,.9.8,2.66,2.66,0,0,1,.3,1.2,1.68,1.68,0,0,1-.6,1.4,3.36,3.36,0,0,1-1.7.7,1.54,1.54,0,0,1,.6.4A5.31,5.31,0,0,1,103,43l1.4,2.2h-1.3L102,43.5a6.29,6.29,0,0,0-.8-1.1,2.25,2.25,0,0,0-.5-.5c-.2-.1-.3-.2-.5-.2H98.4v3.6Zm1.1-4.5h2.3a2.68,2.68,0,0,0,1.1-.2,1,1,0,0,0,.6-.5,1.85,1.85,0,0,0,.2-.7,1,1,0,0,0-.4-.9,2.23,2.23,0,0,0-1.3-.4H98.5Z"/><path class="cls-9" d="M104.7,45.3l3.1-8.1h1.1l3.3,8.1H111l-.9-2.4h-3.4l-.9,2.4ZM107,42h2.7l-.8-2.2c-.3-.7-.4-1.2-.6-1.7a8.33,8.33,0,0,1-.4,1.5Z"/><path class="cls-9" d="M113.1,45.3V37.2h1.1l4.2,6.3V37.2h1v8.1h-1.1L114.1,39v6.3Z"/><path class="cls-9" d="M125,42.2v-.9h3.4v3a6.47,6.47,0,0,1-1.6.9,5.08,5.08,0,0,1-1.7.3,5.45,5.45,0,0,1-2.2-.5,3.61,3.61,0,0,1-1.5-1.5,5,5,0,0,1-.5-2.1,5.45,5.45,0,0,1,.5-2.2,2.94,2.94,0,0,1,1.4-1.5,4.65,4.65,0,0,1,2.1-.5,4.15,4.15,0,0,1,1.6.3,3.13,3.13,0,0,1,1.1.8,2.62,2.62,0,0,1,.6,1.3l-1,.3a3.13,3.13,0,0,0-.5-1,2.76,2.76,0,0,0-.8-.6,3.59,3.59,0,0,0-1.1-.2,5.07,5.07,0,0,0-1.3.2,1.8,1.8,0,0,0-.9.6,2.18,2.18,0,0,0-.5.8,4.15,4.15,0,0,0-.3,1.6,3.42,3.42,0,0,0,.4,1.8,2.35,2.35,0,0,0,1.1,1.1,4.19,4.19,0,0,0,1.5.4,3.53,3.53,0,0,0,1.4-.3,4.37,4.37,0,0,0,1-.6V42.2Z"/><path class="cls-9" d="M137.9,44.4v1h-5.3a1.7,1.7,0,0,1,.1-.7,3.38,3.38,0,0,1,.7-1.1,5.12,5.12,0,0,1,1.3-1.2,10.18,10.18,0,0,0,1.8-1.7,2.08,2.08,0,0,0,.5-1.2,1.28,1.28,0,0,0-.4-1,1.37,1.37,0,0,0-1.1-.4,1.25,1.25,0,0,0-1.1.4,1.59,1.59,0,0,0-.4,1.2l-1-.1a2.3,2.3,0,0,1,.8-1.7,2.79,2.79,0,0,1,1.8-.6,2.44,2.44,0,0,1,1.8.6,2,2,0,0,1,.7,1.6,4.4,4.4,0,0,1-.2,1,4.62,4.62,0,0,1-.7,1c-.3.3-.8.8-1.5,1.4a5.93,5.93,0,0,0-1.1,1c-.2.2-.3.4-.4.5Z"/><path class="cls-9" d="M138.9,41.4a7.12,7.12,0,0,1,.3-2.3,2.54,2.54,0,0,1,.9-1.3,2.46,2.46,0,0,1,1.5-.5,2,2,0,0,1,1.1.3,2,2,0,0,1,.8.8,3.34,3.34,0,0,1,.5,1.2,9.2,9.2,0,0,1,.2,1.9,7.55,7.55,0,0,1-.3,2.3,2.54,2.54,0,0,1-.9,1.3,2.46,2.46,0,0,1-1.5.5,2.2,2.2,0,0,1-1.8-.8A6.32,6.32,0,0,1,138.9,41.4Zm1,0a4.85,4.85,0,0,0,.5,2.6,1.51,1.51,0,0,0,1.1.7,1.17,1.17,0,0,0,1.1-.7,4.85,4.85,0,0,0,.5-2.6,4.85,4.85,0,0,0-.5-2.6,1.52,1.52,0,0,0-1.2-.7,1.25,1.25,0,0,0-1.1.6A7.18,7.18,0,0,0,139.9,41.4Z"/><path class="cls-9" d="M148.9,45.3h-1V39a7.05,7.05,0,0,1-.9.7,9.25,9.25,0,0,1-1,.5v-1c.6-.3,1-.6,1.5-.9a4.36,4.36,0,0,0,.9-1.1h.6v8.1Z"/><path class="cls-9" d="M151.6,43.5l1-.1a1.6,1.6,0,0,0,.5,1,1.22,1.22,0,0,0,.9.3,1.88,1.88,0,0,0,.8-.2,1.7,1.7,0,0,0,.6-.6,3.92,3.92,0,0,0,.4-.9,4.87,4.87,0,0,0,.1-1.2v-.2a3,3,0,0,1-.8.8,2,2,0,0,1-1.1.3,2.19,2.19,0,0,1-1.7-.7,2.49,2.49,0,0,1-.7-1.9,2.72,2.72,0,0,1,.7-2,2.41,2.41,0,0,1,1.8-.7,2.3,2.3,0,0,1,1.4.4,2.94,2.94,0,0,1,1,1.2,6.71,6.71,0,0,1,.3,2.3,9,9,0,0,1-.3,2.5,3,3,0,0,1-1,1.4,2.77,2.77,0,0,1-1.6.5,2.46,2.46,0,0,1-1.5-.5A3.3,3.3,0,0,1,151.6,43.5Zm4-3.6a2.17,2.17,0,0,0-.5-1.4,1.46,1.46,0,0,0-2.2,0,2.17,2.17,0,0,0-.5,1.4,2.11,2.11,0,0,0,.5,1.3,1.27,1.27,0,0,0,1.1.5,1.72,1.72,0,0,0,1.6-1.8Z"/><rect class="cls-1" x="36.1" y="148.6" width="15.1" height="32.3"/><path class="cls-2" d="M8.1,180.9H6c-.3,0-.4-.1-.4-.3-1.2-4.2-2.3-8.3-3.5-12.5-.4-1.5-.8-3-1.3-4.5,0-.1-.1-.1-.1-.2v-.2a1.38,1.38,0,0,1,.4-.3l5-5c4.3-4.2,8.5-8.5,12.8-12.7,3.6-3.6,7.3-7.2,10.9-10.8.2-.2.4-.3.6-.2,8.6,2.5,17.2,5.1,25.8,7.6.3.1.4.2.4.5v37.3c-.2-.1-.1-.3-.1-.5v-5.6c0-3.3.1-6.5,0-9.8-.1-4.7,0-9.5-.1-14.2,0-.4-.1-.6-.5-.7a35.41,35.41,0,0,0-9.6-2.3,31.48,31.48,0,0,0-5.3-.1,32.36,32.36,0,0,0-11.8,2.8,37.59,37.59,0,0,0-9.3,5.9,34.9,34.9,0,0,0-7.4,9.3,36.61,36.61,0,0,0-4,12.5c-.2,1.2-.2,2.4-.3,3.7A.49.49,0,0,1,8.1,180.9Z"/><path class="cls-3" d="M8.1,180.9c0-1.1,0-2.2.1-3.3a28.82,28.82,0,0,1,1.3-6.5,34.57,34.57,0,0,1,6.3-12,35,35,0,0,1,19-12,33.63,33.63,0,0,1,10-.9A35.73,35.73,0,0,1,56,148.7a.55.55,0,0,1,.4.6v12.5c.1,5.8,0,11.7.1,17.5v1.5c0,.2-.1.2-.2.2H50.8c-.2,0-.2-.1-.2-.2V165.4c0-.3-.1-.4-.4-.5a2.91,2.91,0,0,1-1.4-1.3,10.71,10.71,0,0,0-1.5-2.2v19.4c0,.1,0,.2-.2.2s-.2-.1-.2-.2V161.3c-.2,0-.2.2-.3.3l-1.2,1.8a2.65,2.65,0,0,1-.5.6.85.85,0,0,1-1.3,0c-.4-.4-.7-.9-1.1-1.3a12.13,12.13,0,0,0-1-1.4v19.5c0,.1,0,.2-.2.2s-.2-.1-.2-.2V161.4a12.13,12.13,0,0,0-1,1.4,8.34,8.34,0,0,1-.8,1.2,2.52,2.52,0,0,1-1.5,1c-.2.1-.3-.1-.4-.2a2.35,2.35,0,0,1-.4-3.2c.1-.2.2-.3.3-.5a1.32,1.32,0,0,0-.2-1.2c-.2-.3-.4-.5-.6-.8a1.18,1.18,0,0,1,1.5-1.7c.2.1.4.3.6.2s.1-.4.2-.6a1.75,1.75,0,0,1,1.5-1c.3,0,.7-.1,1-.1h4.5c.7,0,1-.2,1.1-.9a1.67,1.67,0,0,0-.1-1.2c-.7-1.3-1.4-2.7-2.1-4-.4-.7-.8-.8-1.4-.1l-.1.1-4.6,4c-1.3,1.2-2.7,2.3-4,3.5s-2.7,2.4-4,3.5-2.7,2.3-4,3.5-2.7,2.4-4,3.5-2.7,2.3-4,3.5c-.3.3-.6.5-.9.8l-.2.2a6.47,6.47,0,0,1-.9.8.52.52,0,0,1-.4.2c-.2-.1-.2-.4-.3-.6s-.1-.3-.3-.4c0,.5.4.9.3,1.4a2.7,2.7,0,0,1-.8.7.19.19,0,0,1-.3,0c-.1-.6,0-1.3-.1-1.9-.1.8,0,1.6-.1,2.4a5,5,0,0,1-.8.7,11.51,11.51,0,0,1-1.7,1.4,3.08,3.08,0,0,0-.1,1v1.3a.6.6,0,0,1-.1.4c-.3-.1-.2-.3-.2-.5v-1.8c-1.2,1-2.3,2-3.4,3a.76.76,0,0,0,.4.1H36.9c.3,0,.5-.1.8.1-.1.3-.3.3-.6.3H8.1Z"/><path class="cls-4" d="M18,172.2c.5-.5,1.1-1,1.6-1.5l2.2-1.9c.9-.8,1.9-1.6,2.8-2.4.7-.6,1.4-1.3,2.2-1.9.9-.8,1.9-1.6,2.8-2.4l2.1-1.8c1-.9,2-1.7,2.9-2.6l2.7-2.4c.9-.8,1.8-1.6,2.8-2.4.7-.6,1.4-1.3,2.2-1.9a7.55,7.55,0,0,1,1.4-1.1.44.44,0,0,1-.1.5c-.5.9-.9,1.9-1.5,2.8a3.55,3.55,0,0,0-.4.9,1.63,1.63,0,0,0,.2,1.5.76.76,0,0,1,.2.5,8.75,8.75,0,0,0-1.6.2,1.18,1.18,0,0,0-.9,1.2c0,.3-.1.4-.4.2s-.3-.2-.5-.3a1.13,1.13,0,0,0-1.3.4.91.91,0,0,0,0,1.2,3,3,0,0,0,.5.7,1.27,1.27,0,0,1,0,1.8,2.21,2.21,0,0,0,.6,3.4v14.6a2.46,2.46,0,0,1-.1,1.2H8.8c.1-.3.3-.4.5-.6l2.2-1.9c.3-.2.5-.5.8-.7.1-.1.1-.1.2-.1s.1.1.1.2v1.8a.6.6,0,0,0,.1.4c.3-.2.6-.1.9-.1h.5c-.2-.1-.5,0-.7,0a.37.37,0,0,1-.4-.4,16.15,16.15,0,0,1,0-2.2c.6-.6,1.3-1.1,1.9-1.7.1-.1.2-.3.4-.2.2-.1.2-.3.4-.5a6.47,6.47,0,0,1,.9-.8c.2,0,.2.2.2.3s.1.4.2.6.1.3.3.3.2-.2.2-.3c.3-.6.5-1.3.8-1.9C18,172.5,18,172.4,18,172.2Z"/><path class="cls-1" d="M38.3,160.6a2.46,2.46,0,0,0-.4-1.1,3,3,0,0,1-.5-.7.52.52,0,0,1,.1-.8.54.54,0,0,1,.8-.2c.5.3,1.1.5,1.4,1,.1.1.2.2.2.3a1.17,1.17,0,0,0,1.7.3c.2-.1.3-.2.5-.3a3.61,3.61,0,0,1,4.4-.2,3.51,3.51,0,0,0,.8.5c.8.3,1.4.2,1.8-.5a2.52,2.52,0,0,1,1.5-1,.78.78,0,0,1,.8.1.61.61,0,0,1,.1.8c-.1.1-.1.3-.2.4a2.13,2.13,0,0,0-.1,2.8,1.84,1.84,0,0,1-.3,2.5.44.44,0,0,1-.5.1,2,2,0,0,1-1-1c-.5-.9-1.1-1.7-1.6-2.5-.3-.4-.6-.5-1-.1s-.7,1-1,1.4a7.63,7.63,0,0,1-.8,1.1c-.4.5-.7.5-1.1,0s-.9-1.3-1.4-1.9c-.1-.2-.3-.4-.4-.6-.3-.4-.7-.4-1,.1-.5.8-1.1,1.6-1.6,2.5a2.41,2.41,0,0,1-1,1c-.2.1-.4.1-.5-.1a1.87,1.87,0,0,1-.2-2.6A2.65,2.65,0,0,0,38.3,160.6Z"/><path class="cls-1" d="M44.4,156.3c1.3,0,2.6,0,3.8.1a1.14,1.14,0,0,1,.8,1.9c-.6.9-1.2,1-2.1.3a3.23,3.23,0,0,0-2.1-.8,3.48,3.48,0,0,0-2.8.8h0c-1.2,1-1.6.5-2.3-.6-.4-.6.2-1.5.9-1.6a10.87,10.87,0,0,1,1.8-.1Z"/><path class="cls-5" d="M18,172.2c.1,0,.3,0,.2.2a24.42,24.42,0,0,1-1,2.4c-.1.2-.1.2-.3.2s-.2-.1-.3-.2c-.1-.4-.3-.7-.4-1.1s-.3-1-.5-1.5a.37.37,0,0,1,.5.2l.3.9a2.11,2.11,0,0,1,.4,1,13.36,13.36,0,0,1,.7-1.8.22.22,0,0,1,.2-.2A.35.35,0,0,1,18,172.2Z"/><path class="cls-5" d="M12.1,172.3c.3-.1.4,0,.5.2a18,18,0,0,0,.8,2.1,18,18,0,0,0,.8-2.1c.1-.2.2-.3.4-.2-.3.9-.7,1.7-1,2.6-.1.1-.2.1-.3.2s-.2,0-.2-.1C12.7,174,12.4,173.1,12.1,172.3Z"/><path class="cls-1" d="M12.6,176.9c.2.1.1.2.1.4v1.8c0,.2,0,.4.3.3h.8c.1,0,.3-.1.3.1s-.2.2-.3.2H12.4v-2.5C12.3,176.9,12.4,176.9,12.6,176.9Z"/><path class="cls-6" d="M17.8,172.4c-.3.7-.5,1.4-.8,2.2a5.64,5.64,0,0,1-.4-1.2A12.7,12.7,0,0,1,17.8,172.4Z"/><path class="cls-1" d="M15.3,174.5c0,.2.1.6-.4.5v-2.5c0-.1,0-.2.2-.2s.2.1.2.3Z"/><path class="cls-5" d="M19,178.2c.3,0,.6-.2.6.4s-.4,1.1-1.2,1.1a1.21,1.21,0,0,1-1.2-.8,1.54,1.54,0,0,1,.3-1.7,1.36,1.36,0,0,1,1.5-.3,1,1,0,0,1,.6.5c0,.1.1.2,0,.2s-.2.1-.3-.1c-.2-.5-.6-.5-1-.4a.8.8,0,0,0-.7.9,1.09,1.09,0,0,0,.4,1.2,1.05,1.05,0,0,0,1.2,0c.3-.1.2-.3.2-.6s-.2-.1-.4-.1h-.2c-.1,0-.2,0-.2-.2s.1-.1.2-.1Z"/><path class="cls-5" d="M23.1,177.6c-.2.1-.3.1-.4-.2a.78.78,0,0,0-1.1-.1c-.2.2-.2.5.1.6s.5.1.8.2a.76.76,0,0,1,.7.8c0,.4-.3.7-.8.8s-1.3-.2-1.4-.7c0-.1-.2-.2.1-.3.1,0,.2,0,.3.2a.81.81,0,0,0,1.1.5c.2-.1.3-.2.3-.4s-.1-.3-.3-.4l-.9-.3a.72.72,0,0,1,.1-1.4A1,1,0,0,1,23.1,177.6Z"/><path class="cls-1" d="M14.5,178.3v-1.1c0-.2.1-.2.2-.2h1.5c.1,0,.2-.1.3.1s-.2.2-.3.2H15.1a.27.27,0,0,0-.3.3c0,.6,0,.6.6.6h.8c.1,0,.2,0,.2.2s-.1.1-.3.1h-1a.27.27,0,0,0-.3.3c0,.7,0,.7.6.7h.9c.1,0,.2,0,.2.2s-.1.2-.2.2H14.6c-.2,0-.2-.1-.2-.2A8.17,8.17,0,0,0,14.5,178.3Z"/><path class="cls-5" d="M18,175c.3-.9.7-1.7,1-2.6a.22.22,0,0,1,.2-.2c.1,0,.2,0,.3.2.3.9.7,1.7,1.1,2.6a.44.44,0,0,1-.6-.3c-.1-.2-.1-.5-.3-.5a3.35,3.35,0,0,0-1,0c-.2,0-.2.4-.3.5C18.3,175,18.3,175,18,175Z"/><path class="cls-5" d="M28.1,179.6c-.3.1-.4,0-.5-.3s-.1-.5-.3-.5a1.7,1.7,0,0,0-1,0c-.2,0-.2.3-.3.5s-.2.4-.5.3c.3-.9.7-1.7,1-2.6.1-.1.1-.2.3-.2s.2,0,.3.2C27.4,177.9,27.8,178.8,28.1,179.6Z"/><path class="cls-5" d="M36.1,179.6c-.4.1-.5-.1-.5-.3s-.1-.5-.3-.5a1.7,1.7,0,0,0-1,0c-.2,0-.2.4-.3.5-.1.3-.1.3-.5.3.3-.9.7-1.8,1-2.6a.28.28,0,0,1,.5,0C35.4,177.9,35.8,178.8,36.1,179.6Z"/><path class="cls-7" d="M31.3,176.9c.3-.1.4,0,.5.2a18,18,0,0,0,.8,2.1c.3-.7.5-1.4.8-2,0-.1.1-.2.1-.3a.37.37,0,0,1,.3-.1c.1,0,0,.1,0,.2a24.42,24.42,0,0,1-1,2.4c-.1.1-.1.2-.3.2s-.2,0-.3-.2C31.9,178.6,31.6,177.8,31.3,176.9Z"/><path class="cls-1" d="M29,176.9h.9c.1,0,.2,0,.2.2s-.1.2-.2.2-.6-.1-.7.1,0,.5-.1.7v1.4c0,.1.1.3-.2.3s-.2-.1-.2-.3v-1.8c0-.4-.1-.5-.4-.4H28c-.1,0-.2,0-.2-.1a.22.22,0,0,1,.2-.2A3.75,3.75,0,0,1,29,176.9Z"/><path class="cls-1" d="M23.7,178.2v-1.1c0-.1,0-.3.2-.3s.2.1.2.2v1.9c0,.3.1.3.3.3h.8c.1,0,.2,0,.2.2s-.1.2-.2.2H23.9c-.2,0-.2-.1-.2-.2Z"/><path class="cls-1" d="M20.5,178.3v1.1c0,.1,0,.2-.2.2s-.2-.1-.2-.3V177c0-.1,0-.2.2-.2s.2.1.2.3Z"/><path class="cls-1" d="M30.9,178.3v1.1c0,.1,0,.2-.2.2s-.2-.1-.2-.2v-2.3c0-.1,0-.2.2-.2s.2.1.2.2Z"/><path class="cls-8" d="M19.7,173.8h-.9c.1-.4.3-.8.4-1.2C19.4,173,19.5,173.4,19.7,173.8Z"/><path class="cls-8" d="M26.8,177.3c.1.1.1.3.2.4.3.8.3.8-.6.7C26.5,178.1,26.7,177.7,26.8,177.3Z"/><path class="cls-8" d="M34.8,177.3a5.64,5.64,0,0,1,.4,1.2h-.9C34.5,178.1,34.6,177.7,34.8,177.3Z"/><path class="cls-10" d="M65.2,149.8h3v3.6l3.1-3.6h3.9l-3.5,3.6,3.7,6H71.8l-2-3.9-1.5,1.6v2.3h-3v-9.6Z"/><path class="cls-10" d="M75.5,154.6a4.92,4.92,0,0,1,1.3-3.7,4.84,4.84,0,0,1,3.6-1.3,4.92,4.92,0,0,1,3.7,1.3,4.84,4.84,0,0,1,1.3,3.6,6.09,6.09,0,0,1-.6,2.8,4.36,4.36,0,0,1-1.6,1.7,5.4,5.4,0,0,1-2.7.6,6.84,6.84,0,0,1-2.7-.5,3.75,3.75,0,0,1-1.7-1.6A8.8,8.8,0,0,1,75.5,154.6Zm3,0a3.58,3.58,0,0,0,.5,2.1,1.89,1.89,0,0,0,1.5.6,2,2,0,0,0,1.5-.6,4,4,0,0,0,.5-2.2,3.44,3.44,0,0,0-.5-2,2,2,0,0,0-1.5-.6,1.68,1.68,0,0,0-1.4.6A2.93,2.93,0,0,0,78.5,154.6Z"/><path class="cls-10" d="M87.1,149.8h2.8l3.6,5.3v-5.3h2.8v9.6H93.5l-3.6-5.3v5.3H87.1Z"/><path class="cls-10" d="M103,155.9v-2h4.6V158a10.26,10.26,0,0,1-2.3,1.2,8.75,8.75,0,0,1-2.4.3,5.81,5.81,0,0,1-2.8-.6,4.62,4.62,0,0,1-1.7-1.7,5.54,5.54,0,0,1-.6-2.6,5.67,5.67,0,0,1,.6-2.7,4.14,4.14,0,0,1,1.9-1.8,6,6,0,0,1,2.6-.5,7,7,0,0,1,2.4.3,3,3,0,0,1,1.3.9,5.3,5.3,0,0,1,.8,1.5l-2.9.5a1.24,1.24,0,0,0-.6-.8,1.8,1.8,0,0,0-1.1-.3,2,2,0,0,0-1.6.7,3.28,3.28,0,0,0-.6,2.1,3.22,3.22,0,0,0,.6,2.2,2.18,2.18,0,0,0,1.6.7,2.77,2.77,0,0,0,.9-.1,9.25,9.25,0,0,0,1-.5v-.9H103Z"/><path class="cls-10" d="M109.4,159.4v-9.6h4.9a10.61,10.61,0,0,1,2.1.2,2.15,2.15,0,0,1,1.2.9,2.54,2.54,0,0,1,.4,1.6,3.19,3.19,0,0,1-.3,1.4,2,2,0,0,1-.9.9,3,3,0,0,1-1,.4,1.51,1.51,0,0,1,.8.4,2.25,2.25,0,0,1,.5.5,5.92,5.92,0,0,0,.4.6l1.4,2.8h-3.3l-1.6-2.9a2.49,2.49,0,0,0-.5-.7,1.85,1.85,0,0,0-.7-.2h-.3v3.9h-3.1Zm3-5.7h1.2a3.22,3.22,0,0,0,.8-.1.55.55,0,0,0,.5-.3,1.07,1.07,0,0,0,.2-.6.91.91,0,0,0-.3-.7c-.2-.2-.6-.2-1.1-.2h-1.3Z"/><path class="cls-10" d="M119.8,149.8h7.9v2h-5v1.5h4.6v2h-4.6v1.9h5.1v2.2h-8.1v-9.6Z"/><path class="cls-10" d="M129,156.2l2.8-.2a1.88,1.88,0,0,0,.4,1,1.49,1.49,0,0,0,1.3.6,1.69,1.69,0,0,0,1-.3.91.91,0,0,0,.3-.7,1.08,1.08,0,0,0-.3-.7,3.69,3.69,0,0,0-1.5-.6,6.69,6.69,0,0,1-2.8-1.2,2.24,2.24,0,0,1-.8-1.9,2.3,2.3,0,0,1,.4-1.4,2.68,2.68,0,0,1,1.3-1,5.46,5.46,0,0,1,2.4-.4,4.46,4.46,0,0,1,2.8.7,3.12,3.12,0,0,1,1.1,2.2l-2.8.2a1.35,1.35,0,0,0-.5-.9,1.49,1.49,0,0,0-1-.3,1.88,1.88,0,0,0-.8.2.55.55,0,0,0-.3.5.52.52,0,0,0,.2.4,6.39,6.39,0,0,0,1,.4,28.46,28.46,0,0,1,2.8.8,2.18,2.18,0,0,1,1.2,1.1,2.3,2.3,0,0,1,.4,1.4,3.37,3.37,0,0,1-.5,1.7,3.33,3.33,0,0,1-1.4,1.2,5.27,5.27,0,0,1-2.3.4,5,5,0,0,1-3.4-.9A2.93,2.93,0,0,1,129,156.2Z"/><path class="cls-10" d="M143.7,149.8h3v9.6h-3Z"/><path class="cls-10" d="M148.8,149.8h3v3.6l3.1-3.6h3.9l-3.5,3.6,3.7,6h-3.6l-2-3.9-1.5,1.6v2.3h-3v-9.6Z"/><path class="cls-10" d="M160,149.8h3V157h4.6v2.4H160Z"/><path class="cls-10" d="M169,149.8h3v9.6h-3Z"/><path class="cls-10" d="M174.1,149.8H178l1.5,5.8,1.5-5.8h3.9v9.6h-2.4v-7.3l-1.9,7.3h-2.2l-1.9-7.3v7.3h-2.4v-9.6Z"/><path class="cls-10" d="M65.1,169.8l1-.1a2.93,2.93,0,0,0,.3,1,1.24,1.24,0,0,0,.8.6,2.54,2.54,0,0,0,1.2.2,3.6,3.6,0,0,0,1.1-.2,1.79,1.79,0,0,0,.7-.5.84.84,0,0,0,.2-.7,1.45,1.45,0,0,0-.2-.7c-.1-.2-.4-.3-.7-.5s-.7-.2-1.4-.4a7.65,7.65,0,0,1-1.6-.5,2.36,2.36,0,0,1-.9-.8,1.69,1.69,0,0,1-.3-1,2,2,0,0,1,.3-1.1,2.72,2.72,0,0,1,1-.8,3.34,3.34,0,0,1,1.5-.3,4.15,4.15,0,0,1,1.6.3,3.13,3.13,0,0,1,1.1.8,2.84,2.84,0,0,1,.4,1.3l-1,.1a1.74,1.74,0,0,0-.6-1.2,2.65,2.65,0,0,0-2.8,0,1,1,0,0,0-.4.9.91.91,0,0,0,.3.7,3.69,3.69,0,0,0,1.6.6,17.05,17.05,0,0,1,1.8.5,2.09,2.09,0,0,1,1,.8,2,2,0,0,1,.3,1.1,1.92,1.92,0,0,1-.4,1.2,2,2,0,0,1-1.1.9,4.15,4.15,0,0,1-1.6.3,4.84,4.84,0,0,1-1.8-.3,2.34,2.34,0,0,1-1.2-1A3.26,3.26,0,0,1,65.1,169.8Z"/><path class="cls-10" d="M73,172.4v-8.1h5.8v1H74v2.5h4.5v.9H74v2.7h5v1H73Z"/><path class="cls-10" d="M80.4,172.4v-8.1H82l1.9,5.7c.2.5.3.9.4,1.2.1-.3.2-.7.4-1.3l1.9-5.6H88v8.1H87v-6.7l-2.3,6.7h-1l-2.3-6.9v6.9h-1Z"/><path class="cls-10" d="M88.9,172.4l3.1-8.1h1.1l3.3,8.1H95.2l-.9-2.4H91l-.9,2.4Zm2.4-3.3H94l-.8-2.2c-.3-.7-.4-1.2-.6-1.7a8.33,8.33,0,0,1-.4,1.5Z"/><path class="cls-10" d="M97.3,172.4v-8.1h3.6a5.67,5.67,0,0,1,1.6.2,1.42,1.42,0,0,1,.9.8,2.66,2.66,0,0,1,.3,1.2,1.68,1.68,0,0,1-.6,1.4,3.36,3.36,0,0,1-1.7.7,1.54,1.54,0,0,1,.6.4,5.31,5.31,0,0,1,.9,1.1l1.4,2.2H103l-1.1-1.7a6.29,6.29,0,0,0-.8-1.1,2.25,2.25,0,0,0-.5-.5c-.2-.1-.3-.2-.5-.2H98.3v3.6h-1Zm1.1-4.5h2.3a2.68,2.68,0,0,0,1.1-.2,1,1,0,0,0,.6-.5,1.85,1.85,0,0,0,.2-.7,1,1,0,0,0-.4-.9,2.23,2.23,0,0,0-1.3-.4H98.4Z"/><path class="cls-10" d="M104.6,172.4l3.1-8.1h1.1l3.3,8.1h-1.2L110,170h-3.4l-.9,2.4Zm2.3-3.3h2.7l-.8-2.2c-.3-.7-.4-1.2-.6-1.7a8.33,8.33,0,0,1-.4,1.5Z"/><path class="cls-10" d="M112.9,172.4v-8.1H114l4.2,6.3v-6.3h1v8.1h-1.1L114,166v6.3h-1.1Z"/><path class="cls-10" d="M124.9,169.2v-.9h3.4v3a6.47,6.47,0,0,1-1.6.9,5.08,5.08,0,0,1-1.7.3,5.45,5.45,0,0,1-2.2-.5,3.61,3.61,0,0,1-1.5-1.5,5,5,0,0,1-.5-2.1,5.45,5.45,0,0,1,.5-2.2,2.94,2.94,0,0,1,1.4-1.5,4.65,4.65,0,0,1,2.1-.5,4.15,4.15,0,0,1,1.6.3,3.13,3.13,0,0,1,1.1.8,2.62,2.62,0,0,1,.6,1.3l-1,.3a3.13,3.13,0,0,0-.5-1,2.76,2.76,0,0,0-.8-.6,3.59,3.59,0,0,0-1.1-.2,5.07,5.07,0,0,0-1.3.2,1.8,1.8,0,0,0-.9.6,2.18,2.18,0,0,0-.5.8,4.15,4.15,0,0,0-.3,1.6,3.42,3.42,0,0,0,.4,1.8,2.35,2.35,0,0,0,1.1,1.1,4.19,4.19,0,0,0,1.5.4,3.53,3.53,0,0,0,1.4-.3,4.37,4.37,0,0,0,1-.6v-1.5h-2.2Z"/><path class="cls-10" d="M137.8,171.4v1h-5.3a1.7,1.7,0,0,1,.1-.7,3.38,3.38,0,0,1,.7-1.1,5.12,5.12,0,0,1,1.3-1.2,10.18,10.18,0,0,0,1.8-1.7,2.08,2.08,0,0,0,.5-1.2,1.28,1.28,0,0,0-.4-1,1.37,1.37,0,0,0-1.1-.4,1.25,1.25,0,0,0-1.1.4,1.59,1.59,0,0,0-.4,1.2l-1-.1a2.3,2.3,0,0,1,.8-1.7,2.79,2.79,0,0,1,1.8-.6,2.44,2.44,0,0,1,1.8.6,2,2,0,0,1,.7,1.6,4.4,4.4,0,0,1-.2,1,4.62,4.62,0,0,1-.7,1c-.3.3-.8.8-1.5,1.4a5.93,5.93,0,0,0-1.1,1c-.2.2-.3.4-.4.5Z"/><path class="cls-10" d="M138.8,168.4a7.12,7.12,0,0,1,.3-2.3,2.54,2.54,0,0,1,.9-1.3,2.46,2.46,0,0,1,1.5-.5,2,2,0,0,1,1.1.3,2,2,0,0,1,.8.8,3.34,3.34,0,0,1,.5,1.2,9.2,9.2,0,0,1,.2,1.9,7.55,7.55,0,0,1-.3,2.3,2.54,2.54,0,0,1-.9,1.3,2.46,2.46,0,0,1-1.5.5,2.2,2.2,0,0,1-1.8-.8A6.32,6.32,0,0,1,138.8,168.4Zm1,0a4.85,4.85,0,0,0,.5,2.6,1.51,1.51,0,0,0,1.1.7,1.17,1.17,0,0,0,1.1-.7,7,7,0,0,0,0-5.2,1.52,1.52,0,0,0-1.2-.7,1.25,1.25,0,0,0-1.1.6A7.6,7.6,0,0,0,139.8,168.4Z"/><path class="cls-10" d="M148.8,172.4h-1v-6.3a7.05,7.05,0,0,1-.9.7,9.25,9.25,0,0,1-1,.5v-1c.6-.3,1-.6,1.5-.9a4.36,4.36,0,0,0,.9-1.1h.6v8.1Z"/><path class="cls-10" d="M151.5,170.5l1-.1a1.6,1.6,0,0,0,.5,1,1.22,1.22,0,0,0,.9.3,1.88,1.88,0,0,0,.8-.2,1.7,1.7,0,0,0,.6-.6,3.92,3.92,0,0,0,.4-.9,4.87,4.87,0,0,0,.1-1.2v-.2a3,3,0,0,1-.8.8,2,2,0,0,1-1.1.3,2.19,2.19,0,0,1-1.7-.7,2.49,2.49,0,0,1-.7-1.9,2.72,2.72,0,0,1,.7-2,2.41,2.41,0,0,1,1.8-.7,2.3,2.3,0,0,1,1.4.4,2.94,2.94,0,0,1,1,1.2,6.71,6.71,0,0,1,.3,2.3,9,9,0,0,1-.3,2.5,3,3,0,0,1-1,1.4,2.77,2.77,0,0,1-1.6.5,2.46,2.46,0,0,1-1.5-.5A3.3,3.3,0,0,1,151.5,170.5Zm4-3.6a2.17,2.17,0,0,0-.5-1.4,1.46,1.46,0,0,0-2.2,0,2.17,2.17,0,0,0-.5,1.4,2.11,2.11,0,0,0,.5,1.3,1.61,1.61,0,0,0,1.1.5,1.43,1.43,0,0,0,1.1-.5C155.4,168,155.5,167.5,155.5,166.9Z"/><rect class="cls-1" x="35.7" y="82.5" width="15.1" height="32.3"/><path class="cls-11" d="M7.7,114.9H5.6c-.3,0-.4-.1-.4-.3-1.2-4.2-2.3-8.3-3.5-12.5-.4-1.5-.8-3-1.3-4.5,0-.1-.1-.1-.1-.2v-.2a1.38,1.38,0,0,1,.4-.3l5-5c4.3-4.2,8.5-8.5,12.8-12.7,3.6-3.6,7.3-7.2,10.9-10.8.2-.2.4-.3.6-.2,8.6,2.5,17.2,5.1,25.8,7.6.3.1.4.2.4.5v37.3c-.2-.1-.1-.3-.1-.5v-5.6c0-3.3.1-6.5,0-9.8-.1-4.7,0-9.5-.1-14.2,0-.4-.1-.6-.5-.7a35.41,35.41,0,0,0-9.6-2.3,31.47,31.47,0,0,0-5.3-.1,32.36,32.36,0,0,0-11.8,2.8,37.59,37.59,0,0,0-9.3,5.9,34.9,34.9,0,0,0-7.4,9.3,36.61,36.61,0,0,0-4,12.5c-.2,1.2-.2,2.4-.3,3.7A.77.77,0,0,1,7.7,114.9Z"/><path class="cls-9" d="M7.7,114.9c0-1.1,0-2.2.1-3.3a28.82,28.82,0,0,1,1.3-6.5,34.57,34.57,0,0,1,6.3-12,35,35,0,0,1,19-12,33.63,33.63,0,0,1,10-.9,35.73,35.73,0,0,1,11.2,2.5.55.55,0,0,1,.4.6V95.8c.1,5.8,0,11.7.1,17.5v1.5c0,.2-.1.2-.2.2H50.4c-.2,0-.2-.1-.2-.2V99.4c0-.3-.1-.4-.4-.5a2.91,2.91,0,0,1-1.4-1.3,10.71,10.71,0,0,0-1.5-2.2v19.4c0,.1,0,.2-.2.2s-.2-.1-.2-.2V95.3c-.2,0-.2.2-.3.3L45,97.4a2.65,2.65,0,0,1-.5.6.85.85,0,0,1-1.3,0c-.4-.4-.7-.9-1.1-1.3a12.13,12.13,0,0,0-1-1.4v19.5c0,.1,0,.2-.2.2s-.2-.1-.2-.2V95.4a12.13,12.13,0,0,0-1,1.4,8.34,8.34,0,0,1-.8,1.2,2.52,2.52,0,0,1-1.5,1c-.2.1-.3-.1-.4-.2a2.35,2.35,0,0,1-.4-3.2c.1-.2.2-.3.3-.5a1.32,1.32,0,0,0-.2-1.2c-.2-.3-.4-.5-.6-.8a1.18,1.18,0,0,1,1.5-1.7c.2.1.4.3.6.2s.1-.4.2-.6a1.75,1.75,0,0,1,1.5-1c.3,0,.7-.1,1-.1h4.5c.7,0,1-.2,1.1-.9a1.67,1.67,0,0,0-.1-1.2c-.7-1.3-1.4-2.7-2.1-4-.4-.7-.8-.8-1.4-.1l-.1.1-4.6,4c-1.3,1.2-2.7,2.3-4,3.5s-2.7,2.4-4,3.5-2.7,2.3-4,3.5-2.7,2.4-4,3.5-2.7,2.3-4,3.5c-.3.3-.6.5-.9.8l-.2.2a6.47,6.47,0,0,1-.9.8.52.52,0,0,1-.4.2c-.2-.1-.2-.4-.3-.6s-.1-.3-.3-.4c0,.5.4.9.3,1.4a2.7,2.7,0,0,1-.8.7.19.19,0,0,1-.3,0c-.1-.6,0-1.3-.1-1.9-.1.8,0,1.6-.1,2.4a5,5,0,0,1-.8.7,11.51,11.51,0,0,1-1.7,1.4,3.08,3.08,0,0,0-.1,1v1.3a.6.6,0,0,1-.1.4c-.3-.1-.2-.3-.2-.5v-1.8c-1.2,1-2.3,2-3.4,3a.76.76,0,0,0,.4.1H36.5c.3,0,.5-.1.8.1-.1.3-.3.3-.6.3H7.7Z"/><path class="cls-12" d="M17.6,106.2c.5-.5,1.1-1,1.6-1.5l2.2-1.9c.9-.8,1.9-1.6,2.8-2.4.7-.6,1.4-1.3,2.2-1.9.9-.8,1.9-1.6,2.8-2.4l2.1-1.8c1-.9,2-1.7,2.9-2.6l2.7-2.4c.9-.8,1.8-1.6,2.8-2.4.7-.6,1.4-1.3,2.2-1.9a7.55,7.55,0,0,1,1.4-1.1.44.44,0,0,1-.1.5c-.5.9-.9,1.9-1.5,2.8a3.55,3.55,0,0,0-.4.9,1.63,1.63,0,0,0,.2,1.5.76.76,0,0,1,.2.5,8.75,8.75,0,0,0-1.6.2,1.18,1.18,0,0,0-.9,1.2c0,.3-.1.4-.4.2s-.3-.2-.5-.3a1.13,1.13,0,0,0-1.3.4A.91.91,0,0,0,37,93a3,3,0,0,0,.5.7,1.27,1.27,0,0,1,0,1.8,2.21,2.21,0,0,0,.6,3.4v14.6a2.46,2.46,0,0,1-.1,1.2H8.4c.1-.3.3-.4.5-.6l2.2-1.9c.3-.2.5-.5.8-.7.1-.1.1-.1.2-.1s.1.1.1.2v1.8a.6.6,0,0,0,.1.4c.3-.2.6-.1.9-.1h.5c-.2-.1-.5,0-.7,0a.37.37,0,0,1-.4-.4,16.15,16.15,0,0,1,0-2.2c.6-.6,1.3-1.1,1.9-1.7.1-.1.2-.3.4-.2.2-.1.2-.3.4-.5a6.47,6.47,0,0,1,.9-.8c.2,0,.2.2.2.3s.1.4.2.6.1.3.3.3.2-.2.2-.3c.3-.6.5-1.3.8-1.9A1.08,1.08,0,0,1,17.6,106.2Z"/><path class="cls-1" d="M37.9,94.5a2.46,2.46,0,0,0-.4-1.1,3,3,0,0,1-.5-.7.52.52,0,0,1,.1-.8.54.54,0,0,1,.8-.2c.5.3,1.1.5,1.4,1,.1.1.2.2.2.3a1.17,1.17,0,0,0,1.7.3c.2-.1.3-.2.5-.3a3.61,3.61,0,0,1,4.4-.2,3.51,3.51,0,0,0,.8.5c.8.3,1.4.2,1.8-.5a2.52,2.52,0,0,1,1.5-1,.78.78,0,0,1,.8.1.61.61,0,0,1,.1.8c-.1.1-.1.3-.2.4a2.13,2.13,0,0,0-.1,2.8,1.84,1.84,0,0,1-.3,2.5.44.44,0,0,1-.5.1,2,2,0,0,1-1-1c-.5-.9-1.1-1.7-1.6-2.5-.3-.4-.6-.5-1-.1s-.7,1-1,1.4a7.63,7.63,0,0,1-.8,1.1c-.4.5-.7.5-1.1,0s-.9-1.3-1.4-1.9c-.1-.2-.3-.4-.4-.6-.3-.4-.7-.4-1,.1-.5.8-1.1,1.6-1.6,2.5a2.41,2.41,0,0,1-1,1c-.2.1-.4.1-.5-.1a1.87,1.87,0,0,1-.2-2.6C37.8,95.1,37.9,94.9,37.9,94.5Z"/><path class="cls-1" d="M44,90.3c1.3,0,2.6,0,3.8.1a1.14,1.14,0,0,1,.8,1.9c-.6.9-1.2,1-2.1.3a3.23,3.23,0,0,0-2.1-.8,3.48,3.48,0,0,0-2.8.8h0c-1.2,1-1.6.5-2.3-.6-.4-.6.2-1.5.9-1.6a10.87,10.87,0,0,1,1.8-.1Z"/><path class="cls-5" d="M17.6,106.2c.1,0,.3,0,.2.2a24.43,24.43,0,0,1-1,2.4c-.1.2-.1.2-.3.2s-.2-.1-.3-.2c-.1-.4-.3-.7-.4-1.1s-.3-1-.5-1.5a.37.37,0,0,1,.5.2l.3.9a2.11,2.11,0,0,1,.4,1,13.36,13.36,0,0,1,.7-1.8.22.22,0,0,1,.2-.2A.35.35,0,0,1,17.6,106.2Z"/><path class="cls-5" d="M11.7,106.3c.3-.1.4,0,.5.2a18,18,0,0,0,.8,2.1,18,18,0,0,0,.8-2.1c.1-.2.2-.3.4-.2-.3.9-.7,1.7-1,2.6-.1.1-.2.1-.3.2s-.2,0-.2-.1C12.3,108,12,107.1,11.7,106.3Z"/><path class="cls-1" d="M12.2,110.9c.2.1.1.2.1.4v1.8c0,.2,0,.4.3.3h.8c.1,0,.3-.1.3.1s-.2.2-.3.2H12v-2.5C11.9,110.9,12,110.9,12.2,110.9Z"/><path class="cls-12" d="M17.4,106.4c-.3.7-.5,1.4-.8,2.2a5.64,5.64,0,0,1-.4-1.2C16.6,107.1,16.9,106.6,17.4,106.4Z"/><path class="cls-1" d="M14.9,108.5c0,.2.1.6-.4.5v-2.5c0-.1,0-.2.2-.2s.2.1.2.3Z"/><path class="cls-5" d="M18.6,112.2c.3,0,.6-.2.6.4s-.4,1.1-1.2,1.1a1.21,1.21,0,0,1-1.2-.8,1.54,1.54,0,0,1,.3-1.7,1.36,1.36,0,0,1,1.5-.3,1,1,0,0,1,.6.5c0,.1.1.2,0,.2s-.2.1-.3-.1c-.2-.5-.6-.5-1-.4a.8.8,0,0,0-.7.9,1.09,1.09,0,0,0,.4,1.2,1.05,1.05,0,0,0,1.2,0c.3-.1.2-.3.2-.6s-.2-.1-.4-.1h-.2c-.1,0-.2,0-.2-.2s.1-.1.2-.1Z"/><path class="cls-5" d="M22.7,111.6c-.2.1-.3.1-.4-.2a.78.78,0,0,0-1.1-.1c-.2.2-.2.5.1.6s.5.1.8.2a.76.76,0,0,1,.7.8c0,.4-.3.7-.8.8s-1.3-.2-1.4-.7c0-.1-.2-.2.1-.3.1,0,.2,0,.3.2a.81.81,0,0,0,1.1.5c.2-.1.3-.2.3-.4s-.1-.3-.3-.4l-.9-.3a.72.72,0,0,1,.1-1.4A.94.94,0,0,1,22.7,111.6Z"/><path class="cls-1" d="M14.1,112.3v-1.1c0-.2.1-.2.2-.2h1.5c.1,0,.2-.1.3.1s-.2.2-.3.2H14.7a.27.27,0,0,0-.3.3c0,.6,0,.6.6.6h.8c.1,0,.2,0,.2.2s-.1.1-.3.1h-1a.27.27,0,0,0-.3.3c0,.7,0,.7.6.7h.9c.1,0,.2,0,.2.2s-.1.2-.2.2H14.2c-.2,0-.2-.1-.2-.2A8.8,8.8,0,0,0,14.1,112.3Z"/><path class="cls-5" d="M17.5,109c.3-.9.7-1.7,1-2.6a.22.22,0,0,1,.2-.2c.1,0,.2,0,.3.2.3.9.7,1.7,1.1,2.6a.44.44,0,0,1-.6-.3c-.1-.2-.1-.5-.3-.5a3.35,3.35,0,0,0-1,0c-.2,0-.2.4-.3.5C17.9,109,17.9,109,17.5,109Z"/><path class="cls-5" d="M27.7,113.6c-.3.1-.4,0-.5-.3s-.1-.5-.3-.5a1.7,1.7,0,0,0-1,0c-.2,0-.2.3-.3.5s-.2.4-.5.3c.3-.9.7-1.7,1-2.6.1-.1.1-.2.3-.2s.2,0,.3.2C27,111.9,27.4,112.7,27.7,113.6Z"/><path class="cls-5" d="M35.7,113.6c-.4.1-.5-.1-.5-.3s-.1-.5-.3-.5a1.7,1.7,0,0,0-1,0c-.2,0-.2.4-.3.5-.1.3-.1.3-.5.3.3-.9.7-1.8,1-2.6a.28.28,0,0,1,.5,0C35,111.9,35.4,112.7,35.7,113.6Z"/><path class="cls-7" d="M30.9,110.9c.3-.1.4,0,.5.2a18,18,0,0,0,.8,2.1c.3-.7.5-1.4.8-2,0-.1.1-.2.1-.3a.37.37,0,0,1,.3-.1c.1,0,0,.1,0,.2a24.42,24.42,0,0,1-1,2.4c-.1.1-.1.2-.3.2s-.2,0-.3-.2C31.5,112.6,31.2,111.8,30.9,110.9Z"/><path class="cls-1" d="M28.6,110.9h.9c.1,0,.2,0,.2.2s-.1.2-.2.2-.6-.1-.7.1,0,.5-.1.7v1.4c0,.1.1.3-.2.3s-.2-.1-.2-.3v-1.8c0-.4-.1-.5-.4-.4h-.3c-.1,0-.2,0-.2-.1a.22.22,0,0,1,.2-.2A3.75,3.75,0,0,1,28.6,110.9Z"/><path class="cls-1" d="M23.3,112.2v-1.1c0-.1,0-.3.2-.3s.2.1.2.2v1.9c0,.3.1.3.3.3h.8c.1,0,.2,0,.2.2s-.1.2-.2.2H23.5c-.2,0-.2-.1-.2-.2Z"/><path class="cls-1" d="M20.1,112.3v1.1c0,.1,0,.2-.2.2s-.2-.1-.2-.3V111c0-.1,0-.2.2-.2s.2.1.2.3Z"/><path class="cls-1" d="M30.5,112.3v1.1c0,.1,0,.2-.2.2s-.2-.1-.2-.2v-2.3c0-.1,0-.2.2-.2s.2.1.2.2Z"/><path class="cls-12" d="M19.3,107.8h-.9c.1-.4.3-.8.4-1.2C19,107,19.1,107.4,19.3,107.8Z"/><path class="cls-12" d="M26.4,111.3c.1.1.1.3.2.4.3.8.3.8-.6.7A7.6,7.6,0,0,1,26.4,111.3Z"/><path class="cls-12" d="M34.4,111.2a5.64,5.64,0,0,1,.4,1.2h-.9A7.26,7.26,0,0,0,34.4,111.2Z"/><path class="cls-9" d="M64.8,83.8h3v3.6l3.1-3.6h3.9l-3.5,3.6,3.7,6H71.4l-2-3.9L67.8,91v2.3h-3Z"/><path class="cls-9" d="M75.1,88.6a4.92,4.92,0,0,1,1.3-3.7A4.84,4.84,0,0,1,80,83.6a4.92,4.92,0,0,1,3.7,1.3A4.84,4.84,0,0,1,85,88.5a6.09,6.09,0,0,1-.6,2.8A4.36,4.36,0,0,1,82.8,93a5.4,5.4,0,0,1-2.7.6,6.84,6.84,0,0,1-2.7-.5,3.75,3.75,0,0,1-1.7-1.6A6.84,6.84,0,0,1,75.1,88.6Zm3,0a3.58,3.58,0,0,0,.5,2.1,1.89,1.89,0,0,0,1.5.6,2,2,0,0,0,1.5-.6,4,4,0,0,0,.5-2.2,3.44,3.44,0,0,0-.5-2,2,2,0,0,0-1.5-.6,1.68,1.68,0,0,0-1.4.6A2.93,2.93,0,0,0,78.1,88.6Z"/><path class="cls-9" d="M86.7,83.8h2.8l3.6,5.3V83.8h2.8v9.6H93.1l-3.6-5.3v5.3H86.7Z"/><path class="cls-9" d="M102.6,89.9v-2h4.6V92a10.26,10.26,0,0,1-2.3,1.2,8.75,8.75,0,0,1-2.4.3,5.81,5.81,0,0,1-2.8-.6A4.62,4.62,0,0,1,98,91.2a5.54,5.54,0,0,1-.6-2.6,5.67,5.67,0,0,1,.6-2.7,4.14,4.14,0,0,1,1.9-1.8,6,6,0,0,1,2.6-.5,7,7,0,0,1,2.4.3,3,3,0,0,1,1.3.9,5.3,5.3,0,0,1,.8,1.5l-2.9.5a1.24,1.24,0,0,0-.6-.8,1.8,1.8,0,0,0-1.1-.3,2,2,0,0,0-1.6.7,3.28,3.28,0,0,0-.6,2.1,3.22,3.22,0,0,0,.6,2.2,2.18,2.18,0,0,0,1.6.7,2.77,2.77,0,0,0,.9-.1,9.25,9.25,0,0,0,1-.5v-.9Z"/><path class="cls-9" d="M109,93.4V83.8h4.9a10.61,10.61,0,0,1,2.1.2,2.15,2.15,0,0,1,1.2.9,2.54,2.54,0,0,1,.4,1.6,3.19,3.19,0,0,1-.3,1.4,2,2,0,0,1-.9.9,3,3,0,0,1-1,.4,1.51,1.51,0,0,1,.8.4,2.25,2.25,0,0,1,.5.5,5.92,5.92,0,0,0,.4.6l1.4,2.8h-3.3l-1.6-2.9a2.49,2.49,0,0,0-.5-.7,1.85,1.85,0,0,0-.7-.2H112v3.9h-3Zm3-5.7h1.2a3.22,3.22,0,0,0,.8-.1.55.55,0,0,0,.5-.3,1.07,1.07,0,0,0,.2-.6.91.91,0,0,0-.3-.7c-.2-.2-.6-.2-1.1-.2H112Z"/><path class="cls-9" d="M119.4,83.8h7.9v2h-5v1.5h4.6v2h-4.6v1.9h5.1v2.2h-8.1V83.8Z"/><path class="cls-9" d="M128.5,90.2l2.8-.2a1.88,1.88,0,0,0,.4,1,1.49,1.49,0,0,0,1.3.6,1.69,1.69,0,0,0,1-.3.91.91,0,0,0,.3-.7,1.08,1.08,0,0,0-.3-.7,3.69,3.69,0,0,0-1.5-.6,6.69,6.69,0,0,1-2.8-1.2,2.24,2.24,0,0,1-.8-1.9,2.3,2.3,0,0,1,.4-1.4,2.68,2.68,0,0,1,1.3-1,5.46,5.46,0,0,1,2.4-.4,4.46,4.46,0,0,1,2.8.7,3.12,3.12,0,0,1,1.1,2.2l-2.8.2a1.35,1.35,0,0,0-.5-.9,1.49,1.49,0,0,0-1-.3,1.88,1.88,0,0,0-.8.2.55.55,0,0,0-.3.5.52.52,0,0,0,.2.4,6.39,6.39,0,0,0,1,.4,28.46,28.46,0,0,1,2.8.8,2.18,2.18,0,0,1,1.2,1.1,2.3,2.3,0,0,1,.4,1.4,3.37,3.37,0,0,1-.5,1.7,3.33,3.33,0,0,1-1.4,1.2,5.27,5.27,0,0,1-2.3.4,5,5,0,0,1-3.4-.9A3.78,3.78,0,0,1,128.5,90.2Z"/><path class="cls-9" d="M143.3,83.8h3v9.6h-3Z"/><path class="cls-9" d="M148.4,83.8h3v3.6l3.1-3.6h3.9l-3.5,3.6,3.7,6H155l-2-3.9-1.5,1.6v2.3h-3V83.8Z"/><path class="cls-9" d="M159.6,83.8h3V91h4.6v2.4h-7.6Z"/><path class="cls-9" d="M168.6,83.8h3v9.6h-3Z"/><path class="cls-9" d="M173.7,83.8h3.9l1.5,5.8,1.5-5.8h3.9v9.6H182V86l-1.9,7.3H178L176.1,86v7.3h-2.4V83.8Z"/><path class="cls-9" d="M64.7,103.8l1-.1a2.93,2.93,0,0,0,.3,1,1.24,1.24,0,0,0,.8.6,2.54,2.54,0,0,0,1.2.2,3.59,3.59,0,0,0,1.1-.2,1.79,1.79,0,0,0,.7-.5.84.84,0,0,0,.2-.7,1.45,1.45,0,0,0-.2-.7c-.1-.2-.4-.3-.7-.5s-.7-.2-1.4-.4a7.65,7.65,0,0,1-1.6-.5,2.36,2.36,0,0,1-.9-.8,1.69,1.69,0,0,1-.3-1,2,2,0,0,1,1.3-1.9,3.34,3.34,0,0,1,1.5-.3,4.15,4.15,0,0,1,1.6.3,3.13,3.13,0,0,1,1.1.8,2.84,2.84,0,0,1,.4,1.3l-1,.1a1.74,1.74,0,0,0-.6-1.2,2.12,2.12,0,0,0-1.4-.4,2,2,0,0,0-1.4.4,1,1,0,0,0-.4.9.91.91,0,0,0,.3.7,3.69,3.69,0,0,0,1.6.6,17.06,17.06,0,0,1,1.8.5,2.09,2.09,0,0,1,1,.8,2,2,0,0,1,.3,1.1,1.92,1.92,0,0,1-.4,1.2,2,2,0,0,1-1.1.9,4.15,4.15,0,0,1-1.6.3,4.84,4.84,0,0,1-1.8-.3,2.34,2.34,0,0,1-1.2-1A3.26,3.26,0,0,1,64.7,103.8Z"/><path class="cls-9" d="M72.5,106.4V98.3h5.8v1H73.5v2.5H78v.9H73.5v2.7h4.9v1Z"/><path class="cls-9" d="M80,106.4V98.3h1.6l1.9,5.7c.2.5.3.9.4,1.2.1-.3.2-.7.4-1.3l1.9-5.6h1.4v8.1h-1V99.7l-2.3,6.7h-1L81,99.5v6.9Z"/><path class="cls-9" d="M88.5,106.4l3.1-8.1h1.1l3.3,8.1H94.8l-.9-2.4H90.5l-.9,2.4Zm2.3-3.4h2.7l-.8-2.2c-.3-.7-.4-1.2-.6-1.7a8.33,8.33,0,0,1-.4,1.5Z"/><path class="cls-9" d="M96.9,106.4V98.3h3.6a5.67,5.67,0,0,1,1.6.2,1.42,1.42,0,0,1,.9.8,2.66,2.66,0,0,1,.3,1.2,1.68,1.68,0,0,1-.6,1.4,2.68,2.68,0,0,1-1.7.7,1.54,1.54,0,0,1,.6.4,5.31,5.31,0,0,1,.9,1.1l1.4,2.2h-1.3l-1.1-1.7a6.29,6.29,0,0,0-.8-1.1,2.25,2.25,0,0,0-.5-.5c-.2-.1-.3-.2-.5-.2H98v3.6Zm1.1-4.5h2.3a2.68,2.68,0,0,0,1.1-.2,1,1,0,0,0,.6-.5,1.85,1.85,0,0,0,.2-.7,1,1,0,0,0-.4-.9,2.23,2.23,0,0,0-1.3-.4H98Z"/><path class="cls-9" d="M104.2,106.4l3.1-8.1h1.1l3.3,8.1h-1.2l-.9-2.4h-3.4l-.9,2.4Zm2.3-3.4h2.7l-.8-2.2c-.3-.7-.4-1.2-.6-1.7a8.33,8.33,0,0,1-.4,1.5Z"/><path class="cls-9" d="M112.5,106.4V98.3h1.1l4.2,6.3V98.3h1v8.1h-1.1l-4.2-6.3v6.3Z"/><path class="cls-9" d="M124.4,103.2v-.9h3.4v3a6.47,6.47,0,0,1-1.6.9,5.08,5.08,0,0,1-1.7.3,5.45,5.45,0,0,1-2.2-.5,3.61,3.61,0,0,1-1.5-1.5,5,5,0,0,1-.5-2.1,5.45,5.45,0,0,1,.5-2.2,2.94,2.94,0,0,1,1.4-1.5,4.65,4.65,0,0,1,2.1-.5,4.15,4.15,0,0,1,1.6.3,3.13,3.13,0,0,1,1.1.8,2.62,2.62,0,0,1,.6,1.3l-1,.3a3.13,3.13,0,0,0-.5-1,2.76,2.76,0,0,0-.8-.6,3.59,3.59,0,0,0-1.1-.2,5.07,5.07,0,0,0-1.3.2,1.8,1.8,0,0,0-.9.6,2.18,2.18,0,0,0-.5.8,4.15,4.15,0,0,0-.3,1.6,3.42,3.42,0,0,0,.4,1.8,2.35,2.35,0,0,0,1.1,1.1,4.19,4.19,0,0,0,1.5.4,3.53,3.53,0,0,0,1.4-.3,4.37,4.37,0,0,0,1-.6v-1.5h-2.2Z"/><path class="cls-9" d="M137.4,105.4v1H132a1.7,1.7,0,0,1,.1-.7,3.38,3.38,0,0,1,.7-1.1,5.12,5.12,0,0,1,1.3-1.2,10.18,10.18,0,0,0,1.8-1.7,2.08,2.08,0,0,0,.5-1.2,1.28,1.28,0,0,0-.4-1,1.37,1.37,0,0,0-1.1-.4,1.25,1.25,0,0,0-1.1.4,1.59,1.59,0,0,0-.4,1.2l-1-.1a2.3,2.3,0,0,1,.8-1.7,2.79,2.79,0,0,1,1.8-.6,2.44,2.44,0,0,1,1.8.6,2,2,0,0,1,.7,1.6,4.4,4.4,0,0,1-.2,1,4.62,4.62,0,0,1-.7,1c-.3.3-.8.8-1.5,1.4a5.93,5.93,0,0,0-1.1,1c-.2.2-.3.4-.4.5h3.8Z"/><path class="cls-9" d="M138.4,102.4a7.12,7.12,0,0,1,.3-2.3,2.54,2.54,0,0,1,.9-1.3,2.46,2.46,0,0,1,1.5-.5,2,2,0,0,1,1.1.3,2,2,0,0,1,.8.8,3.34,3.34,0,0,1,.5,1.2,9.2,9.2,0,0,1,.2,1.9,7.55,7.55,0,0,1-.3,2.3,2.54,2.54,0,0,1-.9,1.3,2.46,2.46,0,0,1-1.5.5,2.2,2.2,0,0,1-1.8-.8A6.32,6.32,0,0,1,138.4,102.4Zm1,0a4.85,4.85,0,0,0,.5,2.6,1.51,1.51,0,0,0,1.1.7,1.17,1.17,0,0,0,1.1-.7,7,7,0,0,0,0-5.2,1.52,1.52,0,0,0-1.2-.7,1.25,1.25,0,0,0-1.1.6A7.6,7.6,0,0,0,139.4,102.4Z"/><path class="cls-9" d="M148.4,106.4h-1v-6.3a7.05,7.05,0,0,1-.9.7,9.25,9.25,0,0,1-1,.5v-1c.6-.3,1-.6,1.5-.9a4.36,4.36,0,0,0,.9-1.1h.6v8.1Z"/><path class="cls-9" d="M151.1,104.5l1-.1a1.6,1.6,0,0,0,.5,1,1.22,1.22,0,0,0,.9.3,1.88,1.88,0,0,0,.8-.2,1.7,1.7,0,0,0,.6-.6,3.92,3.92,0,0,0,.4-.9,4.87,4.87,0,0,0,.1-1.2v-.2a3,3,0,0,1-.8.8,2,2,0,0,1-1.1.3,2.19,2.19,0,0,1-1.7-.7,2.49,2.49,0,0,1-.7-1.9,2.72,2.72,0,0,1,.7-2,2.41,2.41,0,0,1,1.8-.7,2.3,2.3,0,0,1,1.4.4,2.94,2.94,0,0,1,1,1.2,6.71,6.71,0,0,1,.3,2.3,9,9,0,0,1-.3,2.5,3,3,0,0,1-1,1.4,2.77,2.77,0,0,1-1.6.5,2.46,2.46,0,0,1-1.5-.5A3.3,3.3,0,0,1,151.1,104.5Zm4-3.6a2.17,2.17,0,0,0-.5-1.4,1.46,1.46,0,0,0-2.2,0,2.17,2.17,0,0,0-.5,1.4,2.11,2.11,0,0,0,.5,1.3,1.61,1.61,0,0,0,1.1.5,1.72,1.72,0,0,0,1.6-1.8Z"/></svg>